<svg xmlns="http://www.w3.org/2000/svg" viewBox="0 0 205.45 150.67">
  <defs>
    <style>
      .cls-1 {
        fill: #1e1e1e;
      }

      .cls-2 {
        fill: #7f0000;
      }

      .cls-3 {
        fill: red;
      }

      .cls-4 {
        fill: #cacaca;
      }

      .cls-5 {
        fill: #fff;
      }

      .cls-6 {
        fill: #231f20;
      }
    </style>
  </defs>
  <title>logo-2</title>
  <g id="Layer_2" data-name="Layer 2">
    <g id="OBJECTS">
      <g>
        <path class="cls-1" d="M191.7,90.91c-18-37.59-42.62-52.1-42.62-52.1l5.27-1.48c-22.92-20-40.46-25.89-40.46-25.89l3.38-3.94C82.95-2.85,50-1.51,29.38,5.57S9.91,28.11,9.91,28.11-1.16,38.23.1,48.53C2.08,64.62,25.37,73,25.37,73c-3-4.13-3.5-8-2.43-10.7s11.59-2.82,11.59-2.82c27,12.11,29.12,40.78,29.12,40.78,22.61,16.08,127.25-6.53,127.25-6.53Z"/>
        <path class="cls-2" d="M37.92,7c34.16-9.71,71.31,3.13,71.31,3.13l-3.42,2.74c24.58,9.19,37.84,20.92,37.84,20.92l-5.38,2.12c38.82,29,44,49.51,44,49.51-30.58-22.28-49.27-24.72-49.27-24.72a15.51,15.51,0,0,1,3.2,7.62c-18.59-10.12-39.16-8.63-39.16-8.63,2.51,8.89.37,18.6.37,18.6-3.71-9.08-13.14-17.11-13.14-17.11-1,12.53-9.7,23.33-9.7,23.33C78.16,66.41,67,45.42,67,45.42a34.24,34.24,0,0,1,14.1,5.74c-.37-4.62-4.66-10.29-4.66-10.29,14.44-.1,21.83,5.43,21.83,5.43-5.94-8-15.18-12.69-15.18-12.69a63.66,63.66,0,0,1,14.31-.11,62.55,62.55,0,0,0-14.52-7.39c-7.2-2.66-25.09-3-39.76,2.06C38.27,29.85,17.63,30,30.27,21c1.85-1.31-6-.77-10.4,1.89-2.77,1.69-2.55,5.81-2.55,5.81S10.06,15,37.92,7Z"/>
        <path class="cls-3" d="M17.32,28.71S11.12,14.34,40,7.72s59,.56,65.86,3.35l-3.66,2.14s20.32,6.58,37.12,20.18l-5.73,2S165.17,54.78,181,83.7c0,0-21.24-29.43-57.88-49.66l5.29-2.68S108.78,20.72,89.26,15.68l5.37-2.89S47.24,3.65,22.22,20.55a48.05,48.05,0,0,1,15.38-1S28.88,22,27.5,24.71s8,5,18.45,1.87,25.33-6,37.54-.19c0,0-17.69-4.94-35.56,1.49s-29.31-.48-19.78-6C28.15,21.92,18.54,23.32,17.32,28.71Z"/>
        <path class="cls-2" d="M63.06,29.67S71.42,38,58.6,44.05c0,0,9.26.26,11.21-4.62S66.92,29.67,63.06,29.67Z"/>
        <path class="cls-4" d="M54.91,29.86s4.18,2.43,2.84,6.35S48.19,41.39,43,35.29c0,0,3.15,6.48,10.32,5.92,8.59-.67,8.88-8.86,4.91-12.41Z"/>
        <path class="cls-4" d="M49.48,33.41a1.79,1.79,0,0,0,1,2.34,1.77,1.77,0,0,0,2.29-1,1.8,1.8,0,0,0-1-2.34A1.77,1.77,0,0,0,49.48,33.41Z"/>
        <path class="cls-2" d="M62.94,60.77a47.58,47.58,0,0,1,2.39,32.9,31.85,31.85,0,0,1,4.91-5.29S72,71.73,62.94,60.77Z"/>
        <path class="cls-3" d="M95.49,55s2.77-.92,9.36,1.1a40.32,40.32,0,0,0-20.43-11.9S92.48,48,95.49,55Z"/>
        <path class="cls-3" d="M98.3,37.7s18.24,5.57,29.85,16.94c0,0,9.45.31,21.38,6.82C149.53,61.46,132.66,42.88,98.3,37.7Z"/>
        <path class="cls-4" d="M9.54,56.21l.06.09.2.27.06.07,0,0,0,0h0a42.87,42.87,0,0,0,7.83,7.81s-2.59-7-1.9-9.6,6.62-6,6.62-6l8.9,1.81a37.69,37.69,0,0,1,21,1.79c-14.06-3.18-20.6.56-20.6.56l-7.49-1.48C18.36,54.51,18,59,18,59c16.2-9.48,39.89-3,39.89-3l-.07-.08-4.61-5.33c-12.85-5.35-23-2.83-23-2.83s1.49-5.19.13-6.47-4.91,1.15-4.91,1.15c4.19-11.35-8.2-12.49-8.2-12.49l-4,4A8.75,8.75,0,0,1,20,36.8a9.55,9.55,0,0,1,2.18,4.29,12.39,12.39,0,0,0-4.59-4.18h0A9.17,9.17,0,0,0,11.7,36C2.77,42.53,5.34,50.4,9.54,56.21ZM13,38.42l2.32.94A17.49,17.49,0,0,0,11.74,55S6.34,45.63,13,38.42Z"/>
        <path class="cls-1" d="M22.87,35.9c.21.6.65,1,1,.86s.41-.71.2-1.31-.64-1-1-.86S22.65,35.29,22.87,35.9Z"/>
        <path class="cls-3" d="M71.45,49.28S79.71,60.48,78,74.89c0,0,3.89-10.74,3.29-16.66C81.28,58.23,79.7,55.33,71.45,49.28Z"/>
        <path class="cls-5" d="M16.55,33.55l2.09-2.29c8.47,1.27,6.09,11.91,6.09,11.91,8.26-4.65,4.9,5.21,4.9,5.21,18.4-2.66,27.3,6.54,28.18,7.51l-4.61-5.33c-12.85-5.35-23-2.83-23-2.83s1.49-5.19.13-6.47-4.91,1.15-4.91,1.15c4.19-11.35-8.2-12.49-8.2-12.49l-4,4A8.75,8.75,0,0,1,20,36.8C18.69,33.61,16.55,33.55,16.55,33.55Z"/>
        <path class="cls-5" d="M9.54,56.21c-1.13-1.64-4.23-7-1.63-13.16,3-7.23,9.31-6.22,9.7-6.15A9.17,9.17,0,0,0,11.7,36C2.77,42.53,5.34,50.4,9.54,56.21Z"/>
      </g>
      <path class="cls-6" d="M198.67,134.32l.55-46.57L188.29,91C181,93.2,177.4,94.14,170,95.81l-2.84.64-2.83.58c-4.22.86-6.29,1.23-10.54,1.92l-4.48.73-4.5.58c-3.25.42-4.84.6-8.09.91l-1.45.14-1.37.12c-5.07.44-7.55.6-12.65.8l-1.41.06-1.47,0c-3.06.09-4.91.12-7.06.12l-3.58,0-4.79-.05-4.8-.22c-5.26-.24-7.83-.42-13.09-.93l-6.88-.66v0l-5.52-.78c-3.83-.54-5.69-.84-9.51-1.52l-5.74-1-5.72-1.28c-7.41-1.65-11-2.59-18.31-4.76l-7-2.08-3.11,6.6c-1,2.19-1.54,3.3-2.58,5.56l-.77,1.68v34.74l.63,1.55c1,2.56,1.57,3.81,2.63,6.28l2.2,5.16H205.45l-4.86-11.74C199.81,137,199.31,135.84,198.67,134.32Z"/>
      <g>
        <path class="cls-5" d="M53.69,121.37c-4.37-.57-6.56-.88-10.91-1.57l0-3.45a16.52,16.52,0,0,0-.33-4.15A1.82,1.82,0,0,0,41,111.06c-.67-.14-1.13,0-1.36.42a10.19,10.19,0,0,0-.35,3.62l.07,18.67a10.51,10.51,0,0,0,.38,3.47,1.51,1.51,0,0,0,1.46.89,1.54,1.54,0,0,0,1.62-.85,9.53,9.53,0,0,0,.41-3.54l0-4.5L41,129l0-5.85c5.1.7,7.66,1,12.79,1.59l.14,19.13-6.89,0-1-2.68a7.29,7.29,0,0,1-2.81,2.58,8.72,8.72,0,0,1-4,.88,10.7,10.7,0,0,1-5.17-1.28,9.6,9.6,0,0,1-3.66-3.29,10.56,10.56,0,0,1-1.56-4.17,49.79,49.79,0,0,1-.31-6.5V117a39.47,39.47,0,0,1,.64-8.55,6,6,0,0,1,3.68-3.92c2-.91,4.64-.87,7.87,0a22.12,22.12,0,0,1,7.94,3.65A12,12,0,0,1,52.67,113a19.68,19.68,0,0,1,1,6.85Z"/>
        <path class="cls-5" d="M76.8,112q3.22,16,6.51,32l-11.2,0-.64-5.87L67.55,138l-.61,6-11.33,0q2.61-17.13,5.32-34.25C67.26,110.78,70.44,111.25,76.8,112Zm-5.66,20.27q-.88-5.6-1.78-13.92c-1.07,6.18-1.73,10.79-2,13.72Z"/>
        <path class="cls-5" d="M119.05,113.91Q119,129,119,144H109.4c0-8.1,0-12.15,0-20.24-1.53,8.09-2.29,12.13-3.81,20.24H98.79c-1.63-8-2.46-12-4.11-20.07,0,8,0,12,.07,20.07H85.17L85,112.87c5.71.52,8.56.7,14.28.93q.64,2.75,1.33,6.46l1.58,7.7c1-5.61,1.5-8.4,2.51-14C110.43,114.09,113.3,114.08,119.05,113.91Z"/>
        <path class="cls-5" d="M134.53,113l-.19,31h-11q.05-15.13.11-30.27C127.91,113.54,130.12,113.39,134.53,113Z"/>
        <path class="cls-5" d="M163.48,109.06l-.27,34.86-9.61,0c-2.23-6-3.35-9-5.58-14.73L147.9,144l-9.16,0,.22-31.38c3.69-.37,5.53-.59,9.21-1.08,2.42,5.51,3.63,8.32,6,14.11l.12-15C158,110.07,159.82,109.75,163.48,109.06Z"/>
        <path class="cls-5" d="M192.75,117.31c-4.33.83-6.51,1.21-10.86,1.93v-3.53a15.43,15.43,0,0,0-.29-4.12c-.2-.52-.69-.69-1.47-.52a1.82,1.82,0,0,0-1.37,1,11.28,11.28,0,0,0-.38,3.69L178.3,134a9.71,9.71,0,0,0,.35,3.36,1.36,1.36,0,0,0,1.45.75,1.7,1.7,0,0,0,1.63-1,10.45,10.45,0,0,0,.44-3.68l0-4.62L180,129l0-5.84c5.11-.7,7.65-1.08,12.74-1.91,0,9,0,13.48,0,22.47l-6.88,0-1-2.84a7.34,7.34,0,0,1-2.83,2.77,8.43,8.43,0,0,1-4,.9,11.78,11.78,0,0,1-5.16-1.17,9.58,9.58,0,0,1-3.64-2.81,7.92,7.92,0,0,1-1.54-3.48,35.42,35.42,0,0,1-.27-5.5l.08-10.59a31.87,31.87,0,0,1,.7-7.53c.44-1.62,1.69-3.27,3.75-5a19.44,19.44,0,0,1,7.93-3.88c3.18-.81,5.8-.94,7.89-.24a6.08,6.08,0,0,1,4.07,3.49,22.53,22.53,0,0,1,.95,7.6Z"/>
      </g>
    </g>
  </g>
</svg>
