<svg xmlns="http://www.w3.org/2000/svg" viewBox="0 0 119.81 137.32">
  <defs>
    <style>
      .cls-1 {
        fill: #320304;
      }

      .cls-1, .cls-11, .cls-12, .cls-13, .cls-2, .cls-3, .cls-4, .cls-5, .cls-6, .cls-7, .cls-8, .cls-9 {
        fill-rule: evenodd;
      }

      .cls-2 {
        fill: #893822;
      }

      .cls-3 {
        fill: #a45332;
      }

      .cls-4 {
        fill: #f7cca9;
      }

      .cls-5 {
        fill: #e63e71;
      }

      .cls-6 {
        fill: #fff;
      }

      .cls-7 {
        fill: #ef874f;
      }

      .cls-8 {
        fill: #c71e4a;
      }

      .cls-9 {
        fill: #afb1b2;
      }

      .cls-10, .cls-12 {
        fill: #f3afaf;
      }

      .cls-11 {
        fill: #c58349;
      }

      .cls-13 {
        fill: #49070b;
      }
    </style>
  </defs>
  <title>logo-4</title>
  <g id="Layer_2" data-name="Layer 2">
    <g id="OBJECTS">
      <path class="cls-1" d="M38.25,93.45A1.34,1.34,0,0,1,38,93a1.22,1.22,0,0,1,1.82-1.39,3.63,3.63,0,0,0,1-.08,2.35,2.35,0,0,0,1.32-.78c1.43-1.81-.9-6-1.82-7.57-2.07-3.45-4.57-7.38-5.12-11.43-.52-3.79-.2-8.46,2.9-11.15,2.48-2.14,5.82-2.19,8.86-1.45l.17.06c3.25,1.33,5.65,4.23,7.23,7.29a27.94,27.94,0,0,1,3,11.39c.27,5.78-1.21,12-5.43,16.17-2.61,2.57-6,4.15-9.57,2.65A10.28,10.28,0,0,1,38.25,93.45Z"/>
      <path class="cls-2" d="M46.69,60.37c-7.93-1.93-11.34,3.38-10.26,11.25.51,3.77,3,7.62,5,11,6.5,10.85-2,10.61-2.21,10.07,0,0,5,7.34,11.87.56C60.15,84.24,56.08,64.2,46.69,60.37Z"/>
      <path class="cls-1" d="M101.49,112.13c.2,1.62-12.51,7.31-16.18-5.45a18.52,18.52,0,0,1-.57-2.75,22.24,22.24,0,0,1,.68-8.65A30.28,30.28,0,0,1,89,87.17a32.6,32.6,0,0,1,9.49-9.88c3.34-2.19,7.44-3.78,11.5-3.27l.21,0c3.5,1,6.87,2.93,8.16,6.52a10.34,10.34,0,0,1,.06,6.35A20.37,20.37,0,0,1,115,93.55c-2.87,3.8-7.64,6.36-11.71,8.69-1.81,1-6.58,4-6.16,6.65a2.71,2.71,0,0,0,.91,1.54C98.25,111.52,101.49,112.13,101.49,112.13Z"/>
      <path class="cls-3" d="M109.83,75.42c9.16,2.56,9.59,9.89,4,17.27-2.67,3.53-7.34,6-11.29,8.31a21.65,21.65,0,0,0-5,3.74c.59-3.27,2.1-4.52,4.3-6.49C91.08,103.37,96.9,114.5,99,112.49c0,0-9.27,4.59-12.38-6.2C82.55,92,98.11,74,109.83,75.42Z"/>
      <path class="cls-2" d="M111.8,94.9c-2.66,2.43-6.18,4.35-9.25,6.11a21.65,21.65,0,0,0-5,3.74c.59-3.27,2.1-4.52,4.3-6.49C91.08,103.37,96.9,114.5,99,112.49c0,0-9.27,4.59-12.38-6.2-3.59-12.48,7.79-27.78,18.53-30.52l.76,0c17.21,8.7,1,18.46-1.5,20.13C102.79,97,106.76,97.08,111.8,94.9Z"/>
      <path class="cls-1" d="M17,86.2a41.5,41.5,0,0,1,5.07-5.11c2.12-1.78,5.4-4.1,8.31-3.06s3.46,4.54,3.5,7.22c0,3.12.88,6,3.52,7.88,3.94,2.79,10.45,2.5,15,2.5,2.17,0,5.6.26,6,3a3.75,3.75,0,0,1-1.11,3A8.91,8.91,0,0,1,55.78,103l0,0,0,0c-8.3,5.2-18.86,7.79-27.94,2.94A21.59,21.59,0,0,1,21,100.32c-2.8-3.54-3.21-8-4.42-12.18l-.31-1.08Z"/>
      <path class="cls-4" d="M18.66,87.56c1.49,5.16,1.59,8.35,4,11.44,6.91,8.72,19.3,10.13,31.88,2.25,0,0,5.11-3.49-2.12-3.49S32,98.58,31.77,85.28,18.66,87.56,18.66,87.56Z"/>
      <path class="cls-1" d="M61.38,96a6.64,6.64,0,0,1-.28,4.34c-1,2.28-3.72,4-5.63,5.54a30.93,30.93,0,0,1-5.79,3.37,38.54,38.54,0,0,1-5.27,2.09c-1.29.38-5.42,3-6.3,1.56-.48-.78-.86-4.21-.39-4.91.36-.54,3.27-.54,3.58-1.11,1.76-3.22,2-6.39,1.67-10,0-.39-1.6-.34-1.65-1,0-.5,1.36-1.76,1.58-2,.94-.88,3,.59,4.14.84a20.59,20.59,0,0,0,3.61.62c1.73.09,8.33,0,9.78-.8a1.38,1.38,0,0,1,1.27-.06C62.12,94.69,61.28,95.53,61.38,96Z"/>
      <path class="cls-5" d="M62.12,94.68c-1.64.92-7.52,2.31-11.54,2.1-3.56-.18-6.37-1.93-6.2,0,.54,6.2-.79,9.38-2.92,12.57s9.41-1.62,13.12-4.56S63.07,98.76,62.12,94.68Z"/>
      <path class="cls-1" d="M91,112.09l-1.12,10.77a1.39,1.39,0,0,1-1,1.21,15.52,15.52,0,0,1-6.65.36c-5-.87-8.22-4.3-9.75-9.07q-.87-2.7-1.8-5.37c-.45-1.3-.91-2.6-1.33-3.91-.47-1.48-1.33-4,0-5.24.95-.94,2.39-.7,3.55-.4a1.37,1.37,0,0,1,.75.49,53.85,53.85,0,0,1,3.68,6c1.39,2.33,1,6.7,4.07,6.6a39,39,0,0,0,6.1-1.64,2.84,2.84,0,0,0,.75-.37,1.42,1.42,0,0,1,2.81.07A1.89,1.89,0,0,1,91,112.09Z"/>
      <path class="cls-4" d="M72.54,101.82c3,3.8,3.26,12.91,9.15,12.72s8-2.84,8-2.84l-1.14,11s-11,3.42-14.64-7.79S68.17,100.68,72.54,101.82Z"/>
      <path class="cls-1" d="M73.41,100.59a24.85,24.85,0,0,0,5.18,7.06,48.31,48.31,0,0,0,4.54,3.69,1.72,1.72,0,0,1,.47,2.18,2.38,2.38,0,0,1-1.25.71c-1.58.39-5.68,2.51-4.75,6.22.17.67.83.63.42,1.55-.7,1.55-3.7,2.68-3.26,2.62,1.19-.16-.93-2.66-.83-2.77.76-.91-4-6-4.23-8a26.56,26.56,0,0,1,1.62-13.06,1.39,1.39,0,0,1,1.27-.89C73.16,99.9,73.16,100.08,73.41,100.59Z"/>
      <path class="cls-5" d="M72.64,101.34a35.5,35.5,0,0,0,9.19,11.21A10.24,10.24,0,0,0,79,115c-1.24,1.7-2.44,2.79-3.06,5.48-.15.66-.55-1.49-1-1.13C72.06,121.62,68.84,110.84,72.64,101.34Z"/>
      <path class="cls-1" d="M69.07,98.58c.65,2,3.08,2.33,3.5,4.36.79,3,3.27,10.15,3.19,13.36-.13,5.16.47,10.33.38,15.49a1.39,1.39,0,0,1-.8,1.25,33.22,33.22,0,0,1-6.4,2.13,32.79,32.79,0,0,1-14.71.14A20.42,20.42,0,0,1,43.71,129c-1-1.2-3-3-3.52-4.49a1.35,1.35,0,0,1,0-.86c.47-1.65,1.08-3.35,1.69-4.95,1.38-3.6,3.74-7.16,5.71-10.48A24.38,24.38,0,0,1,60.48,98.09c3.62-1.77,7.64-5.35,10.65-2.08C72.24,97.21,68.78,96.95,69.07,98.58Z"/>
      <path class="cls-5" d="M72.07,101.05c1.9,5.71,2.47,7.6,2.28,15.21S74,131.76,74,131.76s-9.74,4.64-19.44,2.17-12.35-9.88-12.35-9.88A71.31,71.31,0,0,1,48.77,109c3.22-5.41,8-10.46,12.08-12.48C70.55,91.74,72.07,101.05,72.07,101.05Z"/>
      <path class="cls-1" d="M57.76,98.86a5.8,5.8,0,0,1-.35-1.12c-.6-2.8,1.69-5.73,4.68-4.92l.05,0,10.35,3.26.12,0a4.82,4.82,0,0,1,2.29,3.28,4.25,4.25,0,0,1-.31,3,3.11,3.11,0,0,1-1.15,1,2.79,2.79,0,0,1,0,.69,4.48,4.48,0,0,1-3,3,3.61,3.61,0,0,1-2.14.11,3.61,3.61,0,0,1-.43.56c-1.23,1.32-3,1.29-4.56.68a4.46,4.46,0,0,1-3.13-3.06v-.06A4.52,4.52,0,0,1,57.45,103a3.77,3.77,0,0,1,.2-4Z"/>
      <path class="cls-6" d="M61.72,94.18c-2-.53-3.3,1.49-2.92,3.26s1,1.43,1,1.43-2.24,1.33-1.1,3.52a2.75,2.75,0,0,0,3,1.71s-1.14,1.88,2.06,3.1,3.63-1.58,3.63-1.58c.71,0,1.39.62,2.5.22,1.32-.48,2.94-1.86,1.62-3.34a2.33,2.33,0,0,0,1.86-.86,3,3,0,0,0,.13-1.88c-.47-1.9-1.46-2.32-1.46-2.32Z"/>
      <path class="cls-1" d="M63.48,91.09l11.79,1.33a1.4,1.4,0,0,1,1.23,1.15A5.07,5.07,0,0,1,76,96.28,18.34,18.34,0,0,1,71.19,102a8.83,8.83,0,0,1-4.67,2.18,5.79,5.79,0,0,1-4.24-1.11c-2.42-1.87-2.52-5.07-1.55-7.74.41-1.13.84-2.26,1.28-3.38A1.4,1.4,0,0,1,63.48,91.09Z"/>
      <path class="cls-1" d="M104.69,79.6a7.61,7.61,0,0,1,3.59,10.54,8.85,8.85,0,0,1-10.93,4.47L97,94.46c-6.64,5.54-16.3,7.71-24.72,6.18-2.44-.45-4-1.75-6.16-2.6-1.08-.42-2.33-.55-3.45-.91a8,8,0,0,1-1.55-.68,33.79,33.79,0,0,1-12.33-13.2L48.63,83l0-.12v0A12.29,12.29,0,0,1,48,81.62a7.55,7.55,0,0,1-3-.52,9,9,0,0,1-5.08-10.7,7.73,7.73,0,0,1,6.89-5.76c.1-.28.2-.56.31-.84C50.91,54,60.44,44.65,71.54,44.89c2.91.06,5.79,2.14,8.08,3.76a24.43,24.43,0,0,0,4.66,2.89,34.42,34.42,0,0,1,15.18,11.4,25.51,25.51,0,0,1,5.26,16.17C104.71,79.27,104.7,79.44,104.69,79.6Z"/>
      <path class="cls-4" d="M83.51,53.52C79.69,52,75.23,47.1,71.5,47c-10.39-.22-19.05,8.92-22.43,17.56a19.16,19.16,0,0,0-.74,2.31A5.43,5.43,0,0,0,41.93,71a6.83,6.83,0,0,0,3.8,8.15,5.29,5.29,0,0,0,2.62.33c-.19-1-.27-2.1-.48-3.23-.35-1.89.25-4.33-.81-5.16-2.49-1.94-3.55.83-2.89,2a.56.56,0,0,1-.83.74c-1.57-2.4,1-6.31,4.4-3.62,1.68,1.32.79,3.55,1.2,5.72.52,2.76.22,3.69,1.55,6l.11.23a.5.5,0,0,1,0,.11A31.8,31.8,0,0,0,62.15,94.61c1.45.83,3.11.82,4.72,1.45,2.1.82,3.66,2.11,5.77,2.49,8.75,1.6,17.79-1.17,23.39-6.08a20.29,20.29,0,0,0,4.8-6.88c1.62-3.75,6.49-.19,4.43,3.63a.56.56,0,1,1-.91-.64c1.19-2.2-1.48-4.91-2.48-2.55a21.5,21.5,0,0,1-4.21,6.4l.47.21a6.73,6.73,0,0,0,8.25-3.43,5.47,5.47,0,0,0-2.75-7.73,5.6,5.6,0,0,0-1.26-.34C104.11,70.32,96.38,58.55,83.51,53.52Z"/>
      <path class="cls-7" d="M83.51,53.52c-2.42-.95-5.11-3.28-7.7-4.88-2.89,1.78-5.07,4.51-4.72,7.29,7,4,19,4.25,23.75,13s5.75,14.75,4.5,17.75c-.74,1.78,1.51-5.94,2.68-13.55C100,65,93.23,57.32,83.51,53.52Z"/>
      <path class="cls-1" d="M63.88,56.6a.89.89,0,1,1-.2-1.76,8.17,8.17,0,0,1,6.25,1.51,9.86,9.86,0,0,1,3,4.58.88.88,0,1,1-1.67.59,8.15,8.15,0,0,0-2.47-3.78A6.48,6.48,0,0,0,63.88,56.6Z"/>
      <path class="cls-7" d="M41.89,74.57a6.55,6.55,0,0,0,3.85,4.56,5.29,5.29,0,0,0,2.62.33c-.19-1-.27-2.1-.48-3.23s0-2.81-.21-3.93a19.39,19.39,0,0,0-3.38.93.56.56,0,0,1-.93.58l-.08-.13a7.08,7.08,0,0,0-1.37.89Zm6.88-2.45h0c.15,1.14-.08,2.48.17,3.79.52,2.76.22,3.69,1.55,6l.11.23a.5.5,0,0,1,0,.11A31.8,31.8,0,0,0,62.15,94.61c1.45.83,3.11.82,4.72,1.45,2.1.82,3.66,2.11,5.77,2.49,8.75,1.6,17.79-1.17,23.39-6.08a20.28,20.28,0,0,0,4.18-5.56c-2,1.8-5.74,3.13-8.78,4.11C74.67,96.37,53.39,89.69,52,71.8a30,30,0,0,0-3.19.31ZM105,89.43h0a3.77,3.77,0,0,1-2.5,2.49L99.3,93a5.7,5.7,0,0,1-1.17-.32l-.47-.21a21.5,21.5,0,0,0,4.21-6.4c1-2.36,3.67.35,2.48,2.55a.56.56,0,0,0,.62.86Z"/>
      <path class="cls-1" d="M53.09,65.17l1.28,4.16.27.34c.38.46.78-1.33,1.18-.89,2.39,2.66-.87,8.61-4.6,9-1,.12-2,.68-2.81.08a12.15,12.15,0,0,1-3.29-4.56c-1.12-2.45-1.78-2.92-2.05-5.59a30.11,30.11,0,0,1,.78-10.3,36.49,36.49,0,0,1,5.38-11.74A27.62,27.62,0,0,1,65.82,34.1a32.81,32.81,0,0,1,15.61.28,39.94,39.94,0,0,1,14.51,7.12,38,38,0,0,1,10.59,12.63c6,11.69,4.25,20.8-1.59,31.52-1.25,2.3-3.08,5-5.45,6.31a5.2,5.2,0,0,1-5.18,0,7.13,7.13,0,0,1-2.84-3.16c-.53-1.14-1.39-4.64-.6-4.58,1.23-.87,3.76,2,5.8,1.2,3.15-1.29,2.64-7.71,2-10.3C97,68.12,91.81,62.47,85.62,59c-3.61-2.05-7.24-4.07-10.9-6-.85-.46-1.71-.91-2.57-1.36a18.36,18.36,0,0,1-2.3,2.4,22.12,22.12,0,0,1-9.93,4.86C56.59,59.54,54.32,62.14,53.09,65.17Z"/>
      <path class="cls-3" d="M92.41,86.43C91.72,88.13,97,97.21,103.7,85c2.49-4.57,5.07-12.17,5.15-14,1.19-31-41.19-49.69-58.45-24.42-10.64,15.59-7,26.34-3.39,29s9.47-1.63,7.76-3.53-1.71-2.09-1.71-2.09S54.77,75,51.92,73.5s-1-14.16,7.7-16.06,12.07-7.7,12.07-7.7,4.94,2.47,14.63,8c4.1,2.33,5.25,2.86,7.49,5.85-2.41-6.21-6-8.64-7.84-14.63l-.48-1.87c1.3,2.5,2,4.33,3.71,6.6,5,6.48,10.68,15.63,11.35,24.3,1.06-3.88,1.26-8.05,1.69-11.9.64,5.74.41,12-2.25,17.3-1.33,3.86-4,4.26-5.67,3.83C93.1,86.87,92.62,85.93,92.41,86.43Z"/>
      <path class="cls-2" d="M92.41,86.43C91.72,88.13,97,97.21,103.7,85c2.49-4.57,5.07-12.17,5.15-14a32.84,32.84,0,0,0-.21-5.12,18.45,18.45,0,0,1-3.05,4.62,27.93,27.93,0,0,0-8-12.38c-6.25-5.62-14.5-16.87-14.5-16.87l.62,8s-3-2.25-6.87-10.25c-10.76,4.23-15.75,11-17,18.46,8.6-1.94,11.87-7.65,11.87-7.65s4.94,2.47,14.63,8c4.1,2.33,5.25,2.86,7.49,5.85-2.41-6.21-6-8.64-7.84-14.63l-.48-1.87c1.3,2.5,2,4.33,3.71,6.6,5,6.48,10.68,15.63,11.35,24.3,1.06-3.88,1.26-8.05,1.69-11.9.64,5.74.41,12-2.25,17.3-1.33,3.86-4,4.26-5.67,3.83C93.1,86.87,92.62,85.93,92.41,86.43Z"/>
      <path class="cls-1" d="M50.77,1.88A39.89,39.89,0,0,1,76.68,51.42a38.79,38.79,0,0,1-49,25.6A39.89,39.89,0,0,1,1.74,27.48,38.79,38.79,0,0,1,50.77,1.88Z"/>
      <path class="cls-5" d="M50.12,3.9A36.66,36.66,0,0,0,3.78,28.1,37.75,37.75,0,0,0,28.3,75,36.66,36.66,0,0,0,74.65,50.8,37.75,37.75,0,0,0,50.12,3.9Z"/>
      <path class="cls-8" d="M35.74,12.55c-25.44,20.08,12.91,40.64,20,19,.17-.52-3-6.5-7.88-6.95-6-.55-13.89,4.46-14.19,4-5-7.22,8.66-10.81,14-9.45a22.53,22.53,0,0,1,11.09,7.38c4.72,6-1.08,15-6.3,16.47-8.75,2.5-17.25,10.75-24.25,2S15.74,22.81,35.74,12.55Z"/>
      <path class="cls-1" d="M18.44,8.33c-3.61,2.42-6.81,4.49-9.4,8.11A43.41,43.41,0,0,0,4.1,27.1c-1.33,9.18.58,19.86,8.21,28,13.93,14.83,43.84,17.47,54.32-3.53A27.26,27.26,0,0,0,68,31.21h0c-1.38-3.91-6.75-12.14-10-14.06a33.31,33.31,0,0,0-9.54-5.45C37.47,8,25.71,12.12,21,23.06,13,41.52,38.88,61.69,55.7,46,70,32.54,51.51,18.12,39.11,23.2c-9.62,3.95-3.72,11.09,1.1,10.91.94,0,3.29-.37,4-2.12.52-1.29-2.39-6.29,3.37-5,4.32.94,6.55,4.68,5.72,9.44-1,5.83-9.48,9.64-15.3,8.22-9.31-2.28-16.42-12.2-11.34-21.71,9.45-17.68,35.49-9.55,39.44,10.21h0a23,23,0,0,1-1.15,13C57.8,65.18,33.44,64.25,20.25,52.82,8.19,42.38,7.89,20.65,18.44,8.33Z"/>
      <path class="cls-1" d="M33.77,94l-4.18,17.11v0a4.82,4.82,0,0,1-9.31-2.46l4.18-17.11v0A4.82,4.82,0,0,1,33.77,94Z"/>
      <path class="cls-9" d="M26.51,92.09a2.69,2.69,0,0,1,5.2,1.39l-4.18,17.11a2.69,2.69,0,0,1-5.2-1.39Z"/>
      <path class="cls-1" d="M65,72.12A.88.88,0,1,1,66.77,72a8.8,8.8,0,0,0,4.16,6.49,13.25,13.25,0,0,0,3.64,1.73,11.4,11.4,0,0,0,3.87.48,7.19,7.19,0,0,0,5.72-3.07.88.88,0,1,1,1.46,1,8.91,8.91,0,0,1-7.08,3.84,13.1,13.1,0,0,1-4.47-.55,14.83,14.83,0,0,1-4.13-2A10.54,10.54,0,0,1,65,72.12Z"/>
      <path class="cls-7" d="M63.32,92.5c-.52,1.33-.94,2.44-1.27,3.35-2.2,6,3.33,9.29,8.21,5.11,5.32-4.56,4.84-7.13,4.84-7.13Z"/>
      <path class="cls-1" d="M93.88,110a8.89,8.89,0,0,1,4.15,2.3,5.62,5.62,0,0,1,1.15,3.84,26.51,26.51,0,0,1-1,5.94,5.55,5.55,0,0,1-.3.86,7.47,7.47,0,0,1-5,4c-3.59.42-6.53-2.63-7.62-6.15a10.94,10.94,0,0,1-.24-6.32c.18-1,.42-2,.64-3a13.31,13.31,0,0,0,.36-2.28c.06-1.62,0-4,1.44-5.09,3.75-2.72,7.67,1.65,6.42,5.89Z"/>
      <path class="cls-4" d="M93.3,111.29c4.21,1.4,5.61,2.24,3.51,10.43-2.41,9.37-12.12-1.33-12.13-1.37-.42-4,2.68-8.57,2.78-11.14.12-3.18.41-4.44,1.47-4.73,2.12-.56,4.72,2.58,3.14,6.11-.19.43-1.27,1.46-.75,1.31Z"/>
      <path class="cls-1" d="M88.13,68.1a.88.88,0,0,1-.2-1.76,8.16,8.16,0,0,1,6.25,1.51,9.81,9.81,0,0,1,3,4.58.88.88,0,1,1-1.67.59,8.14,8.14,0,0,0-2.47-3.78A6.47,6.47,0,0,0,88.13,68.1Z"/>
      <ellipse class="cls-10" cx="91.28" cy="73.75" rx="2" ry="3.14" transform="translate(-21.66 105.63) rotate(-54.7)"/>
      <path class="cls-1" d="M38.15,72.81l-3.8,15.87v0A4.82,4.82,0,0,1,25,86.25l3.8-15.88v0a4.82,4.82,0,0,1,9.31,2.46Z"/>
      <path class="cls-6" d="M30.88,70.9a2.69,2.69,0,0,1,5.2,1.39l-3.8,15.87a2.69,2.69,0,0,1-5.2-1.39Z"/>
      <path class="cls-1" d="M23.11,70.92a18,18,0,0,1,9.39-1.31c4.4.44,8.45,2.21,10.67,6.21s1.9,9.34.6,13.71a28.18,28.18,0,0,1-4.52,9c-1.59,2.06-4.05,4.41-6.84,4.37a2.44,2.44,0,0,1-2-.94A2.68,2.68,0,0,1,30,99.86a1.85,1.85,0,0,0,0-.4c0-.25-.79-.7-1-.79-.63-.34-2-1-2.67-.46a3.39,3.39,0,0,0-.84,1.26,19.14,19.14,0,0,0-.78,2.38c-.37,1.27-.87,2.62-2.39,2.85a2.36,2.36,0,0,1-1.56-.32c-5-3-6.4-12-6.24-17.23C14.78,80.89,17,73.72,23.11,70.92Z"/>
      <path class="cls-4" d="M24,72.85a15.7,15.7,0,0,1,8.3-1.13c19.3,1.92,7.13,29.17.15,29.06-1.17,0,1.19-2.07-2.37-4-7.48-4-6.85,6.52-8.16,5.75C15.6,98.79,13.61,77.59,24,72.85Z"/>
      <path class="cls-7" d="M39.51,74.58c8.13,7.44-1.27,26.29-7.08,26.2-1.17,0,1.19-2.07-2.37-4-7.48-4-6.85,6.52-8.16,5.75-2.35-1.4-4.09-5.21-4.83-9.69A7.92,7.92,0,0,1,20,91c6.5-2.37,13,4.62,16.62-.37C39.56,86.55,40.78,79.84,39.51,74.58Z"/>
      <path class="cls-1" d="M83.71,98.36a40.27,40.27,0,0,1-15.56-.76c4.41,3.29,10.66,2.74,15.76,2.35a.8.8,0,0,0-.2-1.59Z"/>
      <path class="cls-1" d="M56,89.6c3.35,3.38,5.75,4.74,9.89,7-6.85-1.17-7.41-2.71-11.13-6a.8.8,0,0,1,1.25-1Z"/>
      <path class="cls-1" d="M94.65,112.05c-3-1.62-5,.75-5.4,3.77-.26,1.87-1.09,6.54,1.64,7.56-3.17.94-2.86-6.85-2.79-7.68.39-4.27,3.25-7,7.41-5a.8.8,0,0,1-.87,1.35Z"/>
      <path class="cls-1" d="M47.91,107.77c1.95-3.6,2.81-4.75,4.3-8.83a15.16,15.16,0,0,1-2.7,8.93.8.8,0,1,1-1.6-.1Z"/>
      <path class="cls-1" d="M27.78,97.55c-2.69-1.45-4.58.57-6.85,2.05,1.45-3,4.4-4.79,7.65-3.44a.8.8,0,0,1-.8,1.39Z"/>
      <path class="cls-6" d="M11.8,21.87C14.82,9.93,23.56,3.81,35.56,2.7,47,1.64,61.92,6.09,66.68,17.62L65.29,16.1C59,9.11,51.44,5.76,42,5.39,29.9,4.92,18.61,9.9,15.81,22.62a2,2,0,0,1-4-.75Z"/>
      <path class="cls-8" d="M55,67.75l-1,.42-.16.07c-1,.43-2.1.81-3.18,1.15s-2,.56-3,.79q-.83.18-1.66.33L45,70.67l-.38.05-1,.12-.42,0L41.93,71c-.73,0-1.46.06-2.2.06-.49,0-1,0-1.47,0,0,.06,0,.13,0,.19a12.64,12.64,0,0,1,1.31.76,11.1,11.1,0,0,1,3.57,3.88q.2.36.38.74,1-.11,1.93-.26L46.93,76l.88-.19,1.08-.26a36.81,36.81,0,0,0,6.32-2.3l.27-.13,1.09-.54,0,0A36.57,36.57,0,0,0,70.53,59.77h0c.35-.55.69-1.12,1-1.7h0a36.79,36.79,0,0,0,2.51-5.51c.16-.45.32-.9.46-1.36l.13-.41q.38-1.22.66-2.46t.45-2.19a37.36,37.36,0,0,0,.52-7.59,37.43,37.43,0,0,1-1.38,6.49c-.06.2-.12.4-.19.6-.22.68-.46,1.35-.71,2-.36.91-.74,1.8-1.16,2.67-.21.43-.42.85-.64,1.26A36.53,36.53,0,0,1,55,67.75Z"/>
      <path class="cls-8" d="M28.55,69.25A37.79,37.79,0,0,1,2.4,34.59,37.84,37.84,0,0,0,21.3,71.94a12,12,0,0,1,1.81-1,16.23,16.23,0,0,1,6-1.41l0-.06Z"/>
      <path class="cls-8" d="M42.74,54.55C23.19,56,12.79,39.92,11,26.43c-1,9.88,2,20.15,9.22,26.39A34.62,34.62,0,0,0,38,60.71c.6.08,1.2.14,1.79.19a31.47,31.47,0,0,0,3.35.09c.48,0,1,0,1.44-.07.87-.07,1.75-.17,2.61-.32.5-.08,1-.18,1.48-.29l.32-.08a24,24,0,0,0,2.65-.8,21.56,21.56,0,0,0,12.2-10.9,25.38,25.38,0,0,0,1.05-2.43l.09-.25a23.24,23.24,0,0,0,1.48-9.47,22.49,22.49,0,0,1-7.92,12.69c-.36.28-.73.55-1.12.81a27.42,27.42,0,0,1-11.09,4.23q-.78.13-1.59.23C44.12,54.43,43.44,54.5,42.74,54.55Z"/>
      <path class="cls-6" d="M110,75.65c4.85,1.67,8.72,4.45,7.34,10.26-1.14,4.79-3.48,7.22-7.41,9.76,2.42-2.3,4.13-3.9,5.46-7.12,2.58-6.24.21-9.5-5.79-11.35a.8.8,0,1,1,.39-1.55Z"/>
      <path class="cls-6" d="M79.46,35.64C91.72,38,102,45.13,105.58,57.55l-1.17-2.45c-5.18-10.29-14-16-25.2-17.88a.8.8,0,0,1,.25-1.59Z"/>
      <path class="cls-6" d="M99.32,72.37c-2.53-9.34-7.61-14-11-23.06,1.11,1.73,15.51,21.57,12.32,27.88C100.45,77.58,99.46,72.79,99.32,72.37Z"/>
      <path class="cls-11" d="M93.58,86.25c6.16-.12,5.93-1.26,7.36-7.6.67-3-.55,2.18.27-1.22.49,1.76.07,3.24-.34,5.18-1,4.81-2.42,4.87-7.29,5.24a.8.8,0,0,1,0-1.6Z"/>
      <path class="cls-7" d="M75.81,68.88A15.79,15.79,0,0,0,79,70.2c1.25.36.85.76,0,.93a3.7,3.7,0,0,1-3.68-1.3C74.17,68.46,74.38,68.09,75.81,68.88Z"/>
      <path class="cls-7" d="M70.06,81.75a15.94,15.94,0,0,0,3.22,1.32c1.25.36.85.76,0,.93a3.69,3.69,0,0,1-3.68-1.3C68.42,81.34,68.63,81,70.06,81.75Z"/>
      <path class="cls-7" d="M43.05,100.68c-1.42,2.1-2.61,2-3.82,1.84-2.07-.29-2.53-1.33-2.76-1.14a6.64,6.64,0,0,1-4.06,1.54,2.72,2.72,0,0,1-.78-.12l-.57,2.35a21.64,21.64,0,0,0,10.6,1.06A14.48,14.48,0,0,0,43.05,100.68Z"/>
      <path class="cls-7" d="M82.71,120.58a5.33,5.33,0,0,1-4.84-2.92,4,4,0,0,0-.26,2.79c.09.36.33.52.46.73a11.8,11.8,0,0,0,8.27,1.95c-.55-.91-1.73-3.32-1.7-4.31C84.25,119.53,84.41,120.58,82.71,120.58Z"/>
      <path class="cls-6" d="M37.09,75.12c-5.33-2.2-10.58-2.83-15.41,1.06-2.71,2.19-3.11,5.57-4.62,8.49.63-5.11,1-8.58,5.93-11.54,5.1-3.06,9.69-2.14,14.91-.28.66.32,2.18,1.87,1.85,2.54S37.75,75.45,37.09,75.12Z"/>
      <path class="cls-6" d="M96,113.34c-2.85-2.77-5.79-.47-6.5,3-.39,1.91-.37,1.87-.59,3.3-.95-5.4,3.21-11,7.78-6.85a.45.45,0,0,1-.69.57Z"/>
      <path class="cls-6" d="M91.42,109.29c.24-1.89.11-4.19-2.12-4.55l.27-.15c2.08-.64,2.82,3.26,2.74,4.85a.45.45,0,0,1-.88-.15Z"/>
      <path class="cls-6" d="M79.11,69A6.41,6.41,0,0,1,80,66.81,6.94,6.94,0,0,1,80,69a.44.44,0,0,1-.48.41A.45.45,0,0,1,79.11,69Z"/>
      <path class="cls-5" d="M63.81,110.48a8.73,8.73,0,0,0-11,5.77,9,9,0,0,0,5.84,11.18,8.73,8.73,0,0,0,11-5.77A9,9,0,0,0,63.81,110.48Z"/>
      <path class="cls-6" d="M46,27.29c4,.48,6,2.2,6.16,6.42a3.64,3.64,0,0,1-.54,2.16c-1.43-3.72-1.24-6-5.62-5.92a1.33,1.33,0,0,1,0-2.67Z"/>
      <path class="cls-12" d="M42.42,123.73c1.43-5,7.72-17.22,11.2-21.08.18-.19.37-.39.62-.28-.3.59-.37,1-.61,1.46-2.8,5.8-7.1,14-8.56,20.17a1.33,1.33,0,1,1-2.65-.27Z"/>
      <path class="cls-8" d="M72.79,119.14c-1.81,6.92-7.29,13.92-24.2,12.23a20.17,20.17,0,0,0,6,2.57c9.69,2.47,19.44-2.17,19.44-2.17s.07-4.21.19-9.43c0-.87,0-1.78.06-2.7v-.49l.07-2.89v0a42.74,42.74,0,0,0-.37-8.37l-.11-.11c-.21,1.11-.07,3.47-.28,6.31a30.84,30.84,0,0,1-.37,3.12c-.1.56-.21,1.13-.36,1.7Z"/>
      <path class="cls-8" d="M74,107.9c.89,3,1.79,6.44,1.74,8.39,0,.83,0,1.67,0,2.5,0,.59,0,1.18,0,1.77.05.05.09,0,.12-.1.09-.38.19-.73.3-1.06A15.14,15.14,0,0,1,79,115a7,7,0,0,1,.7-.8l.25-.24-3.63-3.71Z"/>
      <path class="cls-8" d="M49.82,103.8a14.79,14.79,0,0,1-5.49-1.65,15.13,15.13,0,0,1-1,3.76,17.26,17.26,0,0,1-1.2,2.36c-.21.36-.43.7-.67,1.05-1.22,1.83,2.05,1,5.77-.54l.32-.54c.21-.36.44-.72.68-1.06l.32-.58c.6-1.08,1.09-1.93,1.54-2.8Z"/>
      <path class="cls-1" d="M32.82,86.88c4.75,2.12,7.76,10.07,5,12.95.56-4.17-1.31-9.52-5.55-11.05a1,1,0,1,1,.59-1.89Z"/>
      <path class="cls-1" d="M36.22,78.45c4.8,2.29,6.69,5.13,5.85,10.88a.68.68,0,0,1-.17.37c-1.71-2.68,1-6.6-6.32-9.37a1,1,0,0,1,.64-1.88Z"/>
      <path class="cls-1" d="M93.77,115.28a3.75,3.75,0,0,0-5.56.66c.11-2.82,4.13-3.06,6.44-1.59a.64.64,0,1,1-.88.92Z"/>
      <path class="cls-1" d="M93.34,119.6c-2.32-1-3-1.09-5-.19.7-2.21,4.13-1.41,5.64-.94a.64.64,0,0,1-.61,1.12Z"/>
      <path class="cls-1" d="M89.48,122.15a1.35,1.35,0,0,0,2.31.46c.3.82-2,1.48-2.85-.29a.28.28,0,1,1,.54-.17Z"/>
      <path class="cls-13" d="M91.6,136.11a56.55,56.55,0,0,0,18.12-17.58,55.91,55.91,0,0,0,8.59-23.62c0-.21.05-.43.07-.64h1.43c0,.27-.06.54-.1.81a57.28,57.28,0,0,1-8.81,24.22,57.94,57.94,0,0,1-18.57,18l-.73-1.21Zm-82.46-66A55.89,55.89,0,0,0,7,78.89,56.67,56.67,0,0,0,6.24,88a56.2,56.2,0,0,0,26.84,48c-.27.49-.5.89-.71,1.22A57.73,57.73,0,0,1,5.57,78.67a57.22,57.22,0,0,1,2.23-9Z"/>
    </g>
  </g>
</svg>
