<svg xmlns="http://www.w3.org/2000/svg" xmlns:xlink="http://www.w3.org/1999/xlink" viewBox="0 0 193.15 181.39">
  <defs>
    <style>
      .cls-1 {
        isolation: isolate;
      }

      .cls-2 {
        opacity: 0.3;
      }

      .cls-3 {
        fill: #a6a8ab;
        opacity: 0;
        mix-blend-mode: multiply;
      }

      .cls-4 {
        fill: #a5a7aa;
        opacity: 0.01;
      }

      .cls-5 {
        fill: #a3a5a8;
        opacity: 0.02;
      }

      .cls-6 {
        fill: #a2a4a7;
        opacity: 0.03;
      }

      .cls-7 {
        fill: #a1a3a5;
        opacity: 0.04;
      }

      .cls-8 {
        fill: #a0a1a4;
        opacity: 0.05;
      }

      .cls-9 {
        fill: #9ea0a3;
        opacity: 0.06;
      }

      .cls-10 {
        fill: #9d9fa1;
        opacity: 0.07;
      }

      .cls-11 {
        fill: #9c9da0;
        opacity: 0.08;
      }

      .cls-12 {
        fill: #9a9c9f;
        opacity: 0.09;
      }

      .cls-13 {
        fill: #999a9d;
        opacity: 0.1;
      }

      .cls-14 {
        fill: #98999c;
        opacity: 0.11;
      }

      .cls-15 {
        fill: #96989a;
        opacity: 0.12;
      }

      .cls-16 {
        fill: #959699;
        opacity: 0.13;
      }

      .cls-17 {
        fill: #949598;
        opacity: 0.14;
      }

      .cls-18 {
        fill: #939496;
        opacity: 0.15;
      }

      .cls-19 {
        fill: #919295;
        opacity: 0.16;
      }

      .cls-20 {
        fill: #909194;
        opacity: 0.17;
      }

      .cls-21 {
        fill: #8f9092;
        opacity: 0.18;
      }

      .cls-22 {
        fill: #8d8e91;
        opacity: 0.19;
      }

      .cls-23 {
        fill: #8c8d8f;
        opacity: 0.2;
      }

      .cls-24 {
        fill: #8b8c8e;
        opacity: 0.21;
      }

      .cls-25 {
        fill: #898a8d;
        opacity: 0.22;
      }

      .cls-26 {
        fill: #88898b;
        opacity: 0.23;
      }

      .cls-27 {
        fill: #87878a;
        opacity: 0.24;
      }

      .cls-28 {
        fill: #868689;
        opacity: 0.25;
      }

      .cls-29 {
        fill: #848587;
        opacity: 0.26;
      }

      .cls-30 {
        fill: #838386;
        opacity: 0.27;
      }

      .cls-31 {
        fill: #828284;
        opacity: 0.28;
      }

      .cls-32 {
        fill: #808183;
        opacity: 0.29;
      }

      .cls-33 {
        fill: #7f7f82;
        opacity: 0.3;
      }

      .cls-34 {
        fill: #7e7e80;
        opacity: 0.31;
      }

      .cls-35 {
        fill: #7c7d7f;
        opacity: 0.32;
      }

      .cls-36 {
        fill: #7b7b7e;
        opacity: 0.33;
      }

      .cls-37 {
        fill: #7a7a7c;
        opacity: 0.34;
      }

      .cls-38 {
        fill: #79797b;
        opacity: 0.35;
      }

      .cls-39 {
        fill: #777779;
        opacity: 0.36;
      }

      .cls-40 {
        fill: #767678;
        opacity: 0.37;
      }

      .cls-41 {
        fill: #757477;
        opacity: 0.38;
      }

      .cls-42 {
        fill: #737375;
        opacity: 0.39;
      }

      .cls-43 {
        fill: #727274;
        opacity: 0.4;
      }

      .cls-44 {
        fill: #717073;
        opacity: 0.41;
      }

      .cls-45 {
        fill: #706f71;
        opacity: 0.42;
      }

      .cls-46 {
        fill: #6e6e70;
        opacity: 0.43;
      }

      .cls-47 {
        fill: #6d6c6e;
        opacity: 0.44;
      }

      .cls-48 {
        fill: #6c6b6d;
        opacity: 0.45;
      }

      .cls-49 {
        fill: #6a6a6c;
        opacity: 0.46;
      }

      .cls-50 {
        fill: #69686a;
        opacity: 0.47;
      }

      .cls-51 {
        fill: #686769;
        opacity: 0.48;
      }

      .cls-52 {
        fill: #666668;
        opacity: 0.49;
      }

      .cls-53 {
        fill: #656466;
        opacity: 0.5;
      }

      .cls-54 {
        fill: #646365;
        opacity: 0.5;
      }

      .cls-55 {
        fill: #636163;
        opacity: 0.51;
      }

      .cls-56 {
        fill: #616062;
        opacity: 0.52;
      }

      .cls-57 {
        fill: #605f61;
        opacity: 0.53;
      }

      .cls-58 {
        fill: #5f5d5f;
        opacity: 0.54;
      }

      .cls-59 {
        fill: #5d5c5e;
        opacity: 0.55;
      }

      .cls-60 {
        fill: #5c5b5d;
        opacity: 0.56;
      }

      .cls-61 {
        fill: #5b595b;
        opacity: 0.57;
      }

      .cls-62 {
        fill: #59585a;
        opacity: 0.58;
      }

      .cls-63 {
        fill: #585758;
        opacity: 0.59;
      }

      .cls-64 {
        fill: #575557;
        opacity: 0.6;
      }

      .cls-65 {
        fill: #565456;
        opacity: 0.61;
      }

      .cls-66 {
        fill: #545354;
        opacity: 0.62;
      }

      .cls-67 {
        fill: #535153;
        opacity: 0.63;
      }

      .cls-68 {
        fill: #525052;
        opacity: 0.64;
      }

      .cls-69 {
        fill: #504e50;
        opacity: 0.65;
      }

      .cls-70 {
        fill: #4f4d4f;
        opacity: 0.66;
      }

      .cls-71 {
        fill: #4e4c4d;
        opacity: 0.67;
      }

      .cls-72 {
        fill: #4d4a4c;
        opacity: 0.68;
      }

      .cls-73 {
        fill: #4b494b;
        opacity: 0.69;
      }

      .cls-74 {
        fill: #4a4849;
        opacity: 0.7;
      }

      .cls-75 {
        fill: #494648;
        opacity: 0.71;
      }

      .cls-76 {
        fill: #474547;
        opacity: 0.72;
      }

      .cls-77 {
        fill: #464445;
        opacity: 0.73;
      }

      .cls-78 {
        fill: #454244;
        opacity: 0.74;
      }

      .cls-79 {
        fill: #434142;
        opacity: 0.75;
      }

      .cls-80 {
        fill: #424041;
        opacity: 0.76;
      }

      .cls-81 {
        fill: #413e40;
        opacity: 0.77;
      }

      .cls-82 {
        fill: #403d3e;
        opacity: 0.78;
      }

      .cls-83 {
        fill: #3e3b3d;
        opacity: 0.79;
      }

      .cls-84 {
        fill: #3d3a3c;
        opacity: 0.8;
      }

      .cls-85 {
        fill: #3c393a;
        opacity: 0.81;
      }

      .cls-86 {
        fill: #3a3739;
        opacity: 0.82;
      }

      .cls-87 {
        fill: #393637;
        opacity: 0.83;
      }

      .cls-88 {
        fill: #383536;
        opacity: 0.84;
      }

      .cls-89 {
        fill: #363335;
        opacity: 0.85;
      }

      .cls-90 {
        fill: #353233;
        opacity: 0.86;
      }

      .cls-91 {
        fill: #343132;
        opacity: 0.87;
      }

      .cls-92 {
        fill: #332f31;
        opacity: 0.88;
      }

      .cls-93 {
        fill: #312e2f;
        opacity: 0.89;
      }

      .cls-94 {
        fill: #302d2e;
        opacity: 0.9;
      }

      .cls-95 {
        fill: #2f2b2c;
        opacity: 0.91;
      }

      .cls-96 {
        fill: #2d2a2b;
        opacity: 0.92;
      }

      .cls-97 {
        fill: #2c282a;
        opacity: 0.93;
      }

      .cls-98 {
        fill: #2b2728;
        opacity: 0.94;
      }

      .cls-99 {
        fill: #292627;
        opacity: 0.95;
      }

      .cls-100 {
        fill: #282426;
        opacity: 0.96;
      }

      .cls-101 {
        fill: #272324;
        opacity: 0.97;
      }

      .cls-102 {
        fill: #262223;
        opacity: 0.98;
      }

      .cls-103 {
        fill: #242021;
        opacity: 0.99;
      }

      .cls-104 {
        fill: #231f20;
      }

      .cls-105 {
        fill: url(#linear-gradient);
      }

      .cls-106 {
        fill: url(#linear-gradient-2);
      }

      .cls-107 {
        fill: url(#linear-gradient-3);
      }

      .cls-108 {
        fill: url(#linear-gradient-4);
      }

      .cls-109 {
        fill: url(#linear-gradient-5);
      }

      .cls-110 {
        fill: url(#linear-gradient-6);
      }

      .cls-111 {
        fill: url(#linear-gradient-7);
      }

      .cls-112 {
        fill: url(#linear-gradient-8);
      }

      .cls-113 {
        fill: url(#linear-gradient-9);
      }

      .cls-114 {
        fill: url(#linear-gradient-10);
      }

      .cls-115 {
        fill: url(#linear-gradient-11);
      }
    </style>
    <linearGradient id="linear-gradient" x1="289.87" y1="-84.99" x2="64.72" y2="90.46" gradientUnits="userSpaceOnUse">
      <stop offset="0" stop-color="#faaf40"/>
      <stop offset="0.52" stop-color="#f16522"/>
      <stop offset="1" stop-color="#e23d21"/>
    </linearGradient>
    <linearGradient id="linear-gradient-2" x1="336.43" y1="-25.24" x2="111.28" y2="150.21" xlink:href="#linear-gradient"/>
    <linearGradient id="linear-gradient-3" x1="314.99" y1="-53.2" x2="89.83" y2="122.25" xlink:href="#linear-gradient"/>
    <linearGradient id="linear-gradient-4" x1="331.47" y1="-30.05" x2="106.31" y2="145.39" xlink:href="#linear-gradient"/>
    <linearGradient id="linear-gradient-5" x1="311.02" y1="-57.85" x2="85.86" y2="117.6" xlink:href="#linear-gradient"/>
    <linearGradient id="linear-gradient-6" x1="195.31" y1="-8.86" x2="90.04" y2="165.94" xlink:href="#linear-gradient"/>
    <linearGradient id="linear-gradient-7" x1="128.33" y1="-49.19" x2="23.07" y2="125.6" xlink:href="#linear-gradient"/>
    <linearGradient id="linear-gradient-8" x1="224.39" y1="8.65" x2="119.12" y2="183.45" xlink:href="#linear-gradient"/>
    <linearGradient id="linear-gradient-9" x1="204.98" y1="-2.42" x2="99.71" y2="172.38" xlink:href="#linear-gradient"/>
    <linearGradient id="linear-gradient-10" x1="228.21" y1="12.51" x2="122.94" y2="187.3" xlink:href="#linear-gradient"/>
    <linearGradient id="linear-gradient-11" x1="208.12" y1="-1.59" x2="102.15" y2="174.38" xlink:href="#linear-gradient"/>
  </defs>
  <title>logo-1</title>
  <g class="cls-1">
    <g id="Layer_2" data-name="Layer 2">
      <g id="Layer_5" data-name="Layer 5">
        <g>
          <g class="cls-2">
            <ellipse class="cls-3" cx="86.91" cy="170.6" rx="86.91" ry="10.79"/>
            <ellipse class="cls-4" cx="86.91" cy="170.6" rx="86.17" ry="10.7"/>
            <ellipse class="cls-5" cx="86.91" cy="170.6" rx="85.42" ry="10.6"/>
            <ellipse class="cls-6" cx="86.91" cy="170.6" rx="84.68" ry="10.51"/>
            <ellipse class="cls-7" cx="86.91" cy="170.6" rx="83.93" ry="10.42"/>
            <ellipse class="cls-8" cx="86.91" cy="170.6" rx="83.19" ry="10.33"/>
            <ellipse class="cls-9" cx="86.91" cy="170.6" rx="82.44" ry="10.23"/>
            <ellipse class="cls-10" cx="86.91" cy="170.6" rx="81.7" ry="10.14"/>
            <ellipse class="cls-11" cx="86.91" cy="170.6" rx="80.95" ry="10.05"/>
            <ellipse class="cls-12" cx="86.91" cy="170.6" rx="80.21" ry="9.96"/>
            <ellipse class="cls-13" cx="86.91" cy="170.6" rx="79.46" ry="9.86"/>
            <ellipse class="cls-14" cx="86.91" cy="170.6" rx="78.72" ry="9.77"/>
            <ellipse class="cls-15" cx="86.91" cy="170.6" rx="77.97" ry="9.68"/>
            <ellipse class="cls-16" cx="86.91" cy="170.6" rx="77.23" ry="9.59"/>
            <ellipse class="cls-17" cx="86.91" cy="170.6" rx="76.48" ry="9.49"/>
            <ellipse class="cls-18" cx="86.91" cy="170.6" rx="75.73" ry="9.4"/>
            <ellipse class="cls-19" cx="86.91" cy="170.6" rx="74.99" ry="9.31"/>
            <ellipse class="cls-20" cx="86.91" cy="170.6" rx="74.24" ry="9.22"/>
            <ellipse class="cls-21" cx="86.91" cy="170.6" rx="73.5" ry="9.12"/>
            <ellipse class="cls-22" cx="86.91" cy="170.6" rx="72.75" ry="9.03"/>
            <ellipse class="cls-23" cx="86.91" cy="170.6" rx="72.01" ry="8.94"/>
            <ellipse class="cls-24" cx="86.91" cy="170.6" rx="71.26" ry="8.85"/>
            <ellipse class="cls-25" cx="86.91" cy="170.6" rx="70.52" ry="8.75"/>
            <ellipse class="cls-26" cx="86.91" cy="170.6" rx="69.77" ry="8.66"/>
            <ellipse class="cls-27" cx="86.91" cy="170.6" rx="69.03" ry="8.57"/>
            <ellipse class="cls-28" cx="86.91" cy="170.6" rx="68.28" ry="8.48"/>
            <ellipse class="cls-29" cx="86.91" cy="170.6" rx="67.54" ry="8.38"/>
            <ellipse class="cls-30" cx="86.91" cy="170.6" rx="66.79" ry="8.29"/>
            <ellipse class="cls-31" cx="86.91" cy="170.6" rx="66.05" ry="8.2"/>
            <ellipse class="cls-32" cx="86.91" cy="170.6" rx="65.3" ry="8.11"/>
            <ellipse class="cls-33" cx="86.91" cy="170.6" rx="64.56" ry="8.01"/>
            <ellipse class="cls-34" cx="86.91" cy="170.6" rx="63.81" ry="7.92"/>
            <ellipse class="cls-35" cx="86.91" cy="170.6" rx="63.07" ry="7.83"/>
            <ellipse class="cls-36" cx="86.91" cy="170.6" rx="62.32" ry="7.74"/>
            <ellipse class="cls-37" cx="86.91" cy="170.6" rx="61.57" ry="7.64"/>
            <ellipse class="cls-38" cx="86.91" cy="170.6" rx="60.83" ry="7.55"/>
            <ellipse class="cls-39" cx="86.91" cy="170.6" rx="60.08" ry="7.46"/>
            <ellipse class="cls-40" cx="86.91" cy="170.6" rx="59.34" ry="7.37"/>
            <ellipse class="cls-41" cx="86.91" cy="170.6" rx="58.59" ry="7.27"/>
            <ellipse class="cls-42" cx="86.91" cy="170.6" rx="57.85" ry="7.18"/>
            <ellipse class="cls-43" cx="86.91" cy="170.6" rx="57.1" ry="7.09"/>
            <ellipse class="cls-44" cx="86.91" cy="170.6" rx="56.36" ry="7"/>
            <ellipse class="cls-45" cx="86.91" cy="170.6" rx="55.61" ry="6.9"/>
            <ellipse class="cls-46" cx="86.91" cy="170.6" rx="54.87" ry="6.81"/>
            <ellipse class="cls-47" cx="86.91" cy="170.6" rx="54.12" ry="6.72"/>
            <ellipse class="cls-48" cx="86.91" cy="170.6" rx="53.38" ry="6.63"/>
            <ellipse class="cls-49" cx="86.91" cy="170.6" rx="52.63" ry="6.53"/>
            <ellipse class="cls-50" cx="86.91" cy="170.6" rx="51.89" ry="6.44"/>
            <ellipse class="cls-51" cx="86.91" cy="170.6" rx="51.14" ry="6.35"/>
            <ellipse class="cls-52" cx="86.91" cy="170.6" rx="50.4" ry="6.26"/>
            <ellipse class="cls-53" cx="86.91" cy="170.6" rx="49.65" ry="6.16"/>
            <ellipse class="cls-54" cx="86.91" cy="170.6" rx="48.9" ry="6.07"/>
            <ellipse class="cls-55" cx="86.91" cy="170.6" rx="48.16" ry="5.98"/>
            <ellipse class="cls-56" cx="86.91" cy="170.6" rx="47.41" ry="5.89"/>
            <ellipse class="cls-57" cx="86.91" cy="170.6" rx="46.67" ry="5.79"/>
            <ellipse class="cls-58" cx="86.91" cy="170.6" rx="45.92" ry="5.7"/>
            <ellipse class="cls-59" cx="86.91" cy="170.6" rx="45.18" ry="5.61"/>
            <ellipse class="cls-60" cx="86.91" cy="170.6" rx="44.43" ry="5.52"/>
            <ellipse class="cls-61" cx="86.91" cy="170.6" rx="43.69" ry="5.42"/>
            <ellipse class="cls-62" cx="86.91" cy="170.6" rx="42.94" ry="5.33"/>
            <ellipse class="cls-63" cx="86.91" cy="170.6" rx="42.2" ry="5.24"/>
            <ellipse class="cls-64" cx="86.91" cy="170.6" rx="41.45" ry="5.15"/>
            <ellipse class="cls-65" cx="86.91" cy="170.6" rx="40.71" ry="5.05"/>
            <ellipse class="cls-66" cx="86.91" cy="170.6" rx="39.96" ry="4.96"/>
            <ellipse class="cls-67" cx="86.91" cy="170.6" rx="39.22" ry="4.87"/>
            <ellipse class="cls-68" cx="86.91" cy="170.6" rx="38.47" ry="4.78"/>
            <ellipse class="cls-69" cx="86.91" cy="170.6" rx="37.73" ry="4.68"/>
            <ellipse class="cls-70" cx="86.91" cy="170.6" rx="36.98" ry="4.59"/>
            <ellipse class="cls-71" cx="86.91" cy="170.6" rx="36.24" ry="4.5"/>
            <ellipse class="cls-72" cx="86.91" cy="170.6" rx="35.49" ry="4.41"/>
            <ellipse class="cls-73" cx="86.91" cy="170.6" rx="34.74" ry="4.31"/>
            <ellipse class="cls-74" cx="86.91" cy="170.6" rx="34" ry="4.22"/>
            <ellipse class="cls-75" cx="86.91" cy="170.6" rx="33.25" ry="4.13"/>
            <ellipse class="cls-76" cx="86.91" cy="170.6" rx="32.51" ry="4.03"/>
            <ellipse class="cls-77" cx="86.91" cy="170.6" rx="31.76" ry="3.94"/>
            <ellipse class="cls-78" cx="86.91" cy="170.6" rx="31.02" ry="3.85"/>
            <ellipse class="cls-79" cx="86.91" cy="170.6" rx="30.27" ry="3.76"/>
            <ellipse class="cls-80" cx="86.91" cy="170.6" rx="29.53" ry="3.66"/>
            <ellipse class="cls-81" cx="86.91" cy="170.6" rx="28.78" ry="3.57"/>
            <ellipse class="cls-82" cx="86.91" cy="170.6" rx="28.04" ry="3.48"/>
            <ellipse class="cls-83" cx="86.91" cy="170.6" rx="27.29" ry="3.39"/>
            <ellipse class="cls-84" cx="86.91" cy="170.6" rx="26.55" ry="3.29"/>
            <ellipse class="cls-85" cx="86.91" cy="170.6" rx="25.8" ry="3.2"/>
            <ellipse class="cls-86" cx="86.91" cy="170.6" rx="25.06" ry="3.11"/>
            <ellipse class="cls-87" cx="86.91" cy="170.6" rx="24.31" ry="3.02"/>
            <ellipse class="cls-88" cx="86.91" cy="170.6" rx="23.57" ry="2.92"/>
            <ellipse class="cls-89" cx="86.91" cy="170.6" rx="22.82" ry="2.83"/>
            <ellipse class="cls-90" cx="86.91" cy="170.6" rx="22.07" ry="2.74"/>
            <ellipse class="cls-91" cx="86.91" cy="170.6" rx="21.33" ry="2.65"/>
            <ellipse class="cls-92" cx="86.91" cy="170.6" rx="20.58" ry="2.55"/>
            <ellipse class="cls-93" cx="86.91" cy="170.6" rx="19.84" ry="2.46"/>
            <ellipse class="cls-94" cx="86.91" cy="170.6" rx="19.09" ry="2.37"/>
            <ellipse class="cls-95" cx="86.91" cy="170.6" rx="18.35" ry="2.28"/>
            <ellipse class="cls-96" cx="86.91" cy="170.6" rx="17.6" ry="2.18"/>
            <ellipse class="cls-97" cx="86.91" cy="170.6" rx="16.86" ry="2.09"/>
            <ellipse class="cls-98" cx="86.91" cy="170.6" rx="16.11" ry="2"/>
            <ellipse class="cls-99" cx="86.91" cy="170.6" rx="15.37" ry="1.91"/>
            <ellipse class="cls-100" cx="86.91" cy="170.6" rx="14.62" ry="1.81"/>
            <ellipse class="cls-101" cx="86.91" cy="170.6" rx="13.88" ry="1.72"/>
            <ellipse class="cls-102" cx="86.91" cy="170.6" rx="13.13" ry="1.63"/>
            <ellipse class="cls-103" cx="86.91" cy="170.6" rx="12.39" ry="1.54"/>
            <ellipse class="cls-104" cx="86.91" cy="170.6" rx="11.64" ry="1.44"/>
          </g>
          <g>
            <g>
              <path class="cls-105" d="M50,22.71h0a14.22,14.22,0,0,1,10.07,4.18L100.2,68.62a2.84,2.84,0,0,0,4.21,0l37.84-39.38a77.12,77.12,0,1,0-8.47,104.9V80.67a1.42,1.42,0,0,0-2.43-1l-24.77,28.46a5.69,5.69,0,0,1-8.58,0L73.24,79.67a1.42,1.42,0,0,0-2.43,1v55.17c-15.45,0-28-10.29-28-25.74V29.89A7.18,7.18,0,0,1,50,22.71Z"/>
              <rect class="cls-106" x="150.31" y="95.82" width="26.94" height="26.94" rx="4.35" ry="4.35"/>
              <rect class="cls-107" x="155.11" y="53.19" width="20.45" height="20.45" rx="3.94" ry="3.94"/>
              <rect class="cls-108" x="177.25" y="75.97" width="15.9" height="15.9" rx="2.78" ry="2.78"/>
              <rect class="cls-109" x="175.41" y="37.42" width="11.69" height="11.69" rx="2.15" ry="2.15"/>
            </g>
            <g>
              <path class="cls-110" d="M102.3,113.65c-.26,0-.51-.06-.77-.08a111.75,111.75,0,0,1,7.7,31.83,73.42,73.42,0,0,0,21-12.86V86.42l-20.93,24.06A9.25,9.25,0,0,1,102.3,113.65Z"/>
              <path class="cls-111" d="M81.81,3.57A73.63,73.63,0,0,0,16.53,43.28a112.28,112.28,0,0,1,22.73,6.91V29.89A10.77,10.77,0,0,1,50,19.14a17.94,17.94,0,0,1,12.64,5.28l39.65,41.25,35.17-36.6A73.17,73.17,0,0,0,81.81,3.57Z"/>
              <path class="cls-112" d="M172.9,98.16H154.66a2,2,0,0,0-2,2v18.24a2,2,0,0,0,2,2H172.9a2,2,0,0,0,2-2V100.18A2,2,0,0,0,172.9,98.16Z"/>
              <path class="cls-113" d="M159.06,55.53h12.56a1.6,1.6,0,0,1,1.6,1.6V69.7a1.61,1.61,0,0,1-1.61,1.61H159.05a1.6,1.6,0,0,1-1.6-1.6V57.14A1.61,1.61,0,0,1,159.06,55.53Z"/>
              <rect class="cls-114" x="179.59" y="78.31" width="11.22" height="11.22" rx="0.44" ry="0.44"/>
              <rect class="cls-115" x="177.56" y="39.57" width="7.2" height="7.2"/>
            </g>
          </g>
        </g>
      </g>
    </g>
  </g>
</svg>
