<svg xmlns="http://www.w3.org/2000/svg" viewBox="0 0 134.2 111.04">
  <defs>
    <style>
      .cls-1, .cls-4 {
        fill: #fff;
      }

      .cls-1 {
        stroke: #fff;
        stroke-miterlimit: 10;
      }

      .cls-2 {
        fill: #b0c745;
      }

      .cls-3, .cls-5 {
        fill: #374;
      }

      .cls-4 {
        font-size: 25px;
      }

      .cls-4, .cls-5 {
        font-family: FreestyleScript-Regular, Freestyle Script;
      }

      .cls-5 {
        font-size: 36.83px;
      }
    </style>
  </defs>
  <title>logo-3</title>
  <g id="Layer_2" data-name="Layer 2">
    <g id="OBJECTS">
      <circle class="cls-1" cx="63.25" cy="55.77" r="32.45"/>
      <path class="cls-2" d="M28.4,54.19a30.89,30.89,0,0,1,1.08-14A34.28,34.28,0,0,1,36.7,27.53a35.61,35.61,0,0,1,12-8.7,36.52,36.52,0,0,1,14.65-3.1l3.76.21c1.25.16,2.49.38,3.73.58s2.43.65,3.64,1,2.35.87,3.52,1.34a35.6,35.6,0,0,1,12,8.7,34.25,34.25,0,0,1,7.22,12.63,30.85,30.85,0,0,1,1.07,14A38.2,38.2,0,0,0,86.15,31.41a34.23,34.23,0,0,0-45.57,0A38.14,38.14,0,0,0,28.4,54.19Z"/>
      <path class="cls-2" d="M63.37,0a13,13,0,0,1,2.74,4.81,15.43,15.43,0,0,1,.76,4.81,15.21,15.21,0,0,1-.75,4.81,12.91,12.91,0,0,1-2.75,4.81,12.91,12.91,0,0,1-2.75-4.81,15.22,15.22,0,0,1-.75-4.81,15.42,15.42,0,0,1,.76-4.81A13,13,0,0,1,63.37,0Z"/>
      <path class="cls-2" d="M81.9,3.27a13,13,0,0,1,.93,5.45,15.42,15.42,0,0,1-.93,4.77,15.22,15.22,0,0,1-2.35,4.26,12.91,12.91,0,0,1-4.23,3.57,12.91,12.91,0,0,1-.94-5.46,15.22,15.22,0,0,1,.94-4.77,15.42,15.42,0,0,1,2.35-4.26A13,13,0,0,1,81.9,3.27Z"/>
      <path class="cls-2" d="M98.2,12.68a13,13,0,0,1-1,5.44,15.42,15.42,0,0,1-2.51,4.17A15.22,15.22,0,0,1,91,25.49a12.91,12.91,0,0,1-5.2,1.91,12.91,12.91,0,0,1,1-5.45,15.22,15.22,0,0,1,2.52-4.16A15.42,15.42,0,0,1,93,14.6,13,13,0,0,1,98.2,12.68Z"/>
      <path class="cls-2" d="M110.3,27.1a13,13,0,0,1-2.79,4.78,15.42,15.42,0,0,1-3.78,3.06,15.22,15.22,0,0,1-4.54,1.76,12.91,12.91,0,0,1-5.54,0,12.91,12.91,0,0,1,2.79-4.79,15.22,15.22,0,0,1,3.79-3.05,15.42,15.42,0,0,1,4.54-1.75A13,13,0,0,1,110.3,27.1Z"/>
      <path class="cls-2" d="M116.73,44.78a13,13,0,0,1-4.26,3.54,15.43,15.43,0,0,1-4.6,1.58A15.22,15.22,0,0,1,103,50a12.91,12.91,0,0,1-5.21-1.88,12.91,12.91,0,0,1,4.25-3.54,15.22,15.22,0,0,1,4.6-1.57,15.42,15.42,0,0,1,4.86-.09A13,13,0,0,1,116.73,44.78Z"/>
      <path class="cls-2" d="M44.83,3.27a13,13,0,0,1,4.22,3.58,15.42,15.42,0,0,1,2.35,4.26,15.22,15.22,0,0,1,.94,4.77,12.91,12.91,0,0,1-.94,5.46,12.91,12.91,0,0,1-4.23-3.57,15.22,15.22,0,0,1-2.35-4.26,15.42,15.42,0,0,1-.93-4.77A13,13,0,0,1,44.83,3.27Z"/>
      <path class="cls-2" d="M28.53,12.68a13,13,0,0,1,5.19,1.92,15.42,15.42,0,0,1,3.67,3.19A15.22,15.22,0,0,1,39.91,22a12.91,12.91,0,0,1,1,5.45,12.91,12.91,0,0,1-5.2-1.91A15.22,15.22,0,0,1,32,22.29a15.43,15.43,0,0,1-2.51-4.17A13,13,0,0,1,28.53,12.68Z"/>
      <path class="cls-2" d="M16.43,27.1a13,13,0,0,1,5.53,0,15.42,15.42,0,0,1,4.54,1.75,15.22,15.22,0,0,1,3.79,3.05,12.91,12.91,0,0,1,2.79,4.79,12.91,12.91,0,0,1-5.54,0A15.22,15.22,0,0,1,23,34.93a15.42,15.42,0,0,1-3.78-3.06A13,13,0,0,1,16.43,27.1Z"/>
      <g>
        <path class="cls-3" d="M10,106.2a23.17,23.17,0,0,1-3.79-10C3.83,80.67,14.61,66.94,29.4,63.52c8.23-1.9,16.71-1.09,25.1-.57C71,64,87.23,66,103.75,66.15c3.81,0,7.71,0,11.28-1.32a18.08,18.08,0,0,0,6.3-4.19c1.43,3.83.38,11-1,14.73-2.49,6.59-6.61,12.9-12.89,16.39-6.11,3.39-13.43,4.83-20.36,5.13-15.87.68-31.45-3.56-47.29-3.5C27.86,93.43,18,97.2,10,106.2Z"/>
        <g>
          <path class="cls-3" d="M52.53,101.65c-4.64-.25-9.24-.5-13.46-.37a34.32,34.32,0,0,0-11,2,33.9,33.9,0,0,1,8.31-1.89A48.94,48.94,0,0,0,24.44,104c.9-1.13,3.69-1.73,4.14-2.63A30.06,30.06,0,0,1,36.67,100a64.11,64.11,0,0,1,8.8.45c6,.7,12.12,2,18.39,3.16C58.63,104.79,55.94,101.94,52.53,101.65Z"/>
          <path class="cls-3" d="M14.7,110.46c.74-.83,1.47-1.62,2.25-2.34C16.18,108.94,15.47,109.8,14.7,110.46Z"/>
          <path class="cls-3" d="M122.15,66.46a22.58,22.58,0,0,0-.46-4.22A12.3,12.3,0,0,1,122.15,66.46Z"/>
          <path class="cls-3" d="M69.78,99.39c.8-.06,1.59-.08,2.4-.1a106.16,106.16,0,0,0,18.66,1C83.83,100.7,76.41,101,69.78,99.39Z"/>
          <path class="cls-3" d="M63.55,97c-6-.67-12-1.74-17.67-2.86C51.54,95.1,57.45,96.12,63.55,97Z"/>
          <path class="cls-3" d="M82.89,74.15c0,.15-.11.26-.29.34a1.52,1.52,0,0,0-.5.15q-3.69-.58-7.32-1.21a16.41,16.41,0,0,1,1.82-.23C79.29,73.66,79.8,74.4,82.89,74.15Z"/>
          <path class="cls-3" d="M122.09,68.08l.06.11c0,.49,0,1-.06,1.45l-.07.21C122,69.27,122.06,68.68,122.09,68.08Z"/>
          <path class="cls-3" d="M86,74.46a1.43,1.43,0,0,0,.26.81l-4.18-.63a3.43,3.43,0,0,0,.47-.16C83.54,74.36,85,74.76,86,74.46Z"/>
          <path class="cls-3" d="M104.57,77.06c.11-.08.93-.87,1.19-1.12a1.17,1.17,0,0,1-.13.17l-.08.09s-.09.2-.14.28c-.2.42-.42.77-.59,1.07.22-.1.24,0,.67-.16-.35.29-.65.53-.92.73a5.22,5.22,0,0,0,.12-.57,3.06,3.06,0,0,0,0-.31c0-.09,0-.29,0-.18a1.06,1.06,0,0,1-.79.28Z"/>
          <path class="cls-3" d="M12,103.57C10,100.88,9.28,97,9.23,93.25a57.51,57.51,0,0,1,1.23-10.79,22.12,22.12,0,0,0-1.36,2.91c-.21.51-.34,1.06-.52,1.6a11.94,11.94,0,0,0-.44,1.65L7.8,90.29c-.11.56-.12,1.13-.19,1.68a26.93,26.93,0,0,0-.16,3.28c-.09,4.25.74,7.61-.05,8.81-.4.6-1,.18-1.65-1a16.08,16.08,0,0,1-1.52-5.29,32.78,32.78,0,0,1,0-7.1c.15-1.19.35-2.35.55-3.43s.46-2.09.71-3c-.54.88-.48.89-1,1.81a12.13,12.13,0,0,0,.62-1.37,3.26,3.26,0,0,0,.31-1.36,22.32,22.32,0,0,0-1.7,3.55A13.71,13.71,0,0,1,2.29,90l-.4-1.94C.52,90.67.05,94.84.27,99a35.14,35.14,0,0,0,1,6.33A58.18,58.18,0,0,0,3.1,111,34,34,0,0,1,.1,99.2a52.69,52.69,0,0,1,0-5.88l.29-3c.15-1,.36-2,.53-3A37.39,37.39,0,0,1,13.34,66.8a37.78,37.78,0,0,1,10.72-6.35,25.42,25.42,0,0,1,3-1c1-.33,2-.57,3-.79a55.83,55.83,0,0,1,6-.92,92,92,0,0,1,11.58-.33c3.75.1,7.23.25,10.83.42,15.94.3,30.72-.31,43.8-2.66l.32,0h.52l1.54,0c1.1,0,2.31,0,3.68-.21l.51-.06a4.32,4.32,0,0,0,.57-.19l.58-.21.29-.11a.76.76,0,0,0,.15-.06l.2-.17,1.6-1.37L114.1,51l10.67-9.81c1.76,4.89,2.72,7.35,3.37,8.87,1,1.59,1.58,1.87,2,1.79a.63.63,0,0,0,.25-.13l.71,1.93,1.32,3.71c1.85,4.71,2.16,10.69,1.45,16.79-.13.83-.31,1.67-.48,2.52s-.41,1.71-.7,2.58a46.44,46.44,0,0,1-2,5.21,44.51,44.51,0,0,1-6.25,10.06,42.7,42.7,0,0,1-4.29,4.41c-.38.33-.81.71-1.15,1l-1,.74c-.63.49-1.33.94-2,1.39s-1.41.85-2.12,1.26-1.29.68-1.94,1c-1.3.62-2.6,1.19-3.91,1.67-10.48,3.9-21,4-30.72,3.69a11.29,11.29,0,0,1-2.9-.55A4.08,4.08,0,0,1,72.57,108c-.53-.76.53-1.4,5.24-1.48,3.94-.21,7.9-.49,12-1A76.9,76.9,0,0,0,102.37,103a6.49,6.49,0,0,1-3,1.32,25.74,25.74,0,0,0-3.72,1.12,44.88,44.88,0,0,0,9-1.72,40,40,0,0,0,4.37-1.62c.73-.34,1.47-.67,2.2-1.07.37-.2.73-.38,1.12-.61l1.22-.74c-.53.33-1.12.7-1.62,1s-1,.56-1.52.82q-1.53.78-3.08,1.43a51.69,51.69,0,0,1-6.23,2.16,53.34,53.34,0,0,0,8-2.89c.67-.32,1.35-.64,2-1l1-.54c.34-.19.72-.43,1.08-.64.74-.43,1.43-.92,2.13-1.41.35-.24.67-.51,1-.77s.64-.49,1.07-.87a39.22,39.22,0,0,0,4.39-4.47,41.48,41.48,0,0,0,3.53-5.06,43,43,0,0,0,2.7-5.33,36.26,36.26,0,0,0,1.85-5.35c.7-2.57,1.82-5,2.47-7.92s.78-6-.71-8.68a35.23,35.23,0,0,1-1,13.54,44.13,44.13,0,0,1-6.31,13.79,40.16,40.16,0,0,1-5.1,6.17c-.49.46-1,.93-1.47,1.38s-1,.87-1.55,1.29c-.89.67-1.79,1.3-2.74,1.89a40.61,40.61,0,0,1-5.6,2.84,54.7,54.7,0,0,1-5.55,2,.37.37,0,0,0,.06-.08,53.2,53.2,0,0,1-9.54,2c-1.55.19-3.09.31-4.63.4s-3,.1-4.56.13c1.9-.13,3.82-.31,5.57-.3a205.19,205.19,0,0,1-25.46-2.27c5.73,0,11.76.31,18,.19a74,74,0,0,0,19.35-2.49,42.66,42.66,0,0,0,9.6-4c.82-.47,1.6-1,2.37-1.52l1.11-.85c.37-.28.81-.68,1.21-1a34.1,34.1,0,0,0,4.33-4.71,39.94,39.94,0,0,0,5.69-10.71,36.84,36.84,0,0,0,1.4-5.37,31.76,31.76,0,0,0,.47-5.24c-.42,2.1-.83,4.27-1.38,6.43a49.69,49.69,0,0,1-2.15,6.54,32,32,0,0,1-3.4,6.22A18,18,0,0,1,115.89,91,36.21,36.21,0,0,0,122,82.59a40.35,40.35,0,0,0,3.64-9.24,34,34,0,0,0,1-9.44,34.66,34.66,0,0,0-.58-4.56,23.18,23.18,0,0,0-.57-2.34l-.09-.3c0-.08,0,0-.05,0l-.05,0-.22.19a5.08,5.08,0,0,1-.45.34c.23-.17.46-.37.68-.56l.16-.15.08-.08s.06-.08.08,0l.3.61-.11-.51-.06-.26c0-.07,0,0-.06,0l-.27.23a3.21,3.21,0,0,1-.62.37,2.64,2.64,0,0,1-1.62.18c-1.28-.24-3-1.34-5.28-4.2l-2.94,2.39c-.85.67-1.75,1.39-2.46,1.91-1.56,1.19-2.75,2-3.9,2.77a8.82,8.82,0,0,1-1.4.31c-.44,0-.89.07-1.32.07-.87,0-1.72,0-2.59,0l-1.93-.11.86.06,1.07,0c.89,0,1.76.07,2.64.07.44,0,.88,0,1.32,0a3.39,3.39,0,0,0,.69-.12,2.68,2.68,0,0,0,.72-.21c.59-.38,1.09-.66,1.77-1.14l1-.66,1.06-.77c.66-.47,1.53-1.13,2.31-1.71l2.69-2.09c3.47,4.92,5.54,4.67,7.15,3.61A4.59,4.59,0,0,1,122,58.36c-1,0-2.15-.4-3.58-1.84a4.49,4.49,0,0,0,1.94,2.39,2.55,2.55,0,0,0,2.22,0c1-.2,2.1-2.63,2.44.59a28.33,28.33,0,0,1,.62,5.86,24.89,24.89,0,0,0-.52-4.37,19.05,19.05,0,0,0-.55-2.12c-.1-.35-.25-.7-.38-1-.19.15-.38.35-.58.52a10.52,10.52,0,0,1-6.12,2.67,4.87,4.87,0,0,0,3.88-.76A10.91,10.91,0,0,0,123,59l.1-.09,0,0s0,0,0,.07l.11.37a7.4,7.4,0,0,1,.19.75c.12.5.19,1,.27,1.51a29.68,29.68,0,0,1-1,12,32.67,32.67,0,0,0,.83-6.37A25,25,0,0,0,123,61c-.07-.31-.11-.61-.2-.92l-.13-.46-.06-.23-.13.12c-.35.33-.71.65-1.08.94A9.22,9.22,0,0,1,119,61.82a7.41,7.41,0,0,1-6-.49,33,33,0,0,1-5.06,2.32l-.55.19-.49.05a7.45,7.45,0,0,1-1,.05c-.64,0-1.28,0-1.93,0l.94,0-1.86,0L101,63.82l-2-.09-4.05-.2a56.41,56.41,0,0,0-7.25.36l-1.21-.07c.78-.19,1.16-.41-.3-.64C79.91,62,73,62.65,65.83,61.06a36.22,36.22,0,0,0-7.25-.47,1.91,1.91,0,0,0-1.51,0l-1.82,0a41.85,41.85,0,0,0-4.4-.06c1.44.07,2.91.07,4.4.06l1.66.06a3,3,0,0,1-1.62.37c10.16.81,20.61,2.17,31.14,2.77-.64.16-1.55.3-1.93.4l3.14-.33c3.4.17,6.8.27,10.2.24a14.65,14.65,0,0,0-2.8.53c2.53.14,5.06.24,7.6.26a41.84,41.84,0,0,0,4.22-.08,14.47,14.47,0,0,0,2.37-.66A26.11,26.11,0,0,0,112,63a11,11,0,0,0,6.54-.72,12.73,12.73,0,0,0,2.7-1.69c.41-.33.81-.69,1.2-1.05l.14-.14s.05.13.08.2l.15.44c.1.29.16.59.25.89a25.26,25.26,0,0,1,.08,7.31,30.14,30.14,0,0,1-1.74,7.12,36.36,36.36,0,0,1-7.68,12.19,29.86,29.86,0,0,0,9.07-14,37.2,37.2,0,0,1-4.5,10.51,30.75,30.75,0,0,1-3.63,4.74,26.73,26.73,0,0,1-2.18,2.08,23.64,23.64,0,0,1-2.29,1.72A34.36,34.36,0,0,1,100,96.93a47.46,47.46,0,0,1-10.64,1.45c2.49-1.06,5.82-2.23,7.05-3.71-.22-.48-4.48,0-2.08-.7a62.45,62.45,0,0,0,10.45-4.45,9.74,9.74,0,0,0,3-2.56,4.51,4.51,0,0,0,.43-.7,4.12,4.12,0,0,0,.22-.66,3,3,0,0,0,0-1.35c-.09-.21-.59-.22-1.2-.21l-1,0c-.43,0-.87.09-1.3.09a5.81,5.81,0,0,1-2.06-.27c-.52-.17-.62-.45-.23-.85l.5-.42c.17-.17.36-.34.57-.51l.3-.3a1.8,1.8,0,0,0,.24-.25l.2-.31a6.78,6.78,0,0,0,.63-1.35,3,3,0,0,0,.61-.82c.09,0-.11-.09-.34-.12.21-.92.2-1.73.4-2.52a3.1,3.1,0,0,0,.08-.44l-.1.08.63-.69c-.42.38-.74.66-1,.86a3.41,3.41,0,0,1-1.19.1l-.46,0a4.73,4.73,0,0,0-1.13-.8,1.78,1.78,0,0,1,0,.67L97,75.85l-5.86-.35a18.5,18.5,0,0,1-4.22-1.42c-4.32,1.51-13.82-.39-20.33-.68v.07l-9.86-.85a12.06,12.06,0,0,1-1.51-.71c-.83.24-1.7.2-2.14.33-2.72-.41-4.9-.94-7-1.42a5.43,5.43,0,0,1-2,.67,35,35,0,0,0-4.6,0c-1.7,0-3.36,0-5,.17-.69,0-1.35.13-2,.21l-1,.14c-.32.05-.6.13-.9.18a24.05,24.05,0,0,0-3.54.94,23.42,23.42,0,0,0-6.51,3.45,1.91,1.91,0,0,1-.72-.43A3.76,3.76,0,0,1,19,77.2a3.35,3.35,0,0,0-.8,1,.4.4,0,0,0-.15-.39,7.12,7.12,0,0,1-1.5,2,9,9,0,0,0-1.65,1.73,8.07,8.07,0,0,0-.32,1.39l-.33.6a6.13,6.13,0,0,0-2,3.11c-.15.6-.27,1.23-.39,1.86s-.1,1.3-.19,2a22.66,22.66,0,0,0-.38,4.11,19.92,19.92,0,0,0,.32,4.2C12,100.88,11.65,101.94,12,103.57Z"/>
          <path class="cls-3" d="M73.9,73.28l-9.38-1.67C67.88,71.93,70.94,71.76,73.9,73.28Z"/>
          <path class="cls-3" d="M100.87,83a15.4,15.4,0,0,0-3.14,0,24.07,24.07,0,0,0,3.74-1.55c.31-.15.43-.25.66-.37l.61-.4.3-.23.22-.16.12-.09a3.44,3.44,0,0,0,.78-1h.08c0,.35-.49.71-.75.94a1.18,1.18,0,0,0-.19.21l-.82.78-.39.41a5.15,5.15,0,0,1-.41.44A7.41,7.41,0,0,0,100.87,83Z"/>
          <path class="cls-3" d="M82.6,74.49a3.43,3.43,0,0,1-.47.16h0A1.52,1.52,0,0,1,82.6,74.49Z"/>
          <path class="cls-3" d="M90.56,96.7l-.78.06c2-.3,3.92-.68,5.84-1.15A24.89,24.89,0,0,1,90.56,96.7Z"/>
          <path class="cls-3" d="M69.3,95.45c-4-.34-8.07-.77-12.11-1.15L42,91.82C51.26,92.25,60.22,94.11,69.3,95.45Z"/>
          <path class="cls-3" d="M89.33,85.21c-1.37-.1-2.73-.33-4.21-.58,1.48,0,2.81,0,4.15-.08C89,84.77,89.28,85,89.33,85.21Z"/>
          <path class="cls-3" d="M106.24,91.73c-.35.2-.71.36-1.07.54a23.11,23.11,0,0,0,2.41-1.91C107.36,90.66,106.71,91.27,106.24,91.73Z"/>
          <path class="cls-3" d="M73.67,83.57c1.13.16,2.29.35,3.38.47a18.85,18.85,0,0,0-2,.34A4.38,4.38,0,0,0,73.67,83.57Z"/>
          <path class="cls-3" d="M54.56,81.45l-5.28-.63c2.15.09,4.31.24,6.4.42A2.33,2.33,0,0,1,54.56,81.45Z"/>
        </g>
      </g>
      <text class="cls-4" transform="translate(40.52 83.54)">friendly</text>
      <text class="cls-5" transform="translate(48.61 57.33) scale(0.89 1.13)">Eco</text>
    </g>
  </g>
</svg>
