<svg xmlns="http://www.w3.org/2000/svg" viewBox="0 0 222.73 144.6">
  <defs>
    <style>
      .cls-1 {
        fill: #00beb9;
      }

      .cls-2 {
        fill: #fff;
      }

      .cls-3 {
        fill: #353537;
      }

      .cls-4 {
        fill: #00a49f;
      }

      .cls-5 {
        fill: #f065a6;
      }

      .cls-6 {
        fill: #5202b5;
      }

      .cls-7 {
        fill: #e34932;
      }

      .cls-8 {
        fill: #f4eed8;
      }

      .cls-9 {
        fill: #0e0e15;
      }

      .cls-10 {
        fill: #ebe0be;
      }

      .cls-11 {
        fill: #ff6748;
      }

      .cls-12 {
        fill: #6d26d7;
      }
    </style>
  </defs>
  <title>teamwork</title>
  <g id="Layer_2" data-name="Layer 2">
    <g id="OBJECTS">
      <g>
        <g>
          <g>
            <rect class="cls-1" x="93.63" y="3.42" width="91.78" height="56.72"/>
            <rect class="cls-2" x="97.48" y="6.88" width="84.09" height="49.8"/>
            <polygon class="cls-3" points="174.63 50.01 174.63 26.53 169.99 26.53 169.99 50.01 167.01 50.01 167.01 32.93 162.37 32.93 162.37 50.01 159.39 50.01 159.39 25.18 154.75 25.18 154.75 50.01 151.78 50.01 151.78 21.56 147.14 21.56 147.14 50.01 144.16 50.01 144.16 32.93 139.52 32.93 139.52 50.01 135.93 50.01 135.93 17.97 134.91 17.97 134.91 51.03 178.04 51.03 178.04 50.01 174.63 50.01"/>
            <rect class="cls-1" x="102.12" y="14.8" width="26.16" height="1.58"/>
            <rect class="cls-1" x="102.12" y="19.32" width="26.16" height="1.58"/>
            <rect class="cls-1" x="102.12" y="23.85" width="12.85" height="1.58"/>
            <g>
              <polygon class="cls-1" points="119.01 43.59 119.01 48.11 116.67 50.42 112.18 50.42 112.18 43.59 119.01 43.59"/>
              <polygon class="cls-4" points="119.01 48.11 116.67 50.42 116.67 48.11 119.01 48.11"/>
            </g>
            <rect class="cls-5" x="102.38" y="43.59" width="6.83" height="6.83"/>
            <polygon class="cls-1" points="172.31 20.17 168.37 21.16 169.43 22.25 164.66 26.88 148.36 14.19 140.24 20.27 140.85 21.09 148.34 15.47 164.73 28.23 170.14 22.98 171.2 24.08 172.31 20.17"/>
            <g>
              <circle class="cls-6" cx="106.79" cy="34.82" r="4.67"/>
              <path class="cls-2" d="M106.79,31.54a3.28,3.28,0,1,0,3.28,3.28A3.28,3.28,0,0,0,106.79,31.54Zm-.59.47a2.45,2.45,0,0,0-.73,1.2,2.83,2.83,0,0,1-.74-.39A2.87,2.87,0,0,1,106.2,32Zm-1.67,1a3.18,3.18,0,0,0,.86.46,5.53,5.53,0,0,0-.14,1.15h-1.32A2.86,2.86,0,0,1,104.52,33.06Zm-.6,1.92h1.32a5.53,5.53,0,0,0,.15,1.18,3.18,3.18,0,0,0-.86.45A2.86,2.86,0,0,1,103.92,35Zm.83,1.86a2.85,2.85,0,0,1,.73-.38,2.43,2.43,0,0,0,.72,1.17A2.87,2.87,0,0,1,104.75,36.84Zm1.88.67a1.64,1.64,0,0,1-.84-1.14,4,4,0,0,1,.84-.12Zm0-1.58a4.31,4.31,0,0,0-.92.13,5.25,5.25,0,0,1-.14-1.08h1.06Zm0-1.27h-1.06a5.24,5.24,0,0,1,.13-1.05,4.25,4.25,0,0,0,.93.14Zm0-1.23a4,4,0,0,1-.85-.12,1.66,1.66,0,0,1,.85-1.17Zm3,1.23h-1.32a5.67,5.67,0,0,0-.14-1.15,3.16,3.16,0,0,0,.86-.46A2.85,2.85,0,0,1,109.65,34.66Zm-.81-1.84a2.84,2.84,0,0,1-.74.39,2.46,2.46,0,0,0-.73-1.2A2.86,2.86,0,0,1,108.84,32.82Zm-1.9-.69c.35.1.66.55.85,1.17a4,4,0,0,1-.85.12Zm0,1.61a4.25,4.25,0,0,0,.93-.14,5.39,5.39,0,0,1,.13,1.05h-1.06Zm0,1.23H108a5.3,5.3,0,0,1-.14,1.08,4.31,4.31,0,0,0-.92-.13Zm0,2.53V36.25a4,4,0,0,1,.84.12A1.64,1.64,0,0,1,106.94,37.5Zm.43.12a2.43,2.43,0,0,0,.72-1.17,2.87,2.87,0,0,1,.73.38A2.87,2.87,0,0,1,107.37,37.63Zm1.66-1a3.22,3.22,0,0,0-.86-.45,5.59,5.59,0,0,0,.15-1.18h1.32A2.86,2.86,0,0,1,109,36.6Z"/>
            </g>
            <g>
              <circle class="cls-7" cx="118.1" cy="34.82" r="4.6"/>
              <path class="cls-2" d="M120.81,34.2h-.57a2.23,2.23,0,0,0-.18-.45l.4-.4a.29.29,0,0,0,0-.4l-.48-.48a.29.29,0,0,0-.4,0l-.4.4a2.22,2.22,0,0,0-.45-.18v-.57a.29.29,0,0,0-.29-.29h-.68a.29.29,0,0,0-.29.29v.57a2.2,2.2,0,0,0-.45.18l-.4-.4a.29.29,0,0,0-.4,0l-.48.48a.28.28,0,0,0,0,.4l.4.4a2.24,2.24,0,0,0-.18.45h-.57a.28.28,0,0,0-.29.29v.68a.28.28,0,0,0,.29.29H116a2.22,2.22,0,0,0,.18.45l-.4.4a.28.28,0,0,0,0,.4l.48.48a.29.29,0,0,0,.4,0l.4-.4a2.22,2.22,0,0,0,.45.18v.57a.29.29,0,0,0,.29.29h.68a.29.29,0,0,0,.29-.29V37a2.24,2.24,0,0,0,.45-.18l.4.4a.29.29,0,0,0,.4,0l.48-.48a.28.28,0,0,0,0-.4l-.4-.4a2.22,2.22,0,0,0,.18-.45h.57a.29.29,0,0,0,.29-.29v-.68A.29.29,0,0,0,120.81,34.2ZM118.1,36a1.19,1.19,0,1,1,1.19-1.19A1.19,1.19,0,0,1,118.1,36Z"/>
            </g>
            <g>
              <g>
                <rect class="cls-3" x="126.07" y="30.93" width="1.92" height="1.92"/>
                <rect class="cls-3" x="129.18" y="30.93" width="1.92" height="1.92"/>
              </g>
              <g>
                <rect class="cls-3" x="126.07" y="33.86" width="1.92" height="1.92"/>
                <rect class="cls-5" x="129.18" y="33.86" width="1.92" height="1.92"/>
              </g>
              <g>
                <rect class="cls-5" x="126.07" y="36.8" width="1.92" height="1.92"/>
                <rect class="cls-5" x="129.18" y="36.8" width="1.92" height="1.92"/>
              </g>
            </g>
          </g>
          <g>
            <g>
              <path class="cls-6" d="M197.11,48.06s-8.44,6.77-15.67,4.36-10-16-10-16,1.62-2.78,0-3.74c0,0,.32-2.3-1.3-2.5s-8,1.73-1.51,6.72c0,0,1.83,24.58,15.76,25.44s13.75-2.65,13.75-2.65Z"/>
              <path class="cls-8" d="M171.4,36.39A6.71,6.71,0,0,0,172,35h0c1.49-.46.71-4.27.06-4.91-.49-.47-1.17-.15-1.49,0-.33-.64-2.09-4-3.06-3.68-.72.23,0,2.51.56,4-2.09.76-4.11,2.77.57,6.37a52.54,52.54,0,0,0,1,6.29A20.34,20.34,0,0,0,173.12,42,40.63,40.63,0,0,1,171.4,36.39Z"/>
            </g>
            <polygon class="cls-8" points="213.42 73.36 207.34 81.08 208.67 82.61 216.67 76.2 213.42 73.36"/>
            <path class="cls-6" d="M201.32,46.14s9.81,1,12,4.23,10.17,11.88,9.33,18.49-4.58,8.57-4.58,8.57l-4.67-4.07s3.05-2.46,2.54-4.92-7.3-9-7.3-9l-5.34-10.69Z"/>
            <g>
              <g>
                <path class="cls-5" d="M222.73,140.88A227.85,227.85,0,0,1,194,142.71a227.85,227.85,0,0,1-28.73-1.83,226.63,226.63,0,0,1,57.46,0Z"/>
                <path class="cls-2" d="M206.18,136.51l.25,1.56.35,2.12-8.88,2.21a.56.56,0,0,1-.59-.86A10.24,10.24,0,0,1,199,139.8a28,28,0,0,1,3.38-2.35Z"/>
                <path class="cls-2" d="M190.83,136.51l-.1,1.57-.13,2.14-9.15.16a.56.56,0,0,1-.38-1,10.18,10.18,0,0,1,2-1.3,27.94,27.94,0,0,1,3.82-1.53Z"/>
                <path class="cls-9" d="M207.66,81.6A193.18,193.18,0,0,1,203.47,108l3.12,29.11-4.9.5s-5.06-19.11-6.53-23.6c-1.65-5,0-17.5,0-17.5s-4.33,9.56-4.33,14.16.51,25.9.51,25.9-3.27.91-4.9,0-2.9-28.38-2.9-28.38l6.35-29.79A126.22,126.22,0,0,0,207.66,81.6Z"/>
              </g>
              <path class="cls-6" d="M209.94,82.64c.25-2.95,1.16-22.56-.06-27-2.72-9.83-8.56-9.54-8.56-9.54-1.79,4.15-5.53,1.34-5.53,1.34s-6.58,4-4.4,14.88c1.41,7-1.45,13.47-3.65,17.15A25.31,25.31,0,0,0,209.94,82.64Z"/>
              <path class="cls-2" d="M195.36,47.81S193,49.22,193,50.47s1.57,3.24,1.57,3.24l2.32-2.66,2.24,3.22s7.22-5.54,2.47-8.58S195.36,47.81,195.36,47.81Z"/>
              <g>
                <path class="cls-8" d="M191,36.58s-1.77,9.81,3.61,9.71,7.37-4,7-6.28-.69-6.93-5.29-7.49S191,36.58,191,36.58Z"/>
                <path class="cls-9" d="M206.34,34.4a4.56,4.56,0,0,0-1.68-1.61v0a3,3,0,0,0-.25-1.3,4.28,4.28,0,0,0-.78-1.16,4.91,4.91,0,0,1,0,1.7,4.53,4.53,0,0,0-.9-1.53,3.72,3.72,0,0,0-1-.67,10.34,10.34,0,0,0-5.49-.92,8,8,0,0,1-1.28.1,1.77,1.77,0,0,1-1.17-.46,3.81,3.81,0,0,0,1,1.59,4.85,4.85,0,0,0-3.41,5.22,3.69,3.69,0,0,1,2.65.15c-.15,3.59,6.51,5.3,6.51,5.3a2.31,2.31,0,0,1,2.34-.38,1.6,1.6,0,0,1,.79,1.21c1.51-1.09,1.87-6.57,1.87-6.57a1.83,1.83,0,0,1,1.18.08A4.15,4.15,0,0,1,206.34,34.4Z"/>
                <circle class="cls-8" cx="201.94" cy="41.91" r="1.77" transform="translate(-4.11 32.9) rotate(-9.22)"/>
                <path class="cls-8" d="M201.23,41.67l.22,1.33s0,.24.06.63.09,1.28.09,2.06c0,1.21-.14,2.47-.6,2.9-1,.93-4.79,1.11-5.32.86-.17-.08-.26-.76-.3-1.65,0-.48,0-1,0-1.55h0c0-1.64.05-3.28.05-3.28Z"/>
                <path class="cls-10" d="M201.51,43.63c0,.51.09,1.28.09,2.06-1.5.69-4.53,2-6.23,2.12,0-.48,0-1,0-1.55h0C195.5,46.22,200.84,45.12,201.51,43.63Z"/>
              </g>
            </g>
          </g>
          <g>
            <path class="cls-1" d="M217.34,3.39h-20a2,2,0,0,0-2,2V19.64a2,2,0,0,0,2,2h1.08v4.94l4.94-4.94h14a2,2,0,0,0,2-2V5.36A2,2,0,0,0,217.34,3.39Z"/>
            <g>
              <rect class="cls-2" x="198.15" y="6.2" width="18.38" height="1.63"/>
              <rect class="cls-2" x="198.15" y="9.86" width="18.38" height="1.63"/>
              <rect class="cls-2" x="198.15" y="13.51" width="18.38" height="1.63"/>
              <rect class="cls-2" x="198.15" y="17.17" width="9.88" height="1.63"/>
            </g>
          </g>
        </g>
        <g>
          <g>
            <path class="cls-3" d="M107.43,115.88H84.59A1.61,1.61,0,0,1,83,114.28h0a1.61,1.61,0,0,1,1.61-1.61h22.84a1.61,1.61,0,0,1,1.61,1.61h0A1.61,1.61,0,0,1,107.43,115.88Z"/>
            <g>
              <rect class="cls-10" x="94.43" y="118.41" width="3.1" height="15.68"/>
              <rect class="cls-8" x="93.63" y="115.88" width="4.75" height="6.11"/>
            </g>
            <g>
              <rect class="cls-3" x="86.64" y="133.36" width="18.74" height="1.97"/>
              <g>
                <circle class="cls-10" cx="87.69" cy="137.02" r="1.69"/>
                <circle class="cls-10" cx="104.32" cy="137.02" r="1.69"/>
              </g>
            </g>
          </g>
          <g>
            <path class="cls-6" d="M117.73,109.51c-.23-4.75-12.44-5.88-12.44-5.88l-9.79.06-9.78-.06s-12.22,1.13-12.44,5.88S79.49,139,79.49,139h5.32s.45-24.75-.9-25.66c0,0,6.56-.11,11.59-.54,5,.44,11.59.54,11.59.54-1.36.9-.91,25.66-.91,25.66h5.32S118,114.26,117.73,109.51Z"/>
            <g>
              <path class="cls-3" d="M84.19,139l-.12,1.44,0,.43-.12,1.53H75.54a.51.51,0,0,1-.33-.9l.38-.3a10.85,10.85,0,0,1,1.5-.87A25.58,25.58,0,0,1,80.62,139Z"/>
              <path class="cls-2" d="M84,140.88l-.12,1.53H75.54a.51.51,0,0,1-.33-.9l.38-.3A48.32,48.32,0,0,0,84,140.88Z"/>
            </g>
            <g>
              <path class="cls-3" d="M107.29,139l.12,1.44,0,.43.12,1.53h8.37a.51.51,0,0,0,.33-.9l-.38-.3a10.85,10.85,0,0,0-1.5-.87,25.58,25.58,0,0,0-3.52-1.34Z"/>
              <path class="cls-2" d="M107.44,140.88l.12,1.53h8.37a.51.51,0,0,0,.33-.9l-.38-.3A48.32,48.32,0,0,1,107.44,140.88Z"/>
            </g>
          </g>
        </g>
        <g>
          <path class="cls-1" d="M107.44,103.68l-.19.09a30.07,30.07,0,0,1-25.15.41s.6-8.93,2.42-19.59A146.27,146.27,0,0,1,87.7,70.11h0l.88-.32a18.51,18.51,0,0,1,11.61,0l1,.34A240.47,240.47,0,0,1,107.44,103.68Z"/>
          <g>
            <path class="cls-4" d="M87.71,70.11h0a146.27,146.27,0,0,0-3.17,14.48c-2,1.49-4.51,3.61-4.92,5.2-.23.88.71,1.61,2.08,2.2l-1.26,4.41H77.6s-6-1.82-5.61-6.73,9.66-15.5,11-17.36C83.63,71.4,85.74,70.64,87.71,70.11Z"/>
            <path class="cls-8" d="M89.39,96.41V93.87A36.13,36.13,0,0,1,81.69,92l-1.26,4.42Z"/>
          </g>
          <g>
            <path class="cls-4" d="M101.05,70.11h.11a145.58,145.58,0,0,1,3.07,14.48c2,1.49,4.51,3.61,4.92,5.2.23.88-.71,1.61-2.08,2.2l1.26,4.41h2.84s6-1.82,5.61-6.73-9.66-15.5-11-17.36C105.13,71.4,103,70.64,101.05,70.11Z"/>
            <path class="cls-8" d="M99.37,96.41V93.87a36.13,36.13,0,0,0,7.7-1.87l1.26,4.42Z"/>
          </g>
          <rect class="cls-3" x="83.71" y="80.95" width="23.58" height="15.46"/>
          <g>
            <path class="cls-8" d="M100.21,69.77a5.2,5.2,0,0,1-5.43,4.75,6.31,6.31,0,0,1-6.18-4.74c.36-.12.72-.23,1.09-.32a18.48,18.48,0,0,1,9.58,0C99.58,69.57,99.9,69.67,100.21,69.77Z"/>
            <g>
              <path class="cls-10" d="M99.27,69.49c-1.12,1.2-3,2.86-5.14,2.91-2.45.06-3.87-1.9-4.44-2.94A18.48,18.48,0,0,1,99.27,69.49Z"/>
              <g>
                <ellipse class="cls-8" cx="94.37" cy="63.98" rx="5.97" ry="7.54"/>
                <circle class="cls-8" cx="88.62" cy="65.39" r="1.78"/>
                <circle class="cls-8" cx="100.34" cy="65.39" r="1.78"/>
                <path class="cls-6" d="M101,63.74c-.08.57-1,.61-.9,1.16a3.91,3.91,0,0,0-.81-1.45A3,3,0,0,0,97,60.6a18,18,0,0,0-2.87,0,4.41,4.41,0,0,1-3-1.4A9.83,9.83,0,0,0,88.75,65a1.92,1.92,0,0,0-1.09-1.14S86.2,59,88.15,58c0,0-.82-2.4,2.4-2.86s8.85,1,9.78-1.07c0,0,1.3,3.45,0,4.27C100.34,58.38,101.71,58.35,101,63.74Z"/>
              </g>
            </g>
          </g>
        </g>
        <path class="cls-11" d="M34.7,63.36c.11-2.36,1.55-4.59,1.23-6.92-.56-4.2-6.62-6.85-10.36-5.65a5.31,5.31,0,0,0-3,2.62,10.16,10.16,0,0,0-2.35,4.21,15.37,15.37,0,0,0-.09,4.58,9.15,9.15,0,0,1-.07,1.54,6.38,6.38,0,0,1-.88,1.32c-.65.74-1.5,1.28-2.19,2a10.12,10.12,0,0,0-2,3.19,7.57,7.57,0,0,0-.67,5.22A7,7,0,0,0,18,79.15a16.31,16.31,0,0,0,9.73,1.69,9.7,9.7,0,0,0,5.58-2.47,8.87,8.87,0,0,0,2.37-5.48,20.2,20.2,0,0,0-.54-6A14,14,0,0,1,34.7,63.36Zm-14.12-.81c0-.71,0-1.43-.09-2.16A8.71,8.71,0,0,1,22,54.82l-.11.35C21.19,57.56,21.33,60.24,20.58,62.56Z"/>
        <g>
          <g>
            <path class="cls-8" d="M10.63,118.68c-4.91-.56-8.16-2.53-9.68-5.87-4.37-9.64,7.71-27.22,8.23-28l1.39,1c-.12.17-12.05,17.53-8.07,26.3,1.25,2.75,4,4.4,8.32,4.88Z"/>
            <path class="cls-3" d="M8.84,78H22.37a0,0,0,0,1,0,0V95.88a0,0,0,0,1,0,0H8.84a4.33,4.33,0,0,1-4.33-4.33v-9.2A4.33,4.33,0,0,1,8.84,78Z"/>
            <path class="cls-3" d="M29,119.58H6.11A1.61,1.61,0,0,1,4.51,118h0a1.61,1.61,0,0,1,1.61-1.61H29A1.61,1.61,0,0,1,30.56,118h0A1.61,1.61,0,0,1,29,119.58Z"/>
          </g>
          <g>
            <g>
              <path class="cls-6" d="M17.76,116.22s11.87.54,15.6,0L29.8,139h4.63s10-27.42,6.56-30.81-14.08-3-14.08-3l-9.84,5.06Z"/>
              <g>
                <path class="cls-3" d="M30.56,139l.12,1.44.16,2h8.37a.51.51,0,0,0,.33-.9,9.37,9.37,0,0,0-1.88-1.16A25.5,25.5,0,0,0,34.13,139Z"/>
                <path class="cls-8" d="M30.56,139l.12,1.44a6.45,6.45,0,0,0,1.74.62,13.6,13.6,0,0,0,2.95.22,2.69,2.69,0,0,0,2.28-.94A25.5,25.5,0,0,0,34.13,139Z"/>
              </g>
            </g>
            <path class="cls-4" d="M32.58,65.75s2.53,1.07,3.66,6,2,17,2,17l8.36,2.74.12,3.82-17,.84.45-14.75Z"/>
            <g>
              <g>
                <path class="cls-3" d="M54.19,132.71l.54,1.34.72,1.82,8-2.46a.51.51,0,0,0,.05-1,9.4,9.4,0,0,0-2.14-.55,25.48,25.48,0,0,0-3.76-.24Z"/>
                <path class="cls-8" d="M54.19,132.71l.54,1.34a6.47,6.47,0,0,0,1.85.08,13.65,13.65,0,0,0,2.88-.66,2.7,2.7,0,0,0,1.91-1.57,25.48,25.48,0,0,0-3.76-.24Z"/>
              </g>
              <path class="cls-12" d="M11.09,101s-3,12.53,4.29,14.84,27.73-6.58,27.73-6.58L53.4,132.94l5-1.36S52.49,101.42,48.65,101s-16.06,0-16.06,0Z"/>
            </g>
            <path class="cls-1" d="M32.58,101l-1.88.34-5.37,1L9.45,105.19s6.62-18.18,7-20.56a55.81,55.81,0,0,0,0-12.12c-.45-3.19,4.57-6.76,4.57-6.76H32.58l.09.11C38.63,72.83,32.58,101,32.58,101Z"/>
            <path class="cls-6" d="M30.7,101.34l-5.37,1c3.49-23.44-2.07-36.57-2.07-36.57h9.31l.09.11C36.11,70.24,31.57,96.51,30.7,101.34Z"/>
            <path class="cls-8" d="M23.27,65.75s3.34,5.14,7,4,2.36-4,2.36-4Z"/>
            <g>
              <path class="cls-8" d="M50.5,94.48c-.84-.74-2.53-2.82-3.85-3C46,91.42,42,93,42,93s-7-.31-13.43-.76l-.33,3.89c4.54-.07,9.73-.18,14-.34a15,15,0,0,0,8.06-.37A.58.58,0,0,0,50.5,94.48Z"/>
              <path class="cls-4" d="M21.09,65.75a11.26,11.26,0,0,0-7,8.65c-1.24,6.79-.57,22.62,1.47,23.75s14.25-.57,14.25-.57V92l-8.17-.45S26.29,69.88,21.09,65.75Z"/>
            </g>
          </g>
          <g>
            <rect class="cls-10" x="15.96" y="122.1" width="3.1" height="15.68"/>
            <rect class="cls-8" x="15.16" y="119.58" width="4.75" height="6.11"/>
          </g>
          <g>
            <rect class="cls-3" x="8.17" y="137.06" width="18.74" height="1.97"/>
            <g>
              <circle class="cls-10" cx="9.22" cy="140.72" r="1.69"/>
              <circle class="cls-10" cx="25.85" cy="140.72" r="1.69"/>
            </g>
          </g>
        </g>
        <g>
          <rect class="cls-11" x="31.38" y="96.41" width="113.17" height="2.48"/>
          <rect class="cls-7" x="34.52" y="98.89" width="106.89" height="2.78"/>
        </g>
        <g>
          <polygon class="cls-3" points="39.3 144.6 43.82 101.67 40.43 101.67 37.2 144.6 39.3 144.6"/>
          <polygon class="cls-3" points="138.73 144.6 135.5 101.67 132.11 101.67 136.63 144.6 138.73 144.6"/>
        </g>
        <g>
          <rect class="cls-3" x="36.84" y="94.74" width="13.31" height="1.67"/>
          <polygon class="cls-3" points="66.94 96.41 45.59 96.41 48.99 80.95 70.33 80.95 66.94 96.41"/>
        </g>
        <g>
          <path class="cls-8" d="M34.3,57.08s1.3,8.24-3.19,8.06S25,61.69,25.37,59.75s.7-5.78,4.56-6.17S34.3,57.08,34.3,57.08Z"/>
          <circle class="cls-8" cx="25.07" cy="61.34" r="1.49" transform="translate(-39.81 74.84) rotate(-79.52)"/>
          <path class="cls-11" d="M24.29,60.08a1.93,1.93,0,0,1,2,.36s5.6-1.3,5.54-4.31A3.09,3.09,0,0,1,34,56s-1-5-7.36-3.27-3,8.3-3,8.3A1.34,1.34,0,0,1,24.29,60.08Z"/>
          <path class="cls-8" d="M25.66,61.15l-.21,1.11s0,.2-.06.53-.1,1.07-.11,1.72a4,4,0,0,0,.45,2.44c.82.79,4,1,4.44.82.14-.06.23-.63.29-1.37,0-.4,0-.85.06-1.3h0c0-1.37,0-2.74,0-2.74Z"/>
          <path class="cls-10" d="M25.4,62.79c0,.43-.1,1.07-.11,1.72a19.83,19.83,0,0,0,5.17,1.88c0-.4,0-.85.06-1.3h0C30.37,65.06,25.93,64,25.4,62.79Z"/>
        </g>
        <g>
          <path class="cls-6" d="M55.24,26.53h-20a2,2,0,0,0-2,2V42.78a2,2,0,0,0,2,2h1.08v4.94l4.94-4.94h14a2,2,0,0,0,2-2V28.5A2,2,0,0,0,55.24,26.53Z"/>
          <polygon class="cls-2" points="54.44 30.7 49.23 32.17 50.68 33.59 47.98 36.37 42.56 32.41 36.35 38.96 37.33 39.89 42.73 34.21 48.13 38.16 51.65 34.54 53.11 35.95 54.44 30.7"/>
        </g>
        <g>
          <circle class="cls-2" cx="71.97" cy="9.86" r="9.86"/>
          <path class="cls-6" d="M72,18.36a8.65,8.65,0,0,1-1-.06l.08-.67a7.91,7.91,0,0,0,1.88,0l.08.67A8.65,8.65,0,0,1,72,18.36Zm-3-.55a8.43,8.43,0,0,1-1.81-1l.38-.56a7.8,7.8,0,0,0,1.67.87Zm6,0-.24-.63a7.79,7.79,0,0,0,1.67-.88l.39.56A8.47,8.47,0,0,1,75,17.81Zm-9.37-2.3a8.56,8.56,0,0,1-1.17-1.68l.6-.32a7.82,7.82,0,0,0,1.07,1.55Zm12.72,0L77.83,15a7.8,7.8,0,0,0,1.07-1.55l.6.32A8.51,8.51,0,0,1,78.33,15.49ZM63.72,11.91a8.56,8.56,0,0,1-.25-2h.68a7.86,7.86,0,0,0,.23,1.87Zm16.5,0-.66-.16a7.85,7.85,0,0,0,.23-1.87l.68,0v0A8.55,8.55,0,0,1,80.23,11.89ZM64.37,8l-.66-.16a8.46,8.46,0,0,1,.72-1.92l.6.31A7.79,7.79,0,0,0,64.37,8ZM79.56,8a7.75,7.75,0,0,0-.67-1.76l.6-.32a8.42,8.42,0,0,1,.73,1.91ZM66.1,4.69l-.51-.45a8.58,8.58,0,0,1,1.53-1.36l.39.56A7.89,7.89,0,0,0,66.1,4.69Zm11.7,0a7.89,7.89,0,0,0-1.41-1.25l.38-.56A8.56,8.56,0,0,1,78.31,4.2Zm-8.63-2.1-.24-.63a8.46,8.46,0,0,1,2-.49L71,2.1A7.83,7.83,0,0,0,69.18,2.55Zm5.54,0a7.78,7.78,0,0,0-1.83-.44L73,1.42a8.48,8.48,0,0,1,2,.48Z"/>
          <polygon class="cls-6" points="74.13 14.36 71.3 11.54 71.3 4.65 72.66 4.65 72.66 10.98 75.09 13.4 74.13 14.36"/>
        </g>
      </g>
    </g>
  </g>
</svg>
