<svg xmlns="http://www.w3.org/2000/svg" viewBox="0 0 237.27 205.82">
  <defs>
    <style>
      .cls-1 {
        fill: #fff3e1;
      }

      .cls-2 {
        fill: #fca286;
      }

      .cls-2, .cls-35 {
        opacity: 0.3;
      }

      .cls-3 {
        fill: #ffc550;
      }

      .cls-4 {
        fill: #f25f46;
      }

      .cls-5 {
        fill: #f7882d;
      }

      .cls-6 {
        fill: #d1d9fe;
      }

      .cls-30, .cls-7 {
        fill: #ffdea9;
      }

      .cls-35, .cls-8 {
        fill: #fff;
      }

      .cls-9 {
        fill: #e2ebf4;
      }

      .cls-10 {
        fill: #e7eafe;
      }

      .cls-11 {
        fill: #dd7a7d;
      }

      .cls-12 {
        fill: #d2dcf7;
      }

      .cls-13 {
        fill: #d6ddea;
      }

      .cls-14 {
        fill: #d84835;
      }

      .cls-15 {
        fill: #ffaf84;
      }

      .cls-16 {
        fill: #293549;
      }

      .cls-17 {
        fill: #ed8c62;
      }

      .cls-18 {
        fill: #457bf4;
      }

      .cls-19 {
        fill: #b6d0ff;
      }

      .cls-20 {
        fill: #3972d8;
      }

      .cls-21 {
        fill: #f78834;
      }

      .cls-22 {
        fill: #687c99;
      }

      .cls-23 {
        fill: #cc5605;
      }

      .cls-24 {
        fill: #f7f7f7;
      }

      .cls-25 {
        fill: #fcd592;
      }

      .cls-26 {
        fill: #f4b038;
      }

      .cls-27 {
        fill: #e24530;
      }

      .cls-28 {
        fill: #5252ff;
      }

      .cls-29 {
        fill: #efa21b;
      }

      .cls-30 {
        opacity: 0.7;
      }

      .cls-31 {
        fill: #e2e2e2;
      }

      .cls-32 {
        fill: #f78879;
      }

      .cls-33 {
        fill: #efa46c;
      }

      .cls-34 {
        fill: #bfe2ef;
        opacity: 0.4;
      }
    </style>
  </defs>
  <title>data-analysis</title>
  <g id="Layer_2" data-name="Layer 2">
    <g id="Objects">
      <g>
        <path class="cls-1" d="M19.33,146.25c0,28.62,21,42.72,48.37,42.72s52.13-20.14,52.13-48.76-30.7-55-57-47.42C33.89,101.14,19.33,117.62,19.33,146.25Z"/>
        <path class="cls-2" d="M103.52,17.24c-3.92,0-5.85-4.32-7.72-8.5S92.15.58,88.61.58s-5.32,4-7.19,8.16-3.81,8.5-7.72,8.5S67.84,12.92,66,8.74,62.32.58,58.78.58s-5.32,4-7.19,8.16-3.8,8.5-7.72,8.5S38,12.92,36.14,8.74,32.49.58,29,.58A.29.29,0,0,1,29,0c3.91,0,5.85,4.32,7.72,8.5s3.65,8.16,7.19,8.16,5.32-4,7.19-8.16S54.86,0,58.78,0s5.85,4.32,7.72,8.5,3.65,8.16,7.19,8.16,5.32-4,7.2-8.16S84.69,0,88.61,0s5.85,4.32,7.72,8.5,3.65,8.16,7.19,8.16a.29.29,0,0,1,0,.58Z"/>
        <path class="cls-3" d="M2.09,116.81a29.47,29.47,0,0,1,21.1-39.72l3.14,14.34a14.81,14.81,0,0,0-11.64,14.46,14.65,14.65,0,0,0,1.05,5.48Z"/>
        <path class="cls-4" d="M49,128.72a29.43,29.43,0,0,1-20.85,8.64,29.8,29.8,0,0,1-4-.27,29.39,29.39,0,0,1-16.86-8.37c-.23-.23-.45-.47-.67-.71l10.72-10A14.8,14.8,0,1,0,34.66,94.6l6.5-13.17A29.19,29.19,0,0,1,49,87,29.5,29.5,0,0,1,49,128.72Z"/>
        <path class="cls-5" d="M41.16,81.43,34.66,94.6a14.64,14.64,0,0,0-6.54-1.53,14.81,14.81,0,0,0-3.16.34L21.82,79.07c.76-.17,1.53-.31,2.3-.41a28.61,28.61,0,0,1,4-.28,29.34,29.34,0,0,1,8.3,1.2A28.69,28.69,0,0,1,41.16,81.43Z"/>
        <path class="cls-6" d="M6.59,130.75a29.06,29.06,0,0,1-5.87-9.22l13.65-5.44a14.64,14.64,0,0,0,2.94,4.63Z"/>
        <path class="cls-7" d="M191.66,80.43a287.23,287.23,0,0,0-125.43,0,4.49,4.49,0,0,1-5.36-3.27L47.87,23c-.57-2.36,1.34-4.85,4.29-5.5a351.72,351.72,0,0,1,153.59,0c2.94.66,4.86,3.15,4.29,5.5L197,77.17a4.49,4.49,0,0,1-5.36,3.27"/>
        <path class="cls-8" d="M64.7,73.81,53.57,24.14a2.74,2.74,0,0,1,2.39-3,347.35,347.35,0,0,1,145.95,0,2.74,2.74,0,0,1,2.39,3L193.19,73.81a2.5,2.5,0,0,1-3,1.85,291.56,291.56,0,0,0-122.51,0,2.5,2.5,0,0,1-3-1.85"/>
        <path class="cls-4" d="M142.42,25.39l-1.61,40.14-1,0q.74-20.07,1.47-40.15l1.17,0"/>
        <path class="cls-9" d="M69.63,53.37,73,70.65l-1,.2-3.4-17.27Z"/>
        <path class="cls-9" d="M93.93,53.76,95.46,67.2l-1,.12L92.86,53.89l1.07-.12"/>
        <path class="cls-9" d="M117.07,37.2l1,28.3-1,0q-.57-14.15-1.14-28.3Z"/>
        <path class="cls-9" d="M167.23,35.15l-3.78,32.17-1-.12L166.09,35Z"/>
        <path class="cls-9" d="M190.15,49.41l-4.22,21.44-1-.2,4.14-21.46,1.09.21"/>
        <path class="cls-10" d="M188,60.58l-.06.29.06-.29h0M66.8,36.15a9.81,9.81,0,0,0-1.89.19l.19,1a8.53,8.53,0,0,1,1.64-.16c5.09,0,8.74,4.83,12.39,9.93C83,52.44,86.7,58,92.31,58a8.83,8.83,0,0,0,1-.06l-.12-1a7.77,7.77,0,0,1-.89.05c-5,0-8.44-5.1-12.25-10.45-3.63-5.12-7.59-10.38-13.28-10.38m99.33-3.91c-6.1,0-9.79,5.8-13.14,11.42-3.46,5.78-6.52,11.26-11.77,11.4q0,.5,0,1C147.1,56,150.48,50,154,44.15c3.37-5.61,6.76-10.9,12.19-10.9a8.73,8.73,0,0,1,1,.06c6,.71,8.24,7,10.34,13.59,2,6.26,3.87,12.67,9.21,14.4l.19-1c-4.69-1.61-6.36-7.46-8.34-13.65-2.09-6.63-4.51-13.53-11.3-14.34a10.09,10.09,0,0,0-1.15-.07m-49.77-1.92H116c-6.82.28-9.75,7-12.34,13.43-2.44,6-4.56,11.74-9.36,13l.11,1c5.47-1.29,7.81-7.56,10.29-13.65,2.6-6.42,5.29-12.51,11.34-12.76h.34c5.83,0,8.92,5.75,12,11.83S134.25,55.46,140.12,56q0-.5,0-1c-5.2-.56-7.83-6.25-10.83-12.27s-6.4-12.43-13-12.43"/>
        <path class="cls-11" d="M140.16,55q0,.5,0,1l.54,0h.52q0-.5,0-1h-.52l-.54,0"/>
        <path class="cls-12" d="M94.27,56.74a7.71,7.71,0,0,1-1,.19h0l.12,1h0a8.86,8.86,0,0,0,1-.18l-.11-1"/>
        <path class="cls-12" d="M186.92,60.31l-.19,1a8.85,8.85,0,0,0,1,.27l.14-.69.06-.29a7.7,7.7,0,0,1-1-.28"/>
        <ellipse class="cls-3" cx="64.49" cy="25.11" rx="1.5" ry="1.45" transform="translate(-3.58 12.61) rotate(-10.87)"/>
        <ellipse class="cls-3" cx="70.04" cy="24.09" rx="1.5" ry="1.45" transform="translate(-3.1 12.42) rotate(-9.92)"/>
        <ellipse class="cls-3" cx="75.6" cy="23.16" rx="1.5" ry="1.45" transform="translate(-2.69 12.09) rotate(-8.98)"/>
        <g>
          <g>
            <polygon class="cls-13" points="64.97 199.06 65.52 190.69 69.4 191.1 67.97 199.65 64.97 199.06"/>
            <path class="cls-14" d="M68.29,197.64a1.34,1.34,0,0,1,.67.28,18.1,18.1,0,0,0,4.13,2.79c2,.76,3.16,2,0,2s-4-.1-5-.12c-1.38,0-.76.12-4.22.12-1.7,0-.9-3.2,0-4.75.28-.47.38-.86.95-.78Z"/>
          </g>
          <g>
            <polygon class="cls-13" points="75 199.06 76.76 190.9 80.64 191.31 78 199.65 75 199.06"/>
            <path class="cls-4" d="M78.54,197.64a1.34,1.34,0,0,1,.67.28,21.46,21.46,0,0,0,7.39,3.35c2.21.32,2.32,1.41-.79,1.41s-5.38-.28-6.77-.24-1.91.24-5.32.24c-2.61,0-.91-3.33,0-4.88a1.41,1.41,0,0,1,1.41-.64Z"/>
          </g>
          <path class="cls-15" d="M115.45,51.48a24.82,24.82,0,0,1-3,1.91,4.64,4.64,0,0,0-1.84.74c-.69.46-4,2.81-4.93,5.8-.44.94-.89,1.88-1.36,2.8l-.3.6-.28.55c-.47.89-.93,1.75-1.39,2.56-1.75,3.14-3.34,5.52-4.08,6-2.7,1.36-10.84.45-15.75-.64a2.77,2.77,0,0,0-1.19,5.41,61.78,61.78,0,0,0,12.1,1.46,17,17,0,0,0,7.33-1.29c2-1,3.89-5.08,5.31-8.81.32-.82.61-1.63.87-2.38l.56-1.59s0-.08,0-.12c.28-.87.53-1.58.7-2.06.35-1,.56-1.37.88-2.1s3.32-.74,4.55-1.57,1.13-3,.61-4.45a1.44,1.44,0,0,0-.15-.26l.71-.46C116.61,52.38,118.07,49.45,115.45,51.48Z"/>
          <path class="cls-15" d="M83.67,57.38A10,10,0,0,0,73.65,47a10.4,10.4,0,0,0-10.4,10.4c0,4,2.13,8.39,5.43,10.14a13.16,13.16,0,0,0,1.72,7.88c1.69,2.68,2,3.22,2,3.27a3.27,3.27,0,0,0,5.62-3.35s-.27-.45-2.13-3.4a5.37,5.37,0,0,1-.74-3.34C81.82,69.88,83.67,62.55,83.67,57.38Z"/>
          <path class="cls-16" d="M65.87,133a33.9,33.9,0,0,1-1-17.13H88.14a103.66,103.66,0,0,1,.09,14.59Z"/>
          <path class="cls-16" d="M70,124.62h-.08c-2.53,0-5.54,0-4.65,5.57,0,.22,1.07,22.65.31,32.07-.71,8.89-1.35,33.53-1.37,33.8h5.17c0-.27,4.76-24.23,5.47-33.06.78-9.71,1.4-31.75,1.42-32.66C76.29,127.77,72.54,124.67,70,124.62Z"/>
          <path class="cls-16" d="M88.25,129.39c-.18-2.56-2.7-3.95-5.26-3.75s-7.72,2.21-7.54,4.77c0,.19,4.55,19.63,4.72,28.4.15,7.77-.45,14.26-5.66,37.33l5.07.34c1.14-3,10.1-26.92,9.89-37.85C89.3,149.63,88.3,130.19,88.25,129.39Z"/>
          <path class="cls-15" d="M66.6,74.55S62.81,92.63,62.1,96a3.14,3.14,0,0,1-2.43,2.48,3.41,3.41,0,0,1-.82.11c-1.1,0-2.2-1.68-5.52-6.6L53,91.49l-1.24-1.84-.35-.51c-.77-1.12-1.64-2.37-2.6-3.75-1,.34-3.81,1.89-4.94,1.89-1.53,0-3.41-.15-2.81-1.56a5.52,5.52,0,0,1,3.57-2.91,17.16,17.16,0,0,0,2.74-.94.74.74,0,0,0,.13-.06l.26-.11a2.43,2.43,0,0,1,.25-.09l.26-.06.28,0h.25l.28,0,.24,0,.27.07a1,1,0,0,1,.24.09,1.13,1.13,0,0,1,.25.12l.22.13a1.89,1.89,0,0,1,.22.17,1.13,1.13,0,0,1,.2.18l.19.21.09.11c1.07,1.47,2.25,3,3.41,4.5l.39.49c.48.6,1,1.18,1.4,1.72l.37.45c.33.39.64.75.94,1.08.18-.86.38-1.8.58-2.78l.09-.41c1.32-6.32,3-14.28,3-14.28Z"/>
          <path class="cls-17" d="M56.58,89.81,53.33,92,53,91.49l-1.24-1.84-.35-.51,3-2,.39.49c.48.6,1,1.18,1.4,1.72Z"/>
          <path class="cls-18" d="M103.06,64.1C99.72,70.5,98.22,71.84,98,72c-2.49,1.18-8.42.68-13.15-.28a13.38,13.38,0,0,0-2.54-.56H63A2.3,2.3,0,0,0,60.8,73h0s-2.16,10.29-3.55,16.88l-1.11-1.33-5.08,4.07C54.93,97.33,56.93,99,58.92,99h0a4.23,4.23,0,0,0,.92-.11,3.54,3.54,0,0,0,1-.42,3.67,3.67,0,0,0,1.69-2.42l.8-3.81c1.06,9,2.7,10.79,1.48,23.58H88.14s-.89-23.75-2.53-36.46a37.55,37.55,0,0,0,8.53.18A18.4,18.4,0,0,0,101,77.8c.94-.47,2.1-1,6.9-10.23Z"/>
          <path class="cls-19" d="M56.13,88.51l-5.08,4.07-.81-1,5.08-4.06Z"/>
          <path class="cls-17" d="M107.54,64.46s0,.08,0,.12l-.56,1.59-3.2-2.3.28-.55.3-.6Z"/>
          <path class="cls-19" d="M108.43,66.53c-.18.36-.36.7-.54,1l-4.82-3.47.54-1Z"/>
          <path class="cls-20" d="M63.38,92.28l-.81,3.79a3.67,3.67,0,0,1-1.69,2.42l1.17-16.34C62.5,85.26,63,88.73,63.38,92.28Z"/>
          <path class="cls-21" d="M84.05,45.39s-.18,1.59-3.84-.06c-6.88-3.1-13.89-1.46-15.81,0s-2.13,2.91-1.55,4.1a7.15,7.15,0,0,0-2.53,4.63C60.28,60,64,66,68.07,66c6.48,0,9.33-7.89,9-12.43,0-.4-.07-.81-.11-1.22l.62.12C85.15,53.89,84.05,45.39,84.05,45.39Z"/>
          <path class="cls-15" d="M73.48,57.87a3.55,3.55,0,0,0,1.26,2.72A1.41,1.41,0,0,0,77,59.48V56.26a1.41,1.41,0,0,0-2.29-1.11A3.55,3.55,0,0,0,73.48,57.87Z"/>
          <g>
            <path class="cls-22" d="M78.62,195.68l-.48-.15c.08-.25,7.27-23.35,8.13-27a47.44,47.44,0,0,0,1.43-11.16c-.12-3.17-1.86-28.66-1.87-28.92.33-3.08.5-13.08.5-13.18h.5c0,.1-.17,10.12-.5,13.18,0,.21,1.75,25.72,1.88,28.89a47.88,47.88,0,0,1-1.44,11.3C85.89,172.31,78.7,195.42,78.62,195.68Z"/>
            <rect class="cls-22" x="64.07" y="117.93" width="7.79" height="0.5"/>
          </g>
        </g>
        <g id="_grupa_" data-name="&lt;grupa&gt;">
          <g>
            <g>
              <path class="cls-23" d="M150.51,121h27.75a1.19,1.19,0,0,0,1.17-1.63l-4.65-16.47a2.31,2.31,0,0,0-2.08-1.63H145a1.19,1.19,0,0,0-1.17,1.63l4.64,16.47A2.32,2.32,0,0,0,150.51,121Z"/>
              <path class="cls-21" d="M151.12,121h27.75a1.19,1.19,0,0,0,1.17-1.63l-4.64-16.47a2.32,2.32,0,0,0-2.09-1.63H145.56a1.19,1.19,0,0,0-1.17,1.63L149,119.38A2.31,2.31,0,0,0,151.12,121Z"/>
            </g>
            <path class="cls-24" d="M151,117l-3-10.81a1.83,1.83,0,0,1,1.76-2.33h21.87a1.83,1.83,0,0,1,1.76,1.33l3,10.81a1.83,1.83,0,0,1-1.76,2.33H152.8A1.83,1.83,0,0,1,151,117Z"/>
          </g>
          <g>
            <path class="cls-23" d="M149.32,121.31a.86.86,0,0,0,.8.55h29.3a.86.86,0,0,0,.8-.55A.23.23,0,0,0,180,121H149.53A.23.23,0,0,0,149.32,121.31Z"/>
            <path class="cls-25" d="M156.93,121.31a.85.85,0,0,0,.8.55H187a.86.86,0,0,0,.8-.55.23.23,0,0,0-.21-.31H157.15A.23.23,0,0,0,156.93,121.31Z"/>
            <path class="cls-1" d="M169.6,121v.14a.29.29,0,0,0,.29.29h5a.29.29,0,0,0,.29-.29V121Z"/>
          </g>
        </g>
        <g>
          <path class="cls-26" d="M195.56,124.57a4.65,4.65,0,0,0-5.28-3.93c-2.73.4-26.8,4.37-30.41,20-2.2,9.54,4.29,26.07,9.38,39.32l4.42-1.31c-3.68-11.3-5.92-30.74-4.73-35.92,1.86-8,17.4-12.11,22.7-12.9A4.65,4.65,0,0,0,195.56,124.57Z"/>
          <path class="cls-15" d="M197.46,55.15a1.33,1.33,0,0,0-.17-.1c-1.08-4.59-5.19-9.2-10.11-9.2s-8.91,4.51-10.06,9a1.31,1.31,0,0,0-.86.31,3.56,3.56,0,0,0,0,5.44,1.33,1.33,0,0,0,1.12.3c.94,2.79,3.87,7.21,8.27,7.53A6.24,6.24,0,0,1,184.9,72c-1.86,3-2.13,3.41-2.13,3.41a3.27,3.27,0,0,0,5.62,3.35c0-.06.37-.6,2-3.27a13.86,13.86,0,0,0,1.73-8.11c2.31-1.22,4-4,4.83-6.51a1.33,1.33,0,0,0,.46-.25,3.56,3.56,0,0,0,0-5.44Z"/>
          <path class="cls-3" d="M195,131s2.84-5.2,1-15.16H172.7s-.33,7.58.2,15.16Z"/>
          <path class="cls-3" d="M177.53,121.9c-4.18,0-7.92,0-11.24-.06-17.19-.13-22.37-.17-24.82,4.25-.85,1.53-1.4,4.06.74,7.41,5.42,8.47,24.17,21.74,26.19,23.38l3.46-4.33c-4.49-3.63-14.22-14.81-19.72-21.3,3.42-.18,8.65-.14,14.07-.09,3.34,0,7.1.05,11.31.05a4.65,4.65,0,0,0,0-9.31Z"/>
          <path class="cls-15" d="M212.23,93.91c0-2.14-2.25-6.46-5.08-11-2.3-3.64-5-7.39-7-10.18A2.77,2.77,0,0,0,195.7,76c2.42,3.31,5,7,7,10.24a38.88,38.88,0,0,1,4,7.34c-1,2-7.16,8.21-12.51,13a2.61,2.61,0,0,0-.22.24l-.12.13a2.57,2.57,0,0,0-.22.35l-.07.11a2.71,2.71,0,0,0-.15.39l0,.11a2.61,2.61,0,0,0-.07.4s0,.08,0,.13a2.81,2.81,0,0,0,0,.37c0,.05,0,.11,0,.16a2.62,2.62,0,0,0,.07.34c0,.06,0,.12,0,.18a2.8,2.8,0,0,0,.13.32c0,.06.05.12.08.18a2.88,2.88,0,0,0,.2.3s.06.1.1.14l0,0,0,0h0a12.06,12.06,0,0,0,4.55,3.32,2.75,2.75,0,0,0,.91.15c1.15,0,1.71-1.74,2.1-2.88.5-1.44-1.51-2.75-3-3.25l-.11,0C206.39,101.73,212.23,97.1,212.23,93.91Z"/>
          <path class="cls-17" d="M207.15,82.95l-3,2.25-1.44,1.07c-2-3.21-4.54-6.93-7-10.24a2.77,2.77,0,0,1,4.47-3.26C202.2,75.56,204.85,79.31,207.15,82.95Z"/>
          <path class="cls-4" d="M207.29,81.9,204,84l-2.84,1.77-.48-.77-1.43-2.31c-1-1.64-1.93-3.09-2.61-4.14s-1.1-1.71-1.11-1.72a3.61,3.61,0,0,1,2.43-5.55,3.23,3.23,0,0,1,.82,0,3.6,3.6,0,0,1,2.82,1.63c.07.1,1.74,2.66,3.81,6l1.43,2.3Z"/>
          <path class="cls-27" d="M204,84l-2.84,1.77-.48-.77-1.43-2.31c-1-1.64-1.93-3.09-2.61-4.14s-1.1-1.71-1.11-1.72a3.61,3.61,0,0,1,2.43-5.55,3.23,3.23,0,0,1,.82,0,5.1,5.1,0,0,1,1.33,2c.07.17,1.58,4.19,3.4,9.4Z"/>
          <path class="cls-4" d="M200.07,73.88c-1.61,9.28-4.78,32.59-4.09,42H172.7s.25-6.27.72-14.12c.61-10.44,1.6-23.65,2.84-28.64,0-.07,0-.14,0-.2a2.28,2.28,0,0,1,2.22-1.7H197.8A2.29,2.29,0,0,1,200.07,73.88Z"/>
          <path class="cls-28" d="M192.75,48.52c-2.2,2.84-15.21,4.6-15.21-1.8a2.52,2.52,0,0,1,.9-2s.11,1,.58,1.24a18.06,18.06,0,0,1,4.45-1.76s-.43,1,1.22.75C189.46,44.32,196.4,43.8,192.75,48.52Z"/>
          <path class="cls-27" d="M182.11,77.78s-.14.9-.34,2.3-.48,3.36-.76,5.52l-.41,3.07-7.18,13.06c.61-10.44,1.6-23.65,2.84-28.64a2.83,2.83,0,0,1,.93-.48,3.11,3.11,0,0,1,1.91,0,4.45,4.45,0,0,1,2.83,3A4.77,4.77,0,0,1,182.11,77.78Z"/>
          <path class="cls-28" d="M183.69,46.58c-2.38.63-4.43,4.79-4.64,7.25-.4,4.55,3,11.66,10.1,11.66,8.44,0,9.25-9,8.84-11.26s-1.8-7.31-5.42-7.76C190.39,46.19,186.24,45.91,183.69,46.58Z"/>
          <path class="cls-15" d="M180,72.34s0,0,0,0a3,3,0,0,0-.82-.3,3.63,3.63,0,0,0-3.44,1.06s0,0,0,0a3,3,0,0,0-.24.68c-.1.44-1.26,5.71-2.48,11.59-1.28,6.06-2.65,12.76-3.05,15.48-.83,5.67-9.7,10.23-13,11.51l-.15.07a2,2,0,0,0-.58.35l-.15.11,0,0,0,0c-.71.66-3.5,3.46-3.15,6.88.14,1.43.17,1.8,1.52,2.2a7,7,0,0,0,2.11.21c1.53,0,2.4-.44,2.25-2,0-.39-.76-4-.12-4.71,7.89-3.34,15.52-4.8,16.87-13.91.36-2.45,1.59-8.51,2.78-14.24,1.34-6.38,2.64-12.34,2.67-12.46A2.77,2.77,0,0,0,180,72.34Z"/>
          <path class="cls-17" d="M180.89,75c0,.12-1.33,6.08-2.67,12.46l-5.21-2c1.22-5.88,2.38-11.15,2.48-11.59a3,3,0,0,1,.24-.68s0,0,0,0A3.63,3.63,0,0,1,179.2,72a3,3,0,0,1,.82.3s0,0,0,0A2.77,2.77,0,0,1,180.89,75Z"/>
          <path class="cls-4" d="M172.7,84.52l7.11,1.42.18-.88.54-2.67c.38-1.88.74-3.57,1-4.79s.43-2,.43-2a3.56,3.56,0,0,0-.08-1.88,3.62,3.62,0,0,0-2.66-2.45,3.57,3.57,0,0,0-1.88.08A3.62,3.62,0,0,0,174.88,74c0,.12-.69,3.1-1.46,7l-.54,2.67Z"/>
          <g>
            <rect class="cls-29" x="188.8" y="118.47" width="7.79" height="0.5"/>
            <path class="cls-29" d="M167.9,155c-8.35-6.14-18.25-15.7-22.56-21.77-1.46-2.06-1.83-3.84-1.09-5.27,1.12-2.16,4.67-3.35,10-3.35l8.1,0,9.21,0c4.25,0,4.25-2,4.25-2.75v-6.31h.5v6.31c0,2.16-1.6,3.25-4.75,3.25l-9.21,0-8.1,0c-5.07,0-8.56,1.12-9.57,3.08-.65,1.25-.29,2.85,1.05,4.75,4.28,6,14.13,15.54,22.45,21.65Z"/>
          </g>
          <path class="cls-16" d="M167.42,154.7a1.36,1.36,0,0,0-.48.55,21.43,21.43,0,0,1-5.16,6.26c-1.84,1.26-1.46,2.29,1.33.92s4.71-2.62,6-3.19,1.83-.62,4.88-2.12c2.35-1.15-.65-3.39-2.17-4.37a1.41,1.41,0,0,0-1.55,0Z"/>
          <path class="cls-16" d="M169.4,178.82a1.34,1.34,0,0,0-.24.69c-.07,1.71-1,5.58-3,6.89-1.88,1.2-1.28,2.12,1.57.9,2.55-1.08,3.94-3.88,4.89-4.88s1.46-1.26,3.74-3.79c1.75-1.94-1.87-2.91-3.64-3.25a1.41,1.41,0,0,0-1.43.62Z"/>
        </g>
        <g>
          <rect class="cls-18" x="171.87" y="130.75" width="24.73" height="71.93"/>
          <rect class="cls-30" x="206.13" y="185.64" width="24.73" height="17.04"/>
          <rect class="cls-30" x="137.61" y="172.98" width="24.73" height="29.71"/>
          <rect class="cls-30" x="103.5" y="154.64" width="24.73" height="48.04"/>
          <path class="cls-31" d="M52,205.82H235.7a1.57,1.57,0,0,0,1.57-1.57h0a1.57,1.57,0,0,0-1.57-1.57H52a1.57,1.57,0,0,0-1.57,1.57h0A1.57,1.57,0,0,0,52,205.82Z"/>
        </g>
        <g>
          <rect class="cls-7" x="108.35" y="97.26" width="13.48" height="4.17"/>
          <rect class="cls-9" x="105.52" y="91.1" width="1.45" height="36.33"/>
          <rect class="cls-7" x="108.35" y="103.26" width="8.23" height="4.17"/>
          <rect class="cls-7" x="118.52" y="103.26" width="11.3" height="4.17"/>
          <rect class="cls-7" x="108.35" y="109.26" width="5.35" height="4.17"/>
          <rect class="cls-7" x="108.35" y="121.26" width="5.75" height="4.17"/>
          <rect class="cls-7" x="117.68" y="121.26" width="13.77" height="4.17"/>
        </g>
        <g>
          <rect class="cls-7" x="10.9" y="35.81" width="24.74" height="4.17"/>
          <rect class="cls-9" x="8.07" y="35.81" width="1.45" height="36.33"/>
          <rect class="cls-7" x="10.9" y="41.81" width="28.33" height="4.17"/>
          <rect class="cls-7" x="10.9" y="47.81" width="18.66" height="4.17"/>
          <rect class="cls-7" x="10.9" y="59.81" width="3.56" height="4.17"/>
          <rect class="cls-7" x="16.68" y="59.81" width="8.52" height="4.17"/>
        </g>
        <g>
          <rect class="cls-32" x="199.25" y="30.36" width="3.04" height="5.54" transform="translate(35.37 151.65) rotate(-44.99)"/>
          <path class="cls-33" d="M215.52,47.88h0a2.68,2.68,0,0,1-3.87-.08L200.37,35.52l2.79-2.79L215.43,44A2.68,2.68,0,0,1,215.52,47.88Z"/>
          <path class="cls-34" d="M202.77,21.6a13.54,13.54,0,0,1-22,10.54,13.19,13.19,0,0,1-2.21-2.25,13.71,13.71,0,0,1-1.08-1.62,13.43,13.43,0,0,1-1.72-5.61c0-.35,0-.7,0-1.06A13.55,13.55,0,0,1,189.23,8c.36,0,.72,0,1.07,0a13.39,13.39,0,0,1,5.6,1.72,13.69,13.69,0,0,1,1.62,1.08,13.21,13.21,0,0,1,2.25,2.21A13.5,13.5,0,0,1,202.77,21.6Z"/>
          <path class="cls-35" d="M195.91,9.81,177.44,28.27a13.43,13.43,0,0,1-1.72-5.61L190.3,8.09A13.39,13.39,0,0,1,195.91,9.81Z"/>
          <path class="cls-35" d="M199.77,13.1l-19,19a13.19,13.19,0,0,1-2.21-2.25l19-19A13.21,13.21,0,0,1,199.77,13.1Z"/>
          <path class="cls-25" d="M189.23,36.63A15,15,0,1,1,199.87,11h0a15,15,0,0,1-10.64,25.68Zm0-27.08a12,12,0,1,0,8.51,3.53h0A12,12,0,0,0,189.23,9.55Z"/>
        </g>
      </g>
    </g>
  </g>
</svg>
