<svg xmlns="http://www.w3.org/2000/svg" viewBox="0 0 19.7 19.7"><g id="Layer_2" data-name="Layer 2"><path d="M9.85 0c-3.51 0-7 .63-8.3 1.88A6.89 6.89 0 0 0 0 5.91v.17a.82.82 0 0 0 .82.82L4 6.64h.09a.82.82 0 0 0 .8-.82V4.19a.9.9 0 0 1 .91-.9h8a.9.9 0 0 1 .91.9V5.8a.82.82 0 0 0 .8.82h.08l3.22.26a.82.82 0 0 0 .82-.82 1.63 1.63 0 0 0 0-.17 6.9 6.9 0 0 0-1.53-4C16.87.63 13.36 0 9.85 0zm0 10.67a1.64 1.64 0 1 0 1.64 1.64 1.64 1.64 0 0 0-1.64-1.64zM8.62 7V6a1 1 0 1 0-2 0v1L1 12.89a2.06 2.06 0 0 0-.62 1.47V16a1.64 1.64 0 0 0 1.64 1.64h.41v1a1 1 0 1 0 2.05 0v-1h10.7v1a1 1 0 0 0 2.05 0v-1h.41A1.64 1.64 0 0 0 19.28 16v-1.64a2.05 2.05 0 0 0-.62-1.47L13.13 7V6a1 1 0 1 0-2.05 0v1zm1.23 2a3.28 3.28 0 1 1-3.28 3.28A3.28 3.28 0 0 1 9.85 9z" fill="#d22856" id="Layer_1-2" data-name="Layer 1"/></g></svg>