<svg xmlns="http://www.w3.org/2000/svg" viewBox="0 0 60 72.43"><g id="Layer_2" data-name="Layer 2"><g id="Layer_1-2" data-name="Layer 1"><path d="M51.21 8.79a30 30 0 0 0-42.43 0 30 30 0 0 0 0 42.43L30 72.43l21.21-21.22a30 30 0 0 0 0-42.42z" fill="#d22856"/><circle cx="30" cy="30" r="19.9" fill="#fa496e"/><path d="M18.6 30a19.91 19.91 0 0 1 15.65-19.44 19.9 19.9 0 1 0 0 38.88A19.9 19.9 0 0 1 18.6 30z" fill="#e23760"/><path d="M49.9 30H10.1a19.87 19.87 0 0 1 1.13-6.63h37.54A19.88 19.88 0 0 1 49.9 30z" fill="#fd0"/><path d="M49.9 30a19.87 19.87 0 0 1-1.13 6.63H11.23A19.86 19.86 0 0 1 10.1 30h39.8z" fill="#00dcab"/><path d="M48.77 23.37H11.23a19.89 19.89 0 0 1 3.93-6.63h29.67a19.89 19.89 0 0 1 3.94 6.63z" fill="#ff8522"/><path d="M48.77 36.63a19.89 19.89 0 0 1-3.93 6.63H15.17a19.89 19.89 0 0 1-3.93-6.63z" fill="#52dbff"/><path d="M44.83 43.27a19.9 19.9 0 0 1-29.66 0h29.66z" fill="#a67eff"/><path d="M19.73 36.63h-8.5A19.86 19.86 0 0 1 10.1 30h8.5a19.83 19.83 0 0 0 1.13 6.63z" fill="#02bc90"/><path d="M19.73 23.37h-8.5a19.89 19.89 0 0 1 3.93-6.63h8.5a19.84 19.84 0 0 0-3.93 6.63z" fill="#ff7224"/><path d="M34.25 49.44a19.93 19.93 0 0 1-19-6.18h8.5a19.88 19.88 0 0 0 10.5 6.18z" fill="#8666dd"/><path d="M18.6 30h-8.5a19.87 19.87 0 0 1 1.13-6.63h8.5A19.84 19.84 0 0 0 18.6 30z" fill="#ffbc00"/><path d="M23.67 43.27h-8.5a19.89 19.89 0 0 1-3.93-6.63h8.5a19.85 19.85 0 0 0 3.93 6.63z" fill="#00aefd"/><path d="M30 51a21 21 0 1 1 21-21 21 21 0 0 1-21 21zm0-39.8A18.79 18.79 0 1 0 48.79 30 18.81 18.81 0 0 0 30 11.21z" fill="#a8244c"/></g></g></svg>