<svg xmlns="http://www.w3.org/2000/svg" viewBox="0 0 12.54 11.99"><g id="Layer_2" data-name="Layer 2"><path d="M6.24 12a.74.74 0 0 1-.55-.25C1.89 7.42 1 6.44.83 6.17A3.86 3.86 0 0 1 0 3.8 3.82 3.82 0 0 1 6.28.9 3.85 3.85 0 0 1 8.75 0a3.8 3.8 0 0 1 3.8 3.8 3.49 3.49 0 0 1-.9 2.38l-4.86 5.56a.73.73 0 0 1-.55.25zM2 5.28c.21.25 2.47 2.84 4.24 4.86l4.32-4.94a2 2 0 0 0 .52-1.4 2.33 2.33 0 0 0-2.33-2.33 2.44 2.44 0 0 0-1.9.94.76.76 0 0 1-.58.28.73.73 0 0 1-.58-.29 2.35 2.35 0 0 0-4.22 1.4A2.36 2.36 0 0 0 2 5.27z" fill="#d22856" id="Layer_1-2" data-name="Layer 1"/></g></svg>