<svg xmlns="http://www.w3.org/2000/svg" viewBox="0 0 68.98 12.06"><defs><style>.cls-1{fill:#283645}</style></defs><g id="Layer_2" data-name="Layer 2"><g id="Layer_1-2" data-name="Layer 1"><path class="cls-1" d="M7.81 5.25C7.81 7.77.19 10.1 0 7.55c-.06-.75.75-1.2 1.34-1.46.3-.13 2-.59 1.36-.06S.93 6.21.49 7s.46.9 1 .94a7.57 7.57 0 0 0 5.12-1.66C7 6 7.69 5.45 7.31 5s-1.83-.4-2.37-.47c-1.18-.15-2.62-.75-1.5-2.09S6.67.62 8.23.31c.6-.12 1.89-.43 2.36.14S10.13 2 9.67 2.32s-1.83 1.34-2.19.6 1.59-1.24 1.59-1.2c-.28.15-1.18.49-1.23.81C8.19 3 11.89.73 9.53.69a10.89 10.89 0 0 0-5.38 1.7c-.4.25-1 .69-.62 1.16.27.3 1 .29 1.35.34.95.11 2.93.05 2.93 1.36zm.44 1.87C8.15 7.19 6 8.63 6 8.27c0-.08 1.56-.91 1.74-1l.87-.68c.44-.35 2.78-2.3 2.94-.95.28-.27.45-.27.46.07s-.68.92-.85 1.12-.78.72-.83 1.05.31.19.31.4-.63.08-.68 0c-.27-.28.05-.78.21-1a7.16 7.16 0 0 1-1 .79c-.77.42-1.28-.07-.92-.95zm2.91-1.72C10.49 5.4 8.3 7.81 8.8 8s1.32-.9 1.56-1.13c.03-.06 1.43-1.47.8-1.47z"/><path class="cls-1" d="M14.36 5.76l-1.62 1.32c-.26.22-2.24 1.56-2.24 1.19a9.75 9.75 0 0 1 1.14-.6 16.4 16.4 0 0 0 1.41-1.09 26.51 26.51 0 0 0 2.29-2.06c.78-.81 1.53-1.65 2.29-2.48.12-.14.85-1.19 1.17-.87s-.14.56-.26.71c-1.35 1.68-2.89 3.26-4.3 4.89 1.37 0-1 3.46-1.24 3.71-.38.49-.92 1.25-1.57 1.42-.92.24-.88-.73-.63-1.31.75-1.76 2.37-3.34 3.56-4.83zm-.27 2.61a.59.59 0 0 1-.65-.62 30.46 30.46 0 0 0-1.84 2.46c-.18.27-.68.88-.61 1.24.15.81 1.17-.32 1.38-.56a11.43 11.43 0 0 0 1.72-2.52zm.08-.19c.17-.35.5-1.63-.25-1-.37.29-.39 1.09.24 1z"/><path class="cls-1" d="M17.74 5.76c-.11-.73 1.33-1.4.86-.59 1.84 0-.74 2.27-.89 2.63s0 .15 0 .36c0 0 .45 0 .19.18s-.64-.1-.69-.36.33-.82.51-1 1.23-1.16 1.11-1.3c-.34-.39-1.43.84-1.61 1A12.19 12.19 0 0 1 15.52 8c-.07 0-1.1.6-1.1.33 0 0 1.43-.79 1.59-.91a13.42 13.42 0 0 0 1.73-1.66z"/><path class="cls-1" d="M20.43 6.79c-.24.19-2.66 1.86-2.66 1.49 0 0 1.46-.83 1.64-1 .35-.26.68-.53 1-.8l.91-.75a4.36 4.36 0 0 1 .4-.33c.42-.23.24 0 .61 0s.49-.44.82-.21.17.48.11.73a4.09 4.09 0 0 1-1.21 1.65c-.36.35-1.06 1-1.64.83s-.23-1.16.02-1.61zm1.41-.72c-.26.23-1.62 1.41-1.13 1.92s1.38-.78 1.57-1a.67.67 0 0 1-.44-.92zm.57.73c.26-.25 1.09-1.37.38-1.41-.54-.03-1.15 1.24-.38 1.41zM26 6.58c.29-.24 3-2.32 2.6-.73-.17.64-1.1 1.16-1.5 1.65-.06.08-.34.32-.31.45s.43.16.43.3-1 .18-.88-.51c.09-.53.71-1 1.07-1.39s1.09-.87.38-.79c-.54.06-1.28.87-1.67 1.19S25 8 24.61 8.13s-.38-.18-.21-.53A11.36 11.36 0 0 1 26 5.71c-.52.42-1 .85-1.56 1.27-.25.16-2.44 1.69-2.44 1.3 0 0 1.28-.68 1.44-.8.73-.53 1.44-1.12 2.12-1.71.22-.19 1-1.15 1.31-.63.13.3-.75 1.23-.87 1.44z"/><path class="cls-1" d="M29.68 6.79C29.44 7 27 8.65 27 8.28c0 0 1.46-.83 1.64-1 .35-.26.68-.53 1-.8l.91-.75a4.36 4.36 0 0 1 .4-.33c.42-.23.24 0 .61 0s.49-.44.82-.21.17.48.11.73a4.09 4.09 0 0 1-1.21 1.65c-.36.35-1.06 1-1.64.83s-.21-1.16.04-1.61zm1.41-.72C30.83 6.29 29.47 7.48 30 8s1.38-.78 1.57-1a.67.67 0 0 1-.48-.93zm.57.73c.26-.25 1.09-1.37.38-1.41-.54-.03-1.15 1.24-.37 1.41zm4.41.12c-.59-.11.7-2.33 1.34-1.81s-1.56 2.38-1.79 2.57C35 8.17 33.55 8.83 34 7.4a6 6 0 0 1 1.24-1.76c-.64.6-1.33 1.14-2 1.67-.22.17-2 1.32-2 1 0-.1.92-.45 1.07-.55.44-.29.86-.63 1.27-1S35.66 4.62 36 5.2 34.77 7 34.6 7.44c-.53 1.34 1.2-.24 1.47-.52zm.17-.17c.17-.17 1.11-1.25.8-1.35s-1.15 1.27-.8 1.35zm7.96-3.28c.22 0-.88 1-1 1.09-.36.24-1.07.66-1.26 0-.33-1.06 2-2.58 2.63-3.07C45 1.2 47.36-.57 47.86.35c.4.74-1.68 2.52-2 2.93a17.1 17.1 0 0 0-2.43 3.22c-.28.53-.85 1.85.24 1.76S46 6.82 46.82 6.11a23.35 23.35 0 0 0 3.4-3.72c.25-.35 1.84-2.79.35-1.86a8.14 8.14 0 0 0-1.87 1.76 4.78 4.78 0 0 0-.5 1c-.56 0 .24-1.07.28-1.12A8.24 8.24 0 0 1 50.12.52c.29-.22 1.07-.77 1.44-.4s0 1-.16 1.25A16.42 16.42 0 0 1 45 8c-.94.52-2.5.94-2.52-.68 0-1.23 1-2.43 1.73-3.31.91-1.08 2.18-2 3-3.16.64-.85-.74-.12-1.11.15a13.69 13.69 0 0 0-3.51 2.95c-.24.32-.49.66 0 .63s1.07-1.11 1.61-1.11zm5.14 3.65c-.09.07-2.23 1.51-2.23 1.15 0-.08 1.56-.91 1.74-1l.87-.68c.44-.35 2.78-2.3 2.94-.95.28-.27.45-.27.46.07s-.68.92-.85 1.12-.78.72-.83 1.05.31.19.31.4-.63.08-.68 0c-.27-.28.05-.78.21-1a7.16 7.16 0 0 1-1 .79c-.78.42-1.28-.07-.94-.95zm2.91-1.72c-.67 0-2.86 2.41-2.36 2.57s1.32-.9 1.56-1.13c.04-.03 1.44-1.44.8-1.44z"/><path class="cls-1" d="M54.83 6.46c-.44.33-.87.67-1.32 1-.13.09-1.91 1.15-1.91.83 0 0 1.79-1 2-1.14a10.25 10.25 0 0 0 2.21-2.05A22 22 0 0 1 58 2.62c.35-.33 1.09-1.17 1.63-1.19 1.41-.05-1.79 3.06-2.06 3.3a13.84 13.84 0 0 0-2 1.75 3.57 3.57 0 0 0-.72 1.23c0 .08-.11.23-.07.31s.4.08.4.24c0 .36-.74-.06-.79-.38a3 3 0 0 1 .44-1.42zm4.95-4.87c-.55 0-1.5 1.44-1.81 1.79a20 20 0 0 0-1.91 2.35A27.62 27.62 0 0 0 59 3.08c.06-.08 1.19-1.5.78-1.5z"/><path class="cls-1" d="M57.26 7.4c-.19 0-2.26 1.13-2.26.87s1.26-.63 1.44-.72a3.16 3.16 0 0 0 1-.58c.55-.6 1.59-2.22 2.64-1.9S59.4 6.64 59 6.85s-1.18.31-1.13.85.83.39.83.55-1.7.39-1.44-.85zm.74-.33c.29-.14 2.43-1.42 1.8-1.79S58.17 6.72 58 7.07z"/><path class="cls-1" d="M61.92 5.76c-.11-.73 1.33-1.4.86-.59 1.84 0-.74 2.27-.89 2.63s0 .15 0 .36c0 0 .45 0 .19.18s-.64-.1-.69-.36.33-.82.51-1 1.18-1.2 1.1-1.34c-.34-.39-1.43.84-1.61 1a12.19 12.19 0 0 1-1.7 1.32c-.07 0-1.1.6-1.1.33 0 0 1.43-.79 1.59-.91a13.42 13.42 0 0 0 1.74-1.62z"/><path class="cls-1" d="M66.6 8.16c.11 0 .59 0 .38.17s-.44 0-.58.07c-.3.15-.6.75-.81 1-.66.83-1.59 2.33-2.59 2.6-.8.22-.6-.65-.36-1.15a5.53 5.53 0 0 1 2.09-2.12c.58-.35 1.1-.37 1.52-.9l.9-1.15c-.43.38-1.64 1.78-2.24 1.57-1-.35.52-2 .85-2.47C65 6.43 64.31 7 63.55 7.6c-.15.11-1.6 1-1.6.67 0-.15.87-.46 1-.54a10.72 10.72 0 0 0 1.19-.86c.38-.31.76-.62 1.13-.93s1.14-1.3 1.5-.79c.23.33-.57 1-.79 1.21S64.67 7.8 65.12 8s1.76-1.34 2-1.57c.41-.4.79-.81 1.19-1.22s.78-.6.66 0c-.06.31-.81.93-1 1.19-.49.6-.97 1.17-1.37 1.76zm-.89.35a5.35 5.35 0 0 0-2.5 1.81c-.18.22-1 1.44-.33 1.42.32 0 .79-.66 1-.86.64-.75 1.24-1.56 1.83-2.36z"/></g></g></svg>