<svg version="1.1" id="Capa_1" xmlns="http://www.w3.org/2000/svg" x="0" y="0" viewBox="0 0 512 512" xml:space="preserve"><path d="M284.032 23.121v32.747l-47.356 47.356h47.356v25.266c0 12.77 10.352 23.121 23.121 23.121h152.445c12.77 0 23.121-10.352 23.121-23.121V23.121C482.72 10.352 472.368 0 459.599 0H307.154c-12.77 0-23.122 10.352-23.122 23.121z" fill="#ffd15c"/><path d="M369.836 80.36h-28.074v35.811c0 3.368-4.118 5.116-8.11 5.116-4.118 0-8.11-1.747-8.11-5.116V35.067c0-3.494 3.992-4.991 8.11-4.991 3.992 0 8.11 1.498 8.11 4.991v32.566h28.074V35.067c0-3.494 3.993-4.991 8.11-4.991 3.993 0 8.111 1.498 8.111 4.991v81.103c0 3.368-4.118 5.116-8.111 5.116-4.117 0-8.11-1.747-8.11-5.116V80.36zm31.195-45.293c0-3.494 3.992-4.991 8.11-4.991 3.992 0 8.11 1.498 8.11 4.991v81.103c0 3.368-4.118 5.116-8.11 5.116-4.118 0-8.11-1.747-8.11-5.116V35.067zm45.916 78.484c0 4.492-3.868 8.485-8.484 8.485-4.866 0-8.484-3.992-8.484-8.485 0-4.616 3.619-8.484 8.484-8.484 4.617-.001 8.484 3.866 8.484 8.484zm-2.494-22.211c0 3.368-3.619 4.741-6.113 4.741-3.244 0-6.113-1.372-6.113-4.741 0-16.471-1.622-38.431-1.622-54.902 0-4.367 3.368-6.863 7.737-6.863 4.243 0 7.861 2.495 7.861 6.863-.003 16.472-1.75 38.433-1.75 54.902z" fill="#5c5e70"/><path d="M271.428 190.382v37.566c0 .247-.01.494-.041.752-.072.731-1.791 18.14-6.784 36.547-7.289 26.87-17.903 42.044-31.564 45.102a24.011 24.011 0 0 1-5.199.577c-15.092 0-31.049-14.444-48.592-43.928a7.737 7.737 0 0 1 2.687-10.583 7.728 7.728 0 0 1 10.593 2.687c21.084 35.435 32.995 37.103 37.144 36.176 13.517-3.027 23.483-40.943 26.201-66.577.041-.381.072-.752.113-1.122v-37.195a7.717 7.717 0 0 1 7.721-7.721 7.715 7.715 0 0 1 7.721 7.719zM56.048 410.127a7.754 7.754 0 0 1-2.862.546 7.705 7.705 0 0 1-7.165-4.849c-4.406-11.016-7.762-21.568-10.274-31.605-8.586-34.344-7.217-62.572-3.902-81.814 4.705-27.312 14.197-43.033 14.598-43.681a7.705 7.705 0 0 1 10.614-2.553 7.723 7.723 0 0 1 2.563 10.604c-.175.299-8.596 14.536-12.694 39.059-2.903 17.367-4.036 42.786 3.614 73.856 2.358 9.615 5.559 19.776 9.811 30.401 1.586 3.952-.339 8.45-4.303 10.036z" fill="#34abe0"/><path d="M167.056 51.104l24.326 75.461h-24.326v13.78c0 26.816-21.739 48.556-48.556 48.556h-1.616c-27.71 0-50.172-22.462-50.172-50.172V51.104l58.652-28.011 41.692 28.011z" fill="#ffdc8d"/><path d="M128.934 187.772a48.329 48.329 0 0 1-10.429 1.132h-1.616c-27.714 0-50.177-22.463-50.177-50.177v-87.62l22.649-10.82v98.44c-.001 24.08 16.955 44.185 39.573 49.045z" fill="#e8c57e"/><path d="M113.427.177C85.301.177 62.5 22.977 62.5 51.104V90.96c22.012 0 39.856-17.844 39.856-39.856h64.578c28.126 0 50.927-22.8 50.927-50.927H113.427z" fill="#f4a14e"/><path d="M91.326 51.104c0-28.126 22.8-50.927 50.927-50.927h-28.826C85.301.177 62.5 22.977 62.5 51.104V90.96c11.341 0 21.568-4.745 28.826-12.349V51.104z" fill="#e28d40"/><path d="M77.924 95.969c-6.984-6.984-18.307-6.984-25.291 0-6.984 6.984-6.984 18.307 0 25.291 6.984 6.984 18.307 6.984 25.291 0" fill="#e8c57e"/><path d="M142.986 156.842c-16.415 0-29.77-13.355-29.77-29.77a7.721 7.721 0 0 1 15.442 0c0 7.9 6.427 14.327 14.327 14.327a7.721 7.721 0 0 1 7.721 7.721 7.719 7.719 0 0 1-7.72 7.722z" fill="#fff"/><path d="M144.837 101.863a7.721 7.721 0 0 1-7.721-7.721V83.994a7.721 7.721 0 0 1 15.442 0v10.148a7.72 7.72 0 0 1-7.721 7.721z" fill="#494b5b"/><path d="M191.041 263.047c0 9.43-1.76 27.302-4.972 49.22a839.25 839.25 0 0 1-1.163 7.721c-.391 2.533-.803 5.106-1.225 7.721-10.933 66.886-32.995 158.5-59.072 174.22-2.533 1.534-5.117 2.347-7.721 2.347s-5.189-.813-7.721-2.347c-26.077-15.72-48.139-107.335-59.072-174.22-.422-2.615-.834-5.189-1.225-7.721a775.876 775.876 0 0 1-1.163-7.721c-3.212-21.918-4.972-39.79-4.972-49.22 0-40.953 33.201-74.144 74.154-74.144 40.951 0 74.152 33.191 74.152 74.144z" fill="#5c5e70"/><path d="M116.886 504.278c-30.442 0-56.601-110.66-68.018-184.289-3.953-25.418-6.136-46.43-6.136-56.941 0-40.953 33.201-74.144 74.154-74.144-22.093 0-40.006 33.191-40.006 74.144 0 10.511 1.174 31.523 3.305 56.941 6.166 73.629 20.28 184.289 36.701 184.289z" fill="#494b5b"/><path d="M191.039 263.048c0 10.511-2.183 31.523-6.136 56.941H48.866c-3.953-25.418-6.136-46.43-6.136-56.941 0-40.953 33.201-74.144 74.154-74.144 40.954 0 74.155 33.191 74.155 74.144z" fill="#34abe0"/><path d="M76.879 263.048c0 10.511 1.174 31.523 3.305 56.941H48.866c-3.953-25.418-6.136-46.43-6.136-56.941 0-40.953 33.201-74.144 74.154-74.144-22.092 0-40.005 33.191-40.005 74.144z" fill="#279fc9"/><path d="M72.338 203.77c12.405-9.337 27.827-14.866 44.546-14.866l-23.04 45.174-21.506-30.308zm89.102 0v.01l-21.516 30.298-23.04-45.174c16.719 0 32.151 5.528 44.556 14.866z" fill="#78caef"/><path d="M124.608 362.032V501.93c-2.533 1.534-5.117 2.347-7.721 2.347s-5.189-.813-7.721-2.347V362.032a7.717 7.717 0 0 1 7.721-7.721 7.724 7.724 0 0 1 7.721 7.721z" fill="#494b5b"/><path d="M186.069 312.267a839.25 839.25 0 0 1-1.163 7.721c-.391 2.533-.803 5.106-1.225 7.721H50.094c-.422-2.615-.834-5.189-1.225-7.721a775.876 775.876 0 0 1-1.163-7.721h138.363z" fill="#797b89"/><path d="M116.197 238.617c-7.091 0-10.393-9.162-4.902-13.687 2.547-2.099 6.275-2.308 9.056-.538 2.815 1.791 4.178 5.348 3.282 8.558-.92 3.297-4.003 5.667-7.436 5.667z" fill="#fff"/><path d="M154.468 512H79.3a7.721 7.721 0 0 1 0-15.442h75.168a7.721 7.721 0 0 1 0 15.442z" fill="#3a3c49"/><g fill="#ffdc8d"><path d="M271.428 190.382v37.566c0 .247-.01.494-.041.752h-15.514c.041-.381.072-.752.113-1.122v-37.195a7.717 7.717 0 0 1 7.721-7.721 7.717 7.717 0 0 1 7.721 7.72zM56.048 410.127a7.754 7.754 0 0 1-2.862.546 7.705 7.705 0 0 1-7.165-4.849c-4.406-11.016-7.762-21.568-10.274-31.605l14.794-4.53c2.358 9.615 5.559 19.776 9.811 30.401 1.585 3.953-.34 8.451-4.304 10.037z"/><path d="M240.937 210.515l14.927 12.104 6.052-7.463-14.927-12.104a4.805 4.805 0 0 0-6.052 7.463z"/></g></svg>