<svg xmlns="http://www.w3.org/2000/svg" viewBox="0 0 180 36.47"><g id="Layer_2" data-name="Layer 2"><path d="M15.83 35.62v-7.75A3.78 3.78 0 0 0 12 24.1H8.21v11.52a.75.75 0 0 1-.85.85.75.75 0 0 1-.85-.85V12a5.24 5.24 0 0 1 1.6-3.91A5.41 5.41 0 0 1 12 6.58a5.26 5.26 0 0 1 3.84 1.63A5.26 5.26 0 0 1 17.52 12a5.38 5.38 0 0 1-1.6 4A5.23 5.23 0 0 1 12 17.58H8.21v1.56H12a6.72 6.72 0 0 0 5-2.08 6.9 6.9 0 0 0 2.05-5A6.76 6.76 0 0 0 17 7.1 6.77 6.77 0 0 0 12 5a6.89 6.89 0 0 0-5 2.07 6.72 6.72 0 0 0-2.08 5v23.55a.75.75 0 0 1-.85.85.75.75 0 0 1-.85-.85V12a8.36 8.36 0 0 1 2.61-6.14A8.52 8.52 0 0 1 12 3.32a8.4 8.4 0 0 1 6.2 2.58 8.4 8.4 0 0 1 2.57 6.1 8.53 8.53 0 0 1-2.54 6.22A8.37 8.37 0 0 1 12 20.84H8.21v1.56H12a9.87 9.87 0 0 0 7.29-3 10 10 0 0 0 3-7.33 9.9 9.9 0 0 0-3-7.26 9.9 9.9 0 0 0-7.26-3 10 10 0 0 0-7.33 3 9.87 9.87 0 0 0-3 7.29v23.52a.75.75 0 0 1-.85.85.75.75 0 0 1-.85-.85V12a11.5 11.5 0 0 1 3.52-8.5A11.67 11.67 0 0 1 12 .06a11.57 11.57 0 0 1 8.5 3.49A11.57 11.57 0 0 1 24 12a11.61 11.61 0 0 1-3 8 11.53 11.53 0 0 1 3 7.88v7.75a.85.85 0 0 1-1.69 0v-7.76a10.1 10.1 0 0 0-2.47-6.71 13.26 13.26 0 0 1-1.24 1 8.48 8.48 0 0 1 2.15 5.73v7.75a.75.75 0 0 1-.85.85.75.75 0 0 1-.85-.85v-7.77a6.66 6.66 0 0 0-2-4.88 7.33 7.33 0 0 1-1.63.59 5.3 5.3 0 0 1 2.08 4.3v7.75a.75.75 0 0 1-.85.85.75.75 0 0 1-.82-.86zM8.21 15.89H12a3.61 3.61 0 0 0 2.7-1.11A3.78 3.78 0 0 0 15.83 12 3.78 3.78 0 0 0 12 8.27a3.77 3.77 0 0 0-2.69 1.08A3.6 3.6 0 0 0 8.21 12zm18.3 19.73V12A11.5 11.5 0 0 1 30 3.55 11.67 11.67 0 0 1 38.55.06a11.57 11.57 0 0 1 8.5 3.49A11.57 11.57 0 0 1 50.54 12v23.62a.85.85 0 0 1-1.69 0V12a9.9 9.9 0 0 0-3-7.26 9.9 9.9 0 0 0-7.26-3 10 10 0 0 0-7.33 3 9.87 9.87 0 0 0-3 7.29v23.59a.85.85 0 0 1-1.69 0zm3.26 0V12a8.36 8.36 0 0 1 2.57-6.18 8.52 8.52 0 0 1 6.22-2.54 8.4 8.4 0 0 1 6.15 2.62 8.4 8.4 0 0 1 2.57 6.1v23.62a.85.85 0 0 1-1.69 0V12a6.76 6.76 0 0 0-2.09-4.9A6.77 6.77 0 0 0 38.55 5a6.89 6.89 0 0 0-5 2.05 6.72 6.72 0 0 0-2.08 5v23.57a.85.85 0 0 1-1.69 0zM42.33 24.1h-7.62v11.52a.85.85 0 0 1-1.69 0V12a5.21 5.21 0 0 1 1.63-3.87 5.38 5.38 0 0 1 3.91-1.6 5.26 5.26 0 0 1 3.84 1.68A5.26 5.26 0 0 1 44 12v23.62a.85.85 0 0 1-1.69 0zm0-8.21V12a3.78 3.78 0 0 0-3.78-3.77 3.77 3.77 0 0 0-2.74 1.07 3.6 3.6 0 0 0-1.1 2.7v3.84zm0 3.26v-1.57h-7.62v1.56zm-7.62 3.25h7.62v-1.56h-7.62zm18.36 13.22V.85a.85.85 0 1 1 1.69 0v34.77a.85.85 0 1 1-1.69 0zm3.26 0V.85a.85.85 0 1 1 1.67 0v34.77a.85.85 0 1 1-1.69 0zm3.26 0V.85a.85.85 0 1 1 1.69 0v34.77a.85.85 0 1 1-1.69 0zm26.57 0V12a9.9 9.9 0 0 0-3-7.26 9.9 9.9 0 0 0-7.26-3 10 10 0 0 0-7.33 3 9.87 9.87 0 0 0-3 7.29v23.59a.85.85 0 0 1-1.69 0V12a11.5 11.5 0 0 1 3.52-8.5A12 12 0 0 1 87.85 12v23.62a.85.85 0 0 1-1.69 0zm-3.26 0V12a6.76 6.76 0 0 0-2.08-4.9A6.77 6.77 0 0 0 75.87 5a6.89 6.89 0 0 0-5 2.05 6.72 6.72 0 0 0-2.08 5v23.57a.85.85 0 0 1-1.69 0V12a8.36 8.36 0 0 1 2.57-6.18 8.52 8.52 0 0 1 6.22-2.54A8.4 8.4 0 0 1 82 5.9a8.4 8.4 0 0 1 2.59 6.1v23.62a.85.85 0 0 1-1.69 0zm-3.26 0V12a3.78 3.78 0 0 0-3.78-3.77 3.77 3.77 0 0 0-2.74 1.07A3.6 3.6 0 0 0 72 12v23.62a.85.85 0 0 1-1.69 0V12A5.21 5.21 0 0 1 72 8.17a5.38 5.38 0 0 1 3.91-1.6 5.26 5.26 0 0 1 3.84 1.63 5.26 5.26 0 0 1 1.59 3.8v23.62a.85.85 0 0 1-1.69 0zm33.09-17.32a11.63 11.63 0 0 1 1.69 6.12 11.68 11.68 0 0 1-3.48 8.58 11.51 11.51 0 0 1-8.5 3.52h-11.2a.75.75 0 0 1-.85-.85V12a11.5 11.5 0 0 1 3.52-8.5 12 12 0 0 1 20.51 8.5 12.08 12.08 0 0 1-1.69 6.3zM98.6 20.84v1.56h3.84a9.87 9.87 0 0 0 7.29-3 10 10 0 0 0 3-7.33 9.9 9.9 0 0 0-3-7.26 9.9 9.9 0 0 0-7.26-3 10 10 0 0 0-7.33 3 9.87 9.87 0 0 0-3 7.29v22.68h10.36a9.88 9.88 0 0 0 7.29-3 10 10 0 0 0 3-7.33 10.2 10.2 0 0 0-1.11-4.62 7.55 7.55 0 0 1-1.23 1.17 8.78 8.78 0 0 1 .72 3.45 8.53 8.53 0 0 1-2.54 6.22 8.37 8.37 0 0 1-6.19 2.57h-7.95a.75.75 0 0 1-.85-.85V12a8.36 8.36 0 0 1 2.57-6.18 8.52 8.52 0 0 1 6.22-2.54 8.4 8.4 0 0 1 6.15 2.57 8.4 8.4 0 0 1 2.58 6.15 8.53 8.53 0 0 1-2.54 6.22 8.37 8.37 0 0 1-6.19 2.57zm0-3.26v1.56h3.84a6.72 6.72 0 0 0 5-2.08 6.9 6.9 0 0 0 2.05-5 6.76 6.76 0 0 0-2.08-4.95A6.77 6.77 0 0 0 102.44 5a6.89 6.89 0 0 0-5 2.05 6.72 6.72 0 0 0-2.08 5v19.47h7.1a6.73 6.73 0 0 0 5-2.08 6.9 6.9 0 0 0 2.05-5 7.36 7.36 0 0 0-.39-2.34 7.37 7.37 0 0 1-1.43.78 4.9 4.9 0 0 1 .26 1.56 5.39 5.39 0 0 1-1.59 3.91 5.22 5.22 0 0 1-3.92 1.65h-4.69a.75.75 0 0 1-.85-.85V12a5.24 5.24 0 0 1 1.6-3.91 5.41 5.41 0 0 1 3.94-1.56 5.26 5.26 0 0 1 3.84 1.63 5.26 5.26 0 0 1 1.63 3.84 5.38 5.38 0 0 1-1.59 4 5.23 5.23 0 0 1-3.88 1.63zm0-1.69h3.84a3.61 3.61 0 0 0 2.7-1.11 3.78 3.78 0 0 0 1.08-2.78 3.78 3.78 0 0 0-3.78-3.77 3.77 3.77 0 0 0-2.74 1.12A3.6 3.6 0 0 0 98.6 12zm0 8.21v4.17h3.84a3.61 3.61 0 0 0 2.7-1.11 3.78 3.78 0 0 0 1.07-2.74 3.33 3.33 0 0 0-.13-.91 11.43 11.43 0 0 1-3.65.58zM117 12a11.5 11.5 0 0 1 3.52-8.5 12 12 0 0 1 20.54 8.5v12.42a11.68 11.68 0 0 1-3.49 8.58 11.51 11.51 0 0 1-8.5 3.52 11.9 11.9 0 0 1-12-12zm1.69 0v12.42a10.34 10.34 0 0 0 10.36 10.35 9.88 9.88 0 0 0 7.29-3 10 10 0 0 0 3-7.33V12a9.9 9.9 0 0 0-3-7.26 9.9 9.9 0 0 0-7.26-3 10 10 0 0 0-7.33 3 9.87 9.87 0 0 0-3.03 7.26zm1.56 0a8.36 8.36 0 0 1 2.57-6.18 8.52 8.52 0 0 1 6.22-2.54 8.4 8.4 0 0 1 6.15 2.57A8.4 8.4 0 0 1 137.8 12v12.42a8.53 8.53 0 0 1-2.54 6.22 8.37 8.37 0 0 1-6.19 2.57 8.78 8.78 0 0 1-8.79-8.79zm1.75 0v12.42a7.11 7.11 0 0 0 7.1 7.1 6.73 6.73 0 0 0 5-2.08 6.9 6.9 0 0 0 2.05-5V12A6.76 6.76 0 0 0 134 7.1a6.77 6.77 0 0 0-4.93-2.1 6.89 6.89 0 0 0-5 2.05A6.72 6.72 0 0 0 122 12zm1.56 0a5.21 5.21 0 0 1 1.63-3.87 5.38 5.38 0 0 1 3.91-1.6 5.26 5.26 0 0 1 3.84 1.63 5.26 5.26 0 0 1 1.6 3.84v12.42a5.39 5.39 0 0 1-1.59 3.91 5.22 5.22 0 0 1-3.88 1.67 5.56 5.56 0 0 1-5.54-5.53zm1.69 0v12.42a3.78 3.78 0 0 0 3.84 3.84 3.61 3.61 0 0 0 2.7-1.11 3.78 3.78 0 0 0 1.07-2.74V12a3.78 3.78 0 0 0-3.78-3.77 3.77 3.77 0 0 0-2.74 1.07 3.6 3.6 0 0 0-1.11 2.7zM145.29.85v23.57a10.34 10.34 0 0 0 10.36 10.35H168a9.87 9.87 0 0 0 7.29-3 10 10 0 0 0 3-7.33V.85q0-.79.85-.78t.85.78v23.57a11.67 11.67 0 0 1-3.47 8.58 11.51 11.51 0 0 1-8.5 3.52h-12.37a11.9 11.9 0 0 1-12-12V.85q0-.79.85-.78t.79.78zm31.46 0v23.57a8.52 8.52 0 0 1-2.54 6.22 8.36 8.36 0 0 1-6.21 2.57h-12.35a8.78 8.78 0 0 1-8.79-8.79V.85q0-.79.85-.78c.56 0 .85.26.85.78v23.57a7.11 7.11 0 0 0 7.1 7.1H168a6.73 6.73 0 0 0 5-2.08 6.89 6.89 0 0 0 2.05-5V.85q0-.79.85-.78t.84.78zm-10.95 0v27.41h2.2a3.6 3.6 0 0 0 2.7-1.11 3.77 3.77 0 0 0 1.07-2.74V.85c0-.52.28-.78.85-.78s.85.26.85.78v23.57a5.38 5.38 0 0 1-1.6 3.91A5.22 5.22 0 0 1 168 30h-12.35a5.56 5.56 0 0 1-5.54-5.53V.85c0-.52.28-.78.85-.78s.85.26.85.78v23.57a3.78 3.78 0 0 0 3.84 3.84h2V.85q0-.79.85-.78c.56 0 .85.26.85.78v27.41h1.56V.85c0-.52.28-.78.85-.78s.85.26.85.78v27.41h1.56V.85q0-.79.85-.78t.78.78z" fill="#fcfcfc" id="Layer_1-2" data-name="Layer 1"/></g></svg>