<svg xmlns="http://www.w3.org/2000/svg"><defs><style>.cls-1{fill:#fff;fill-rule:evenodd}</style></defs><symbol id="icon-apple" viewBox="0 0 407.5 407.5"><g id="Layer_2" data-name="Layer 2"><g id="white"><path class="cls-1" d="M291.68 251.56c-4.81 10.65-7.11 15.41-13.29 24.82-8.64 13.15-20.81 29.52-35.88 29.65-13.4.12-16.84-8.72-35-8.62s-22 8.78-35.39 8.65c-15.08-.14-26.61-14.92-35.25-28.07-24.15-36.76-26.67-79.89-11.78-102.83 10.58-16.3 27.28-25.84 43-25.84 16 0 26 8.77 39.24 8.77 12.82 0 20.63-8.78 39.11-8.78 14 0 28.77 7.6 39.31 20.76-34.55 18.93-28.94 68.28 6 81.47"/><path class="cls-1" d="M232.38 134.65c6.71-8.62 11.81-20.79 10-33.23-11 .76-23.8 7.73-31.29 16.83-6.8 8.26-12.41 20.51-10.22 32.41 12 .37 24.36-6.78 31.55-16"/><circle cx="203.75" cy="203.75" r="198.75" fill="none" stroke="#fff" stroke-miterlimit="10" stroke-width="10"/></g></g></symbol><symbol id="icon-contrast" viewBox="0 0 31.92 31.92"><path d="M16 4A12 12 0 1 1 4 16 12 12 0 0 1 16 4m0-4a16 16 0 1 0 16 16A16 16 0 0 0 16 0zm0 24.29a8.52 8.52 0 1 0 0-17" fill="#d22856"/></symbol><symbol id="icon-crop" viewBox="0 0 44 44"><path d="M32 28h4V12a4 4 0 0 0-4-4H16v4h16zm-20 4V0H8v8H0v4h8v20a4 4 0 0 0 4 4h20v8h4v-8h8v-4z" fill="#d22856"/></symbol><symbol id="icon-fb" viewBox="0 0 8.67 18.94"><g id="Layer_2" data-name="Layer 2"><path d="M6.27 3.36h2.4V0H5.8C2.66.18 1.54 2.39 1.95 6.12H0v3.51h2v9.31h3.8V9.63h2.85V6.12H5.79c-.02-1.05-.04-2.41.48-2.76z" fill="#d22856" id="Layer_1-2" data-name="Layer 1"/></g></symbol><symbol id="icon-fill" viewBox="0 0 48 48"><g id="Layer_2" data-name="Layer 2"><g id="Layer_1-2" data-name="Layer 1"><path d="M0 0h48v48H0z" fill="none"/><path d="M33.12 17.88L15.24 0l-2.83 2.83 4.76 4.76L6.88 17.88a3 3 0 0 0 0 4.24l11 11a3 3 0 0 0 4.24 0l11-11a3 3 0 0 0 0-4.24zM10.41 20L20 10.42 29.59 20zM38 23s-4 4.33-4 7a4 4 0 0 0 8 0c0-2.67-4-7-4-7zM0 40h48v3H0z" fill="#d22856"/></g></g></symbol><symbol id="icon-play_market" viewBox="0 0 407.5 407.5"><g id="Layer_2" data-name="Layer 2"><g id="white"><path d="M243.61 171.34l-117.17-67.41L218.99 196l24.62-24.66zm-127.83-66.73a5.73 5.73 0 0 0-.71 2.78v190.77a5.84 5.84 0 0 0 .25 1.69l98-98.19zM219 207.31l-96.1 96.27a5.93 5.93 0 0 0 .83-.39l121.42-69.86zm70.53-9.55l-38.74-22.29-26.13 26.17 27.69 27.55 37.18-21.39a5.79 5.79 0 0 0 0-10.04z" fill="#fff" fill-rule="evenodd"/><circle cx="203.75" cy="203.75" r="198.75" fill="none" stroke="#fff" stroke-miterlimit="10" stroke-width="10"/></g></g></symbol><symbol id="icon-twitter" viewBox="0 0 17.5 14.66"><g id="Layer_2" data-name="Layer 2"><g id="Layer_1-2" data-name="Layer 1"><path d="M11.28.15A3.28 3.28 0 0 1 15 1.3c.69-.23 1.37-.47 2.07-.69a2.25 2.25 0 0 1-.88 1.73 1.64 1.64 0 0 0 1.34-.48 2.9 2.9 0 0 1-1.61 2c-.24 6.59-3.27 11-10.38 10.82H5c-.42 0-4.29-.45-5-1.84a6.57 6.57 0 0 0 4.84-1.15c-1-.29-2.76-.46-3.07-2.88A2.14 2.14 0 0 0 3 8.9C1.76 8.07.38 7.37.46 5.22a2 2 0 0 0 1.38.46C1.12 5.44-.19 2.4.92.84c1.87 1.81 3.85 3.52 7.37 3.69C8.51 2.29 9.46.79 11.28.15z" fill="#d22856" id="W6EeEF"/></g></g></symbol><symbol id="icon-wp" viewBox="0 0 407.5 407.5"><g id="Layer_2" data-name="Layer 2"><g id="white"><path d="M155.47 149.23c0-19.77 0-25.25.2-31.66.27-8.78 4.63-15.24 12.82-18.28a93.39 93.39 0 0 1 18.81-4.88c10.82-1.59 17.77 4.08 18.52 15 .74 10.72.15 19.66.65 29.72l6-1.42c.24-3.48.16-19.79-.07-26-.51-14-5.9-24.08-19.88-24.41a67.75 67.75 0 0 0-28.45 6c-10.67 4.57-14.65 15.36-14.72 22.46-.1 11.49-.05 23-.05 34.75zm62.67-38.45c10-.78 14.9-1.27 14.9 11 .18 3.83.27 7.67.27 11.88l6.88-1.49c-.59-6.44-.92-12.69-1.8-18.86-1.44-10-10.46-10-21.21-8.85zm-18.2-2.21c-5.9 1.88-11.22 3.84-14.25 9.12-4.68 8.15-3.25 17.07-3.54 26.18l6.32-1.27c0-3 .07-5.94 0-8.84-.48-16 9.9-17.08 12.22-19.14zm103.31 36.88l-33.45-12.07-165.55 33v120.83l165.6 33.06 33.4-12.27zm-127 116.36l-36-5v-29.34h36zm0-37.34h-36v-30.6l36-5zm51 44.42l-48-6.66v-34.76h48zm0-44.42h-48v-36l48-6.66z" fill="#fff"/><circle cx="203.75" cy="203.75" r="198.75" fill="none" stroke="#fff" stroke-miterlimit="10" stroke-width="10"/></g></g></symbol><symbol id="icon-youtube" viewBox="0 0 14.64 13.96"><g id="Layer_2" data-name="Layer 2"><path d="M1.78 13.78A1.14 1.14 0 0 1 0 12.67V1.29A1.14 1.14 0 0 1 1.78.18l12.13 5.93c1 .48 1 1.26 0 1.74z" fill="#d22856" id="Layer_1-2" data-name="Layer 1"/></g></symbol></svg>