<svg xmlns="http://www.w3.org/2000/svg" viewBox="0 0 215.72 179.62">
  <defs>
    <style>
      .cls-1 {
        isolation: isolate;
      }

      .cls-2 {
        fill: #e2c4a3;
      }

      .cls-3 {
        fill: #e2e2e2;
      }

      .cls-4, .cls-9 {
        fill: #ffca55;
      }

      .cls-5 {
        fill: #cecece;
      }

      .cls-6 {
        fill: #b7b7b7;
      }

      .cls-7 {
        fill: #ffd37b;
      }

      .cls-8 {
        fill: #fcdda7;
      }

      .cls-25, .cls-37, .cls-9 {
        opacity: 0.3;
      }

      .cls-10, .cls-11 {
        fill: #f99569;
      }

      .cls-10 {
        opacity: 0.4;
      }

      .cls-12 {
        fill: #fff;
      }

      .cls-13 {
        fill: #f9dba5;
      }

      .cls-14 {
        fill: #f9f4ea;
      }

      .cls-15 {
        fill: #33333d;
      }

      .cls-16 {
        fill: #d3d3d3;
      }

      .cls-17 {
        fill: #f2f2f2;
      }

      .cls-18 {
        fill: #f44a6a;
      }

      .cls-19 {
        fill: #ffc197;
      }

      .cls-20 {
        fill: #ffc550;
      }

      .cls-21 {
        fill: #d1d9fe;
      }

      .cls-22 {
        fill: #8f66d1;
      }

      .cls-23 {
        fill: #b58cea;
      }

      .cls-24, .cls-25 {
        fill: #f4dcbd;
      }

      .cls-24 {
        opacity: 0.35;
      }

      .cls-26 {
        fill: #ffa9a9;
      }

      .cls-27 {
        fill: #f9cfc0;
      }

      .cls-28 {
        fill: #d6ddea;
      }

      .cls-29 {
        fill: #4462e2;
      }

      .cls-30 {
        fill: #ffaf84;
      }

      .cls-31 {
        fill: #f2c26b;
      }

      .cls-32 {
        fill: #667aed;
      }

      .cls-33 {
        fill: #3054c6;
      }

      .cls-34 {
        fill: #fcd290;
      }

      .cls-35 {
        fill: #969696;
      }

      .cls-36 {
        fill: #efefef;
      }

      .cls-37 {
        fill: #293549;
        mix-blend-mode: multiply;
      }

      .cls-38 {
        fill: #d63054;
      }

      .cls-39 {
        fill: #492a68;
      }

      .cls-40 {
        fill: #687c99;
      }
    </style>
  </defs>
  <title>Asset 5</title>
  <g class="cls-1">
    <g id="Layer_2" data-name="Layer 2">
      <g id="Objects">
        <g>
          <g>
            <path class="cls-2" d="M148,176.53a6.5,6.5,0,0,1-6.16-4.43L113,86.53a6.5,6.5,0,1,1,12.32-4.15L154.16,168a6.51,6.51,0,0,1-6.16,8.58Z"/>
            <path class="cls-2" d="M67.76,176.53a6.51,6.51,0,0,1-6.31-8.07L82.72,82.89A6.5,6.5,0,1,1,95.34,86L74.06,171.6A6.5,6.5,0,0,1,67.76,176.53Z"/>
            <path class="cls-3" d="M1.57,179.62H199.75a1.57,1.57,0,0,0,1.57-1.57h0a1.57,1.57,0,0,0-1.57-1.57H1.57A1.57,1.57,0,0,0,0,178.06H0A1.57,1.57,0,0,0,1.57,179.62Z"/>
            <g>
              <path class="cls-4" d="M190.28,18.3a10.3,10.3,0,1,0-13.5,13.23,9,9,0,0,1,4.9,5.13l.14.37,8-3.08-.11-.28a9.58,9.58,0,0,1,.34-7.42A10.25,10.25,0,0,0,190.28,18.3Z"/>
              <rect class="cls-5" x="182.09" y="34.95" width="9.79" height="6.87" transform="translate(-1.28 69.87) rotate(-21.09)"/>
              <polygon class="cls-5" points="192.8 39.83 183.66 43.35 185.07 43.85 192.09 41.15 192.8 39.83"/>
              <path class="cls-6" d="M181.6,38.41a.4.4,0,0,1-.14-.77l9.14-3.53a.4.4,0,0,1,.29.74l-9.14,3.53Z"/>
              <path class="cls-6" d="M182.12,39.75A.4.4,0,0,1,182,39l9.14-3.53a.4.4,0,0,1,.29.74l-9.14,3.53Z"/>
              <path class="cls-6" d="M182.63,41.08a.4.4,0,0,1-.14-.77l9.14-3.53a.4.4,0,0,1,.29.74l-9.14,3.53Z"/>
              <path class="cls-6" d="M183.14,42.41a.4.4,0,0,1-.14-.77l9.14-3.53a.4.4,0,0,1,.29.74l-9.14,3.53Z"/>
              <path class="cls-6" d="M183.66,43.75a.4.4,0,0,1-.14-.77l9.14-3.53a.4.4,0,0,1,.29.74l-9.14,3.53Z"/>
              <circle class="cls-7" cx="180.78" cy="22.27" r="9.27" transform="translate(4.1 66.56) rotate(-21.1)"/>
              <ellipse class="cls-8" cx="175.04" cy="17.99" rx="3.28" ry="2.41" transform="translate(76.66 163.88) rotate(-61.88)"/>
              <ellipse class="cls-8" cx="173.6" cy="24.27" rx="1.71" ry="1.25" transform="translate(134.88 195.22) rotate(-85.2)"/>
            </g>
            <g>
              <polygon class="cls-9" points="168.75 111.87 29 111.87 39.27 20.9 179.02 20.9 168.75 111.87"/>
              <polygon class="cls-10" points="42.76 27.44 41.27 40.56 31 131.53 170.75 131.53 181.02 40.56 182.5 27.44 42.76 27.44"/>
              <g>
                <polygon class="cls-11" points="168.75 129.53 29 129.53 39.27 38.56 179.02 38.56 168.75 129.53"/>
                <polygon class="cls-12" points="165.42 124.36 33.51 124.36 38.48 80.31 170.39 80.31 165.42 124.36"/>
                <g>
                  <polygon class="cls-4" points="62.13 119.2 24.48 119.2 28.52 83.44 66.17 83.44 62.13 119.2"/>
                  <polygon class="cls-13" points="58.85 115.71 28.55 115.71 31.8 86.93 62.1 86.93 58.85 115.71"/>
                </g>
                <g>
                  <polygon class="cls-14" points="68.19 74.36 39.15 74.36 40.23 64.76 69.27 64.76 68.19 74.36"/>
                  <polygon class="cls-15" points="57.75 67.72 43.76 67.72 43.91 66.39 57.9 66.39 57.75 67.72"/>
                </g>
                <g>
                  <polygon class="cls-4" points="165.75 97.83 128.1 97.83 130.38 77.6 168.03 77.6 165.75 97.83"/>
                  <polygon class="cls-15" points="165.23 102.41 127.58 102.41 127.75 100.96 165.4 100.96 165.23 102.41"/>
                  <polygon class="cls-15" points="164.89 105.41 127.24 105.41 127.41 103.95 165.06 103.95 164.89 105.41"/>
                </g>
                <polygon class="cls-14" points="102.48 70.97 73.44 70.97 74.53 61.37 103.56 61.37 102.48 70.97"/>
                <g>
                  <polygon class="cls-15" points="179.19 74.36 115.86 74.36 116.94 64.76 180.27 64.76 179.19 74.36"/>
                  <polygon class="cls-14" points="143.13 67.72 118.96 67.72 119.11 66.39 143.28 66.39 143.13 67.72"/>
                  <polygon class="cls-14" points="142.84 70.23 118.68 70.23 118.83 68.89 142.99 68.89 142.84 70.23"/>
                </g>
                <g>
                  <polygon class="cls-12" points="163.98 58.86 32.07 58.86 33.56 45.62 165.48 45.62 163.98 58.86"/>
                  <polygon class="cls-15" points="162.16 57.04 152.55 57.04 153.64 47.44 163.24 47.44 162.16 57.04"/>
                  <polygon class="cls-4" points="148.41 57.04 138.8 57.04 139.89 47.44 149.49 47.44 148.41 57.04"/>
                  <polygon class="cls-4" points="134.66 57.04 125.05 57.04 126.14 47.44 135.74 47.44 134.66 57.04"/>
                  <polygon class="cls-4" points="68.51 49.76 36.96 49.76 37.16 47.91 68.72 47.91 68.51 49.76"/>
                  <polygon class="cls-4" points="68.14 53.05 36.58 53.05 36.79 51.2 68.35 51.2 68.14 53.05"/>
                  <polygon class="cls-4" points="50.2 56.34 36.21 56.34 36.42 54.49 50.41 54.49 50.2 56.34"/>
                </g>
                <g>
                  <polygon class="cls-4" points="121.45 111 83.8 111 86.08 90.78 123.74 90.78 121.45 111"/>
                  <polygon class="cls-15" points="120.94 115.58 83.28 115.58 83.45 114.14 121.1 114.14 120.94 115.58"/>
                  <polygon class="cls-15" points="120.6 118.58 82.95 118.58 83.11 117.13 120.76 117.13 120.6 118.58"/>
                  <polygon class="cls-13" points="120.31 100.31 105.88 100.31 107.3 87.71 121.74 87.71 120.31 100.31"/>
                </g>
                <g>
                  <polygon class="cls-16" points="179.02 38.56 39.27 38.56 40.76 25.44 180.5 25.44 179.02 38.56"/>
                  <polygon class="cls-17" points="176.75 35.81 42.17 35.81 42.66 31.49 177.24 31.49 176.75 35.81"/>
                  <polygon class="cls-14" points="45.07 30.03 42.82 30.03 43.08 27.78 45.33 27.78 45.07 30.03"/>
                  <polygon class="cls-14" points="49.07 30.03 46.82 30.03 47.08 27.78 49.33 27.78 49.07 30.03"/>
                  <polygon class="cls-14" points="53.07 30.03 50.82 30.03 51.08 27.78 53.33 27.78 53.07 30.03"/>
                </g>
              </g>
            </g>
            <g>
              <path class="cls-18" d="M107.21,21.83l-4.06,13.52a1.42,1.42,0,0,1-1.76.95l-26-7.83a1.42,1.42,0,0,1-.95-1.76l4.06-13.52a1.42,1.42,0,0,1,1.76-.95l26,7.83a1.42,1.42,0,0,1,.95,1.76Z"/>
              <path class="cls-19" d="M107.07,20.69,93.44,26.15a4.94,4.94,0,0,1-5.88-1.77L79.21,12.32a1.42,1.42,0,0,1,1-.08l26,7.83A1.42,1.42,0,0,1,107.07,20.69Z"/>
            </g>
            <g>
              <path class="cls-20" d="M110.63,115.65A17.25,17.25,0,0,1,133.88,128l-8.39,1.84a8.67,8.67,0,0,0-11.67-6.2Z"/>
              <path class="cls-15" d="M104.82,119.48l.41-.39,5.87,6.27a8.66,8.66,0,1,0,13.68,10.15l7.71,3.8a17.26,17.26,0,1,1-27.68-19.84Z"/>
              <path class="cls-18" d="M125.69,131.69a8.69,8.69,0,0,0-.2-1.85l8.39-1.84a17.18,17.18,0,0,1-1.38,11.32l-7.71-3.8A8.57,8.57,0,0,0,125.69,131.69Z"/>
              <path class="cls-21" d="M105.24,119.08a17,17,0,0,1,5.4-3.44l3.18,8a8.59,8.59,0,0,0-2.71,1.72Z"/>
            </g>
            <g>
              <path class="cls-22" d="M161.75,109.89c-4.56-1.42-6.37,1.88-5.94,4.41.62,3.59,2.57,4-2.22,7.11-3.54,2.29-4.37,7-.38,9.42,5.58,3.33-.37,5.9-1.67,8.75-2.68,5.88,1.71,7.33,8.81,10.25,7.29,3,12.75,1.54,17.84-3.1,3.76-3.42,6-7.29,3.74-10.79-3.24-5-8.55-1.61-6.49-6.5,1.23-2.93,1.35-8.38-5.3-8.86S168.31,111.94,161.75,109.89Z"/>
              <path class="cls-22" d="M169.55,160.19a2.29,2.29,0,0,1-2.29-2.16,75.59,75.59,0,0,0-4.51-22.51,2.29,2.29,0,0,1,4.23-1.77c.17.39,4,9.78,4.86,24a2.29,2.29,0,0,1-2.16,2.42Z"/>
              <g>
                <path class="cls-23" d="M188.81,100.51c5.74-1.2,7.56,3,6.73,6.1-1.18,4.32-3.62,4.58,1.87,8.95,4,3.22,4.5,9.11-.65,11.55-7.21,3.4-.25,7.25,1,10.88,2.57,7.51-3,8.74-12,11.47-9.27,2.8-15.76.37-21.42-5.91-4.18-4.63-6.46-9.62-3.29-13.62,4.56-5.75,10.64-.95,8.7-7.17-1.16-3.72-.65-10.4,7.53-10.19S180.55,102.24,188.81,100.51Z"/>
                <path class="cls-23" d="M173.57,161a2.76,2.76,0,0,1-.44,0,2.81,2.81,0,0,1-2.35-3.21c2.69-17.31,8.55-28.31,8.8-28.77a2.81,2.81,0,0,1,5,2.67c-.07.12-5.66,10.69-8.19,27A2.81,2.81,0,0,1,173.57,161Z"/>
              </g>
              <path class="cls-22" d="M178.83,140.44c5.94,8.67,7.86,14.59.35,15.33S162,137.19,167.56,133.48C171.49,130.86,176,136.3,178.83,140.44Z"/>
              <path class="cls-18" d="M182.4,176.53h-17a4.34,4.34,0,0,1-4.28-3.64l-3.75-22.95a.86.86,0,0,1,.85-1h31.37a.86.86,0,0,1,.85,1l-3.75,22.95A4.34,4.34,0,0,1,182.4,176.53Z"/>
              <path class="cls-22" d="M188.34,125c-5.3,1.61-9.71,3.83-6.28,5.38s15.35-3.4,13.69-5.53C194.58,123.33,190.87,124.2,188.34,125Z"/>
              <path class="cls-22" d="M188.69,108c-1.22,3.34-2.47,5-4.15,3.12s1.72-8.39,3.84-7.59C189.88,104.13,189.27,106.44,188.69,108Z"/>
              <path class="cls-23" d="M160.74,114.61c1.3,3.31,1.49,5.41-1,5.08s-4.27-7.43-2.15-8.23C159,110.9,160.12,113,160.74,114.61Z"/>
              <path class="cls-23" d="M154.58,130.37c-2.31-2.05-3.28-3.6-1.19-4.35s6.22,4.08,4.89,5.53C157.35,132.58,155.68,131.35,154.58,130.37Z"/>
              <path class="cls-22" d="M180.32,124c2.09-.7,3.4-.75,3.12.8s-4.73,2.41-5.17,1.07C178,124.92,179.32,124.32,180.32,124Z"/>
            </g>
            <g>
              <rect class="cls-6" x="205.1" y="127.19" width="1.89" height="3.45" transform="translate(-30.83 183.37) rotate(-44.98)"/>
              <path class="cls-15" d="M215.23,138.1h0a1.67,1.67,0,0,1-2.41-.05l-7-7.64,1.73-1.73,7.64,7A1.67,1.67,0,0,1,215.23,138.1Z"/>
              <path class="cls-24" d="M207.3,121.73a8.43,8.43,0,0,1-13.72,6.56,8.23,8.23,0,0,1-1.38-1.4,8.46,8.46,0,0,1-.67-1,8.35,8.35,0,0,1-1.07-3.49c0-.22,0-.44,0-.66a8.44,8.44,0,0,1,8.43-8.43l.67,0A8.33,8.33,0,0,1,203,114.4a8.47,8.47,0,0,1,1,.67,8.26,8.26,0,0,1,1.4,1.38A8.4,8.4,0,0,1,207.3,121.73Z"/>
              <path class="cls-25" d="M203,114.4l-11.49,11.49a8.35,8.35,0,0,1-1.07-3.49l9.07-9.07A8.33,8.33,0,0,1,203,114.4Z"/>
              <path class="cls-25" d="M205.43,116.44,193.58,128.3a8.23,8.23,0,0,1-1.38-1.4L204,115.07A8.26,8.26,0,0,1,205.43,116.44Z"/>
              <path class="cls-4" d="M198.87,131.45a9.72,9.72,0,1,1,6.87-16.59h0a9.72,9.72,0,0,1-6.87,16.59Zm0-16.85a7.14,7.14,0,1,0,5,2.09h0A7.12,7.12,0,0,0,198.87,114.6Z"/>
            </g>
            <path class="cls-26" d="M143.28,2.91a.5.5,0,0,1,.15-.35L145.83.15a.5.5,0,0,1,.71.71l-2.41,2.41a.5.5,0,0,1-.85-.35Z"/>
            <path class="cls-18" d="M69.13,22.79a2.49,2.49,0,1,1,2.49-2.49A2.5,2.5,0,0,1,69.13,22.79Zm0-4a1.49,1.49,0,1,0,1.49,1.49A1.5,1.5,0,0,0,69.13,18.81Z"/>
            <circle class="cls-19" cx="66.07" cy="16.05" r="1"/>
            <path class="cls-27" d="M194.73,94.34a5.15,5.15,0,1,1,5.14-5.15A5.15,5.15,0,0,1,194.73,94.34Zm0-8a2.87,2.87,0,1,0,2.86,2.87A2.87,2.87,0,0,0,194.73,86.33Z"/>
            <circle class="cls-27" cx="7.54" cy="58.86" r="2.91"/>
            <circle class="cls-4" cx="9.41" cy="113.91" r="1.31"/>
            <path class="cls-13" d="M16.28,106.65h-.94v-.94a.77.77,0,0,0-1.54,0v.94h-.94a.77.77,0,1,0,0,1.54h.94v.94a.77.77,0,0,0,1.54,0v-.94h.94a.77.77,0,1,0,0-1.54Z"/>
          </g>
          <g>
            <polygon class="cls-28" points="19.46 174.53 20.2 168.81 22.89 168.4 21.59 174.39 19.46 174.53"/>
            <path class="cls-29" d="M22.11,173.62a.94.94,0,0,1,.47.2,9.22,9.22,0,0,0,3.63,2.2c1.5.4.91,1.12-.57,1.12-2.17,0-3-.08-4-.06s-.34.06-2.72.06c-1.09,0-.73-2.13-.15-3.41a.76.76,0,0,1,.86-.46Z"/>
          </g>
          <g>
            <polygon class="cls-28" points="35.71 174.53 36.44 168.81 39.13 168.4 37.84 174.39 35.71 174.53"/>
            <path class="cls-29" d="M38.35,173.62a.94.94,0,0,1,.47.2A15,15,0,0,0,44,176.16c1.54.22,1.62,1-.55,1s-3.76-.19-4.72-.17a27.88,27.88,0,0,1-3.09.17c-1.82,0-1.25-2.33-.6-3.41a.82.82,0,0,1,.86-.46Z"/>
          </g>
          <g>
            <path class="cls-18" d="M18.9,95.66a2.47,2.47,0,0,1-1.48-.49c-1-.77-10-7.67-10-14.48s9-19.11,10-20.48a2.47,2.47,0,0,1,4,3c-3.5,4.66-9,13.53-9,17.5,0,3.28,4.92,8.19,8,10.52a2.48,2.48,0,0,1-1.49,4.46Z"/>
            <path class="cls-30" d="M64.63,81.26a2.48,2.48,0,0,1-1.12-4.69A3.44,3.44,0,0,0,65,75.28c-.43-1.3.45-1.76,1.75-2.19s2.52-.62,2.95.68c1.18,3.56-1.9,6.23-3.91,7.24A2.47,2.47,0,0,1,64.63,81.26Z"/>
            <g>
              <path class="cls-31" d="M81.33,69c-1.79,3-4.18,5.67-6.44,6.73-5.18,2.43-10.58-.17-13-5.36-3.06-6.53.38-17.28,7.34-14.69a20.16,20.16,0,0,0,4.89,1.17c5.53.58,8.37-1.73,9.46.58C84.94,60.33,83.65,65,81.33,69Z"/>
              <path class="cls-32" d="M67.31,76.42l-13,5.49-3.8,1.6L18.77,96.87,13,99.31a5.47,5.47,0,0,1-4.62-.17,5,5,0,0,1-1.12-.77,4.28,4.28,0,0,1-.82-.88,4.83,4.83,0,0,1-.54-.91l0-.06a5.27,5.27,0,0,1-.31-.89,5.46,5.46,0,0,1,2.78-6.26l10.82-5.6L43.26,71.3l4.86-2.52,12.56-6.49Z"/>
              <path class="cls-29" d="M5.56,95.63A5.37,5.37,0,0,1,5.51,93L61.46,64l3.12,6.65Z"/>
              <polygon class="cls-33" points="67.31 76.43 54.28 81.92 48.13 68.79 60.69 62.29 67.31 76.43"/>
              <path class="cls-11" d="M81.33,69c-1.12-1.3-.34-3.34-1.84-4.17-1.93-1.08-4,.58-5.68-.76a4.43,4.43,0,0,1-1.32-3.31,5.63,5.63,0,0,1,1.32-3.57,3.22,3.22,0,0,1,.3-.34c5.53.58,8.37-1.73,9.46.58C84.94,60.33,83.65,65,81.33,69Z"/>
              <path class="cls-11" d="M72.33,65.94c0,1.23-.41,2.08-1.64,2.08a2.23,2.23,0,0,1-2.23-2.23,2,2,0,0,1,2.23-1.92C71.93,63.86,72.33,64.71,72.33,65.94Z"/>
              <path class="cls-34" d="M63.61,72.73l-.09-.84c12.8-1.39,21.28-10.45,21.36-10.54l.62.57C85.41,62,76.73,71.31,63.61,72.73Z"/>
              <path class="cls-34" d="M64.92,73.84,64.83,73c12.81-1.39,18.62-7.52,18.67-7.58l.62.57C83.88,66.25,78,72.41,64.92,73.84Z"/>
              <path class="cls-34" d="M61.25,64l-.71-.45c4.82-7.58,12-8.33,12.28-8.36l.08.84A17.05,17.05,0,0,0,61.25,64Z"/>
              <polygon class="cls-16" points="55.31 82.05 48.68 67.91 61.12 61.15 68.46 76.82 55.31 82.05"/>
              <polygon class="cls-35" points="53.79 78.8 51.37 73.64 64.03 67.37 66.71 73.08 53.79 78.8"/>
              <polygon class="cls-36" points="49.2 69.02 50.63 72.06 63.29 65.79 61.73 62.45 49.2 69.02"/>
            </g>
            <polygon class="cls-37" points="50.47 83.52 18.77 96.87 19.15 83.78 43.26 71.31 50.47 83.52"/>
            <path class="cls-30" d="M30.47,67A2.92,2.92,0,0,1,28,65.55s-.32-.53-1.83-2.92c-2.1-3.34-1.37-9.09-1.21-10.21a2.93,2.93,0,0,1,5.79.86h0c-.33,2.21-.25,5.23.37,6.22,1.67,2.64,1.91,3,1.91,3A2.93,2.93,0,0,1,30.47,67Z"/>
            <path class="cls-15" d="M22.07,112.32s-2.54-4.65-.91-13.56H42s.29,6.78-.18,13.56Z"/>
            <g>
              <path class="cls-15" d="M25.86,106.3c-2.28-.08-4.59,1.11-4.68,3.41,0,.22,1.86,24.18.89,32.15-.83,6.76-2.36,23.17-3.42,30l4.4.1c2.42-6.92,5.8-24,6.68-29.85,1.22-8.08,1-30.22,1-31.15C30.83,108.66,28.16,106.4,25.86,106.3Z"/>
              <path class="cls-15" d="M37.55,106.31c-2.27-.09-5.85,2.26-5.95,4.55,0,.22,3.78,22.92,3.76,30.64,0,6.77-.74,24.32-.81,30.61l4.53.21c1.06-6.84,2.93-23.59,3.81-29.41,1.22-8.08-1.27-33.27-1.24-34.19C41.75,106.41,39.85,106.4,37.55,106.31Z"/>
            </g>
            <circle class="cls-30" cx="29.03" cy="46.51" r="9.3"/>
            <path class="cls-18" d="M21.16,98.77c.61-8.39-2.21-29.24-3.66-37.54a2.06,2.06,0,0,1,2-2.41H36.77a2.09,2.09,0,0,1,1.73.94,2.42,2.42,0,0,1,.26.59c1,3.76,1.79,13.36,2.35,22,0,0,0,0,0,0C41.67,91,42,98.77,42,98.77Z"/>
            <path class="cls-38" d="M41.11,82.35c-1.93-7.62-4.25-15.43-5.66-19.73A2.05,2.05,0,0,1,37.11,60l1.39-.2a2.42,2.42,0,0,1,.26.59C39.74,64.1,40.55,73.71,41.11,82.35Z"/>
            <path class="cls-18" d="M53,85.31c-2.43,0-5-.72-6.25-2.86-1.76-3.13-10.79-17.79-11.78-19.52a2.48,2.48,0,0,1,.92-3.38,2.58,2.58,0,0,1,3.38.92c4.51,6.23,10,17.2,11.33,18.87,1.61,2,8.72,1.06,13-1.31,1.19-.67,2.31-.84,2.87.06.72,1.16.64,2.19-.55,2.86C64.24,81.84,58.39,84.81,53,85.31Z"/>
            <path class="cls-30" d="M17.83,47.25A3.38,3.38,0,0,0,19,49.84a1.34,1.34,0,0,0,2.19-1.06V45.72A1.34,1.34,0,0,0,19,44.66,3.38,3.38,0,0,0,17.83,47.25Z"/>
            <path class="cls-30" d="M40.23,47.25A3.38,3.38,0,0,1,39,49.84a1.34,1.34,0,0,1-2.18-1.06V45.72A1.34,1.34,0,0,1,39,44.66,3.38,3.38,0,0,1,40.23,47.25Z"/>
            <g>
              <path class="cls-4" d="M32.14,37.72c2.27.6,4.22,3.43,4.42,5.77.38,4.33-2.24,11.1-9,11.1-8.82,0-9.44-8.57-9.05-10.72S20.25,38,23.7,37.61C25.77,37.35,29.72,37.08,32.14,37.72Z"/>
              <path class="cls-4" d="M31.12,36.45a14.59,14.59,0,0,0-1.69-.29c-4.44-.5-10-.65-6.75,3.31,2,2.41,13.14,4,14.37-.72a.91.91,0,0,0-.7-1.08Z"/>
            </g>
            <g>
              <path class="cls-15" d="M29.43,42.46a20.25,20.25,0,0,1-2.34.42c-6.15.74-13.85,1-9.39-4.52,2.72-3.37,18.17-5.61,19.93.85a1.26,1.26,0,0,1-1,1.5Z"/>
              <circle class="cls-15" cx="26.23" cy="35" r="1.18" transform="translate(-2 1.59) rotate(-3.34)"/>
            </g>
            <path class="cls-39" d="M24,61.21c-1.12,0-2.29,0-3.52-.14a3,3,0,0,1,.49-6,31.26,31.26,0,0,0,13.74-1.65,3,3,0,0,1,2.43,5.48A34.64,34.64,0,0,1,24,61.21Z"/>
            <path class="cls-39" d="M29.14,59.29a22.43,22.43,0,0,1-8.66-1.54,3,3,0,0,1,2.43-5.49,18.74,18.74,0,0,0,8.07.95,3,3,0,1,1,.48,6C30.65,59.26,29.88,59.29,29.14,59.29Z"/>
            <path class="cls-39" d="M19.73,82.79a3,3,0,0,1-2.58-4.53A31,31,0,0,0,20,59a3,3,0,1,1,5.92-1,36.53,36.53,0,0,1-3.59,23.37A3,3,0,0,1,19.73,82.79Z"/>
          </g>
          <g>
            <path class="cls-40" d="M38,172.8l-.5-.05c0-.2,2.11-20.16,2.76-24a87.33,87.33,0,0,0,1-13.31c-.08-4.34-1.37-25-1.39-25.25.26-3.62.26-12,.26-12.11h.5c0,.08,0,8.51-.26,12.11,0,.17,1.31,20.88,1.39,25.24a87.89,87.89,0,0,1-1,13.4C40.08,152.66,38,172.6,38,172.8Z"/>
            <rect class="cls-40" x="19.87" y="100.54" width="7.16" height="0.5"/>
          </g>
        </g>
      </g>
    </g>
  </g>
</svg>
