<svg xmlns="http://www.w3.org/2000/svg" xmlns:xlink="http://www.w3.org/1999/xlink" viewBox="0 0 297.59 216.7">
  <defs>
    <style>
      .cls-1 {
        fill: none;
      }

      .cls-2 {
        isolation: isolate;
      }

      .cls-12, .cls-16, .cls-3 {
        fill: #ffd180;
      }

      .cls-3 {
        opacity: 0.4;
      }

      .cls-4 {
        fill: #ebfff8;
      }

      .cls-5 {
        fill: #d3e8f2;
      }

      .cls-6 {
        fill: url(#Gradient_bez_nazwy_12);
      }

      .cls-7 {
        fill: url(#Gradient_bez_nazwy_12-2);
      }

      .cls-8 {
        fill: url(#Gradient_bez_nazwy_12-3);
      }

      .cls-9 {
        fill: url(#Gradient_bez_nazwy_11);
      }

      .cls-10 {
        fill: #ffe1ab;
      }

      .cls-11, .cls-13 {
        fill: #f7634b;
      }

      .cls-12, .cls-71 {
        opacity: 0.7;
      }

      .cls-13 {
        opacity: 0.6;
      }

      .cls-14 {
        fill: #eff4f4;
      }

      .cls-15 {
        fill: url(#Gradient_bez_nazwy_11-2);
      }

      .cls-17 {
        fill: #f8fffb;
      }

      .cls-18, .cls-57, .cls-75 {
        opacity: 0.3;
      }

      .cls-18, .cls-57, .cls-79 {
        mix-blend-mode: multiply;
      }

      .cls-19 {
        fill: #95efc6;
      }

      .cls-20 {
        fill: #d8d8d8;
      }

      .cls-21 {
        fill: url(#Gradient_bez_nazwy_12-4);
      }

      .cls-22 {
        fill: url(#Gradient_bez_nazwy_12-5);
      }

      .cls-23 {
        fill: url(#Gradient_bez_nazwy_12-6);
      }

      .cls-24 {
        fill: url(#Gradient_bez_nazwy_12-7);
      }

      .cls-25 {
        fill: url(#Gradient_bez_nazwy_12-8);
      }

      .cls-26 {
        fill: url(#Gradient_bez_nazwy_12-9);
      }

      .cls-27 {
        fill: url(#Gradient_bez_nazwy_12-10);
      }

      .cls-28 {
        fill: url(#Gradient_bez_nazwy_12-11);
      }

      .cls-29 {
        fill: url(#Gradient_bez_nazwy_12-12);
      }

      .cls-30 {
        fill: url(#Gradient_bez_nazwy_12-13);
      }

      .cls-31 {
        fill: url(#Gradient_bez_nazwy_12-14);
      }

      .cls-32 {
        fill: url(#Gradient_bez_nazwy_12-15);
      }

      .cls-33 {
        fill: url(#Gradient_bez_nazwy_12-16);
      }

      .cls-34 {
        fill: url(#Gradient_bez_nazwy_12-17);
      }

      .cls-35 {
        fill: url(#Gradient_bez_nazwy_12-18);
      }

      .cls-36 {
        fill: url(#Gradient_bez_nazwy_12-19);
      }

      .cls-37 {
        fill: url(#Gradient_bez_nazwy_3);
      }

      .cls-38 {
        fill: url(#Gradient_bez_nazwy_3-2);
      }

      .cls-39 {
        fill: url(#Gradient_bez_nazwy_8);
      }

      .cls-40 {
        fill: url(#Gradient_bez_nazwy_8-2);
      }

      .cls-41 {
        fill: url(#Gradient_bez_nazwy_10);
      }

      .cls-42 {
        fill: #ea8f68;
      }

      .cls-43 {
        fill: url(#Gradient_bez_nazwy_8-3);
      }

      .cls-44 {
        fill: url(#Gradient_bez_nazwy_11-3);
      }

      .cls-45 {
        fill: url(#Gradient_bez_nazwy_11-4);
      }

      .cls-46 {
        fill: url(#Gradient_bez_nazwy_11-5);
      }

      .cls-47 {
        fill: url(#Gradient_bez_nazwy_11-6);
      }

      .cls-48 {
        fill: #ffaf84;
      }

      .cls-49 {
        fill: url(#Gradient_bez_nazwy_11-7);
      }

      .cls-50 {
        fill: url(#Gradient_bez_nazwy_8-4);
      }

      .cls-51 {
        fill: url(#Gradient_bez_nazwy_8-5);
      }

      .cls-52 {
        fill: url(#Gradient_bez_nazwy_8-6);
      }

      .cls-53 {
        fill: url(#Gradient_bez_nazwy_10-2);
      }

      .cls-54 {
        fill: url(#Gradient_bez_nazwy_8-7);
      }

      .cls-55 {
        fill: url(#Gradient_bez_nazwy_10-3);
      }

      .cls-56 {
        clip-path: url(#clip-path);
      }

      .cls-57 {
        fill: url(#Gradient_bez_nazwy_2);
      }

      .cls-58 {
        fill: url(#Gradient_bez_nazwy_7);
      }

      .cls-59 {
        fill: url(#Gradient_bez_nazwy_3-3);
      }

      .cls-60 {
        fill: url(#Gradient_bez_nazwy_3-4);
      }

      .cls-61 {
        fill: url(#Gradient_bez_nazwy_3-5);
      }

      .cls-62 {
        fill: url(#Gradient_bez_nazwy_8-8);
      }

      .cls-63 {
        fill: url(#Gradient_bez_nazwy_8-9);
      }

      .cls-64 {
        fill: url(#Gradient_bez_nazwy_8-10);
      }

      .cls-65 {
        fill: url(#Gradient_bez_nazwy_9);
      }

      .cls-66 {
        fill: url(#Gradient_bez_nazwy_8-11);
      }

      .cls-67 {
        fill: url(#Gradient_bez_nazwy_7-2);
      }

      .cls-68 {
        fill: url(#Gradient_bez_nazwy_7-3);
      }

      .cls-69 {
        fill: url(#Gradient_bez_nazwy_7-4);
      }

      .cls-70 {
        fill: url(#Gradient_bez_nazwy_7-5);
      }

      .cls-72 {
        fill: url(#Gradient_bez_nazwy_5);
      }

      .cls-73 {
        fill: #e3fff0;
      }

      .cls-74 {
        fill: url(#Gradient_bez_nazwy_4);
      }

      .cls-75 {
        fill: #f5feff;
      }

      .cls-76 {
        fill: url(#Gradient_bez_nazwy_3-6);
      }

      .cls-77 {
        fill: url(#Gradient_bez_nazwy_3-7);
      }

      .cls-78 {
        clip-path: url(#clip-path-2);
      }

      .cls-79 {
        opacity: 0.2;
        fill: url(#Gradient_bez_nazwy_2-2);
      }
    </style>
    <linearGradient id="Gradient_bez_nazwy_12" data-name="Gradient bez nazwy 12" x1="75.85" y1="19.19" x2="121.95" y2="19.19" gradientUnits="userSpaceOnUse">
      <stop offset="0" stop-color="#008161"/>
      <stop offset="1" stop-color="#9fff31"/>
    </linearGradient>
    <linearGradient id="Gradient_bez_nazwy_12-2" x1="75.85" y1="23.22" x2="121.95" y2="23.22" xlink:href="#Gradient_bez_nazwy_12"/>
    <linearGradient id="Gradient_bez_nazwy_12-3" x1="75.85" y1="27.25" x2="121.95" y2="27.25" xlink:href="#Gradient_bez_nazwy_12"/>
    <linearGradient id="Gradient_bez_nazwy_11" data-name="Gradient bez nazwy 11" x1="156.01" y1="165.09" x2="150.07" y2="132.91" gradientUnits="userSpaceOnUse">
      <stop offset="0" stop-color="#f70f47"/>
      <stop offset="1" stop-color="#ffb41d"/>
    </linearGradient>
    <linearGradient id="Gradient_bez_nazwy_11-2" x1="134.97" y1="8.19" x2="154.72" y2="8.19" xlink:href="#Gradient_bez_nazwy_11"/>
    <linearGradient id="Gradient_bez_nazwy_12-4" x1="-769.07" y1="146.98" x2="-757.97" y2="135.09" gradientTransform="matrix(-1, -0.01, -0.01, 1, -717.26, -11.9)" xlink:href="#Gradient_bez_nazwy_12"/>
    <linearGradient id="Gradient_bez_nazwy_12-5" x1="-525.92" y1="47.78" x2="-514.82" y2="35.89" gradientTransform="matrix(-0.93, -0.37, -0.37, 0.93, -415.2, -99.42)" xlink:href="#Gradient_bez_nazwy_12"/>
    <linearGradient id="Gradient_bez_nazwy_12-6" x1="-198.97" y1="60.8" x2="-188.92" y2="50.04" gradientTransform="matrix(-0.66, -0.75, -0.75, 0.66, -28.53, -47.91)" xlink:href="#Gradient_bez_nazwy_12"/>
    <linearGradient id="Gradient_bez_nazwy_12-7" x1="81.84" y1="213.11" x2="90.86" y2="203.44" gradientTransform="matrix(-0.27, -0.96, -0.96, 0.27, 286.44, 162.67)" xlink:href="#Gradient_bez_nazwy_12"/>
    <linearGradient id="Gradient_bez_nazwy_12-8" x1="76.72" y1="146.91" x2="49.79" y2="105.69" xlink:href="#Gradient_bez_nazwy_12"/>
    <linearGradient id="Gradient_bez_nazwy_12-9" x1="-877.92" y1="150.22" x2="-844.84" y2="97.91" gradientTransform="matrix(-1, 0, 0, 1, -807.72, 0)" xlink:href="#Gradient_bez_nazwy_12"/>
    <linearGradient id="Gradient_bez_nazwy_12-10" x1="99.19" y1="208.15" x2="129.5" y2="175.67" gradientTransform="translate(-77.91 -69.57) rotate(-11.52)" xlink:href="#Gradient_bez_nazwy_12"/>
    <linearGradient id="Gradient_bez_nazwy_12-11" x1="-854.62" y1="151.06" x2="-890.32" y2="94.59" gradientTransform="matrix(-1, 0, 0, 1, -807.72, 0)" xlink:href="#Gradient_bez_nazwy_12"/>
    <linearGradient id="Gradient_bez_nazwy_12-12" x1="-676.38" y1="16.56" x2="-620.65" y2="-43.17" gradientTransform="matrix(-0.96, -0.27, -0.27, 0.96, -597.39, -97.44)" xlink:href="#Gradient_bez_nazwy_12"/>
    <linearGradient id="Gradient_bez_nazwy_12-13" x1="-875.01" y1="150.55" x2="-825.68" y2="60.6" gradientTransform="matrix(-1, 0, 0, 1, -807.72, 0)" xlink:href="#Gradient_bez_nazwy_12"/>
    <linearGradient id="Gradient_bez_nazwy_12-14" x1="-877.75" y1="138.79" x2="-837.54" y2="95.7" gradientTransform="matrix(-1, 0.05, 0.05, 1, -843.8, 27.61)" xlink:href="#Gradient_bez_nazwy_12"/>
    <linearGradient id="Gradient_bez_nazwy_12-15" x1="-869.94" y1="148.64" x2="-815.98" y2="99.37" gradientTransform="matrix(-1, 0, 0, 1, -807.72, 0)" xlink:href="#Gradient_bez_nazwy_12"/>
    <linearGradient id="Gradient_bez_nazwy_12-16" x1="-841.58" y1="91.06" x2="-835.55" y2="80.07" gradientTransform="matrix(-1, 0, 0, 1, -807.72, 0)" xlink:href="#Gradient_bez_nazwy_12"/>
    <linearGradient id="Gradient_bez_nazwy_12-17" x1="-839.36" y1="79.81" x2="-835.55" y2="69.85" gradientTransform="matrix(-1, 0, 0, 1, -807.72, 0)" xlink:href="#Gradient_bez_nazwy_12"/>
    <linearGradient id="Gradient_bez_nazwy_12-18" x1="-859.09" y1="84.89" x2="-859.06" y2="75.46" gradientTransform="matrix(-1, 0, 0, 1, -807.72, 0)" xlink:href="#Gradient_bez_nazwy_12"/>
    <linearGradient id="Gradient_bez_nazwy_12-19" x1="-852.69" y1="73.74" x2="-851.09" y2="66.56" gradientTransform="matrix(-1, 0, 0, 1, -807.72, 0)" xlink:href="#Gradient_bez_nazwy_12"/>
    <linearGradient id="Gradient_bez_nazwy_3" data-name="Gradient bez nazwy 3" x1="-861.3" y1="139.77" x2="-861.3" y2="156.72" gradientTransform="matrix(-1, 0, 0, 1, -807.72, 0)" gradientUnits="userSpaceOnUse">
      <stop offset="0" stop-color="#f70f47"/>
      <stop offset="1" stop-color="#9e005d"/>
    </linearGradient>
    <linearGradient id="Gradient_bez_nazwy_3-2" x1="-861.3" y1="144.1" x2="-861.3" y2="136.72" xlink:href="#Gradient_bez_nazwy_3"/>
    <linearGradient id="Gradient_bez_nazwy_8" data-name="Gradient bez nazwy 8" x1="236.63" y1="179.82" x2="237.76" y2="150.13" gradientUnits="userSpaceOnUse">
      <stop offset="0" stop-color="#36078b"/>
      <stop offset="1" stop-color="#168d68"/>
    </linearGradient>
    <linearGradient id="Gradient_bez_nazwy_8-2" x1="211.9" y1="49.04" x2="194.02" y2="59.71" xlink:href="#Gradient_bez_nazwy_8"/>
    <linearGradient id="Gradient_bez_nazwy_10" data-name="Gradient bez nazwy 10" x1="221.85" y1="27.4" x2="212.1" y2="12.15" gradientUnits="userSpaceOnUse">
      <stop offset="0" stop-color="#36078b"/>
      <stop offset="1" stop-color="#16b1ff"/>
    </linearGradient>
    <linearGradient id="Gradient_bez_nazwy_8-3" x1="219.86" y1="96.72" x2="224.1" y2="40.47" xlink:href="#Gradient_bez_nazwy_8"/>
    <linearGradient id="Gradient_bez_nazwy_11-3" x1="227.89" y1="165.43" x2="216.59" y2="42.18" xlink:href="#Gradient_bez_nazwy_11"/>
    <linearGradient id="Gradient_bez_nazwy_11-4" x1="236.3" y1="164.66" x2="225" y2="41.41" xlink:href="#Gradient_bez_nazwy_11"/>
    <linearGradient id="Gradient_bez_nazwy_11-5" x1="233.91" y1="164.87" x2="222.61" y2="41.64" xlink:href="#Gradient_bez_nazwy_11"/>
    <linearGradient id="Gradient_bez_nazwy_11-6" x1="220.84" y1="166.07" x2="209.54" y2="42.83" xlink:href="#Gradient_bez_nazwy_11"/>
    <linearGradient id="Gradient_bez_nazwy_11-7" x1="221.25" y1="166.05" x2="209.94" y2="42.75" xlink:href="#Gradient_bez_nazwy_11"/>
    <linearGradient id="Gradient_bez_nazwy_8-4" x1="-148.02" y1="-105.04" x2="-115.45" y2="-122.82" gradientTransform="translate(280.54 221.58) rotate(27.36)" xlink:href="#Gradient_bez_nazwy_8"/>
    <linearGradient id="Gradient_bez_nazwy_8-5" x1="149.12" y1="-25.71" x2="117.14" y2="-16.89" gradientTransform="translate(74.68 54.13) rotate(7.18)" xlink:href="#Gradient_bez_nazwy_8"/>
    <linearGradient id="Gradient_bez_nazwy_8-6" x1="219.33" y1="179.16" x2="220.46" y2="149.47" xlink:href="#Gradient_bez_nazwy_8"/>
    <linearGradient id="Gradient_bez_nazwy_10-2" x1="229.4" y1="22.57" x2="219.65" y2="7.32" xlink:href="#Gradient_bez_nazwy_10"/>
    <linearGradient id="Gradient_bez_nazwy_8-7" x1="-485.25" y1="-105.13" x2="-451.52" y2="-123.54" gradientTransform="translate(422.54 485.78) rotate(51.51)" xlink:href="#Gradient_bez_nazwy_8"/>
    <linearGradient id="Gradient_bez_nazwy_10-3" x1="226.55" y1="24.39" x2="216.8" y2="9.14" xlink:href="#Gradient_bez_nazwy_10"/>
    <clipPath id="clip-path">
      <path class="cls-1" d="M240.7,172.2a11.69,11.69,0,0,1-.71-3.3c.11,0,.1-.12.12-.59.2-5.35.51-33.29-3.23-41.67v0c0-.19,0-.37-.06-.56-.67-4.89-2.55-31.44-3-35.12A40.27,40.27,0,0,0,233,82c-.65-7.67.84-21,4.19-32A17.91,17.91,0,0,0,238,45.4c.09-.46.16-.87.24-1.24a3.89,3.89,0,0,0-1.92-4.27,8.48,8.48,0,0,0-5.08-2.64c-.82-.15-1.7-.31-2.58-.43-.07-1.39-.17-2.82-.27-4a5.38,5.38,0,0,0,1.78-3.38A3.33,3.33,0,0,0,232,27.36c.59-1.44.45-2.86-.3-3.17a.83.83,0,0,0-.33-.05c.29-1,.06-2.22-.46-4.16-.31-1.16-.75-1.75-1.29-2,.63-1-.24-2.51-2.82-3.29-5.9-1.68-12.69,3-12.69,3a9.27,9.27,0,0,0,3.32.57,9.45,9.45,0,0,1-1.84,1.38,9.88,9.88,0,0,0,1.06.17c-.91,1.57-.41,4.93-.08,6.06a4.85,4.85,0,0,0,.31.81,24.9,24.9,0,0,0,.68,4.81,6.4,6.4,0,0,0,.38,1,3.51,3.51,0,0,0-2.33-.65c-1.13.19.32,3.22,1.59,5.5a10.92,10.92,0,0,0-2.3.83A9.91,9.91,0,0,0,210.33,43c-2.28,3.42-3.94,6.14-5.15,8.2-1,.11-1.89,2.1-1.59,2.76l0,0-.71,1.31c-1.9,3.45,1,6.39,2.86,6.23a2,2,0,0,0,1.68-.42,9.56,9.56,0,0,0,1-1c-.57,11-.64,21.91-.64,21.91a89,89,0,0,0,1,15.39h0c.94,9.18,2.62,25.41,3,29.16a18.17,18.17,0,0,0,.37,2.4,10.21,10.21,0,0,0,.2,1.35c1.69,8,6.24,23.71,8.67,39.26a8.72,8.72,0,0,1-3.53,2.55c-1.9.82-5.94,1.2-3.7,1.93a13.94,13.94,0,0,0,6.18.08,27.83,27.83,0,0,1,4.17-.24c2.06,0,2.07-.13,1.8-2.37a3.66,3.66,0,0,0-.32-1.12c-1.6-11.71-.18-32.93-4.39-42.31.63-7.58-.16-23.84-.14-30.46q0,.43.07.87c.43,4.92,4,20.59,6.49,29.58a10,10,0,0,0,.31,2.26c2,7.94,6.5,31,7.29,38.24h0c-.1.63-.06,1-.15,1.56-.15.92-1,1.25-1.53,2s-1.44,2.16,2,2.23C239.15,174.45,241.33,174.2,240.7,172.2ZM221.38,35.42c0,.4,0,.81,0,1.24h-.08a4.53,4.53,0,0,0-.47-1.37A3.11,3.11,0,0,0,221.38,35.42Z"/>
    </clipPath>
    <linearGradient id="Gradient_bez_nazwy_2" data-name="Gradient bez nazwy 2" x1="206.02" y1="630.49" x2="344.42" y2="715.52" gradientTransform="matrix(0.23, -0.93, -0.61, -0.37, 605.14, 615.07)" gradientUnits="userSpaceOnUse">
      <stop offset="0" stop-color="blue"/>
      <stop offset="1" stop-color="#9e005d"/>
    </linearGradient>
    <linearGradient id="Gradient_bez_nazwy_7" data-name="Gradient bez nazwy 7" x1="97.98" y1="63.39" x2="58.98" y2="35.27" gradientUnits="userSpaceOnUse">
      <stop offset="0" stop-color="#2c27ce"/>
      <stop offset="0.65" stop-color="#ef1d68"/>
      <stop offset="1" stop-color="#efba92"/>
    </linearGradient>
    <linearGradient id="Gradient_bez_nazwy_3-3" x1="374" y1="712.78" x2="361.95" y2="742.81" gradientTransform="matrix(0.61, -0.79, 0.79, 0.61, -713.35, -92.42)" xlink:href="#Gradient_bez_nazwy_3"/>
    <linearGradient id="Gradient_bez_nazwy_3-4" x1="359.81" y1="406.43" x2="346.32" y2="440.07" gradientTransform="matrix(0.85, -0.52, 0.52, 0.85, -424.43, -129.3)" xlink:href="#Gradient_bez_nazwy_3"/>
    <linearGradient id="Gradient_bez_nazwy_3-5" x1="76.35" y1="60.05" x2="80.8" y2="98.31" gradientTransform="matrix(1, 0, 0, 1, 0, 0)" xlink:href="#Gradient_bez_nazwy_3"/>
    <linearGradient id="Gradient_bez_nazwy_8-8" x1="84.27" y1="86.63" x2="66.62" y2="137.99" xlink:href="#Gradient_bez_nazwy_8"/>
    <linearGradient id="Gradient_bez_nazwy_8-9" x1="-18.34" y1="8.92" x2="-36.37" y2="61.41" gradientTransform="matrix(0.99, 0.15, -0.15, 0.99, 114.95, 85.02)" xlink:href="#Gradient_bez_nazwy_8"/>
    <linearGradient id="Gradient_bez_nazwy_8-10" x1="81.43" y1="85.66" x2="63.78" y2="137.02" xlink:href="#Gradient_bez_nazwy_8"/>
    <linearGradient id="Gradient_bez_nazwy_9" data-name="Gradient bez nazwy 9" x1="106.56" y1="94.29" x2="88.91" y2="145.65" gradientUnits="userSpaceOnUse">
      <stop offset="0" stop-color="#36078b"/>
      <stop offset="0.41" stop-color="#293e7d"/>
      <stop offset="1" stop-color="#168d68"/>
    </linearGradient>
    <linearGradient id="Gradient_bez_nazwy_8-11" x1="94.89" y1="90.29" x2="77.24" y2="141.64" xlink:href="#Gradient_bez_nazwy_8"/>
    <linearGradient id="Gradient_bez_nazwy_7-2" x1="89.73" y1="190.77" x2="91.73" y2="166.19" xlink:href="#Gradient_bez_nazwy_7"/>
    <linearGradient id="Gradient_bez_nazwy_7-3" x1="61.54" y1="195.33" x2="64.05" y2="164.36" xlink:href="#Gradient_bez_nazwy_7"/>
    <linearGradient id="Gradient_bez_nazwy_7-4" x1="93.29" y1="58.03" x2="71.17" y2="32.78" xlink:href="#Gradient_bez_nazwy_7"/>
    <linearGradient id="Gradient_bez_nazwy_7-5" x1="97.85" y1="54.04" x2="75.72" y2="28.79" xlink:href="#Gradient_bez_nazwy_7"/>
    <linearGradient id="Gradient_bez_nazwy_5" data-name="Gradient bez nazwy 5" x1="-677.92" y1="-2.3" x2="-677.92" y2="-123.79" gradientTransform="translate(421.89 675.29) rotate(54.35)" gradientUnits="userSpaceOnUse">
      <stop offset="0" stop-color="#2c27ce"/>
      <stop offset="1" stop-color="#ef1d68"/>
    </linearGradient>
    <linearGradient id="Gradient_bez_nazwy_4" data-name="Gradient bez nazwy 4" x1="-678.29" y1="9.86" x2="-678.29" y2="-90.12" gradientTransform="matrix(0, 1, -1, 0, 15.33, 767.41)" gradientUnits="userSpaceOnUse">
      <stop offset="0" stop-color="#2ca6ef"/>
      <stop offset="1" stop-color="#b1ffff"/>
    </linearGradient>
    <linearGradient id="Gradient_bez_nazwy_3-6" x1="30.91" y1="-63.96" x2="16.42" y2="-27.83" gradientTransform="matrix(0.71, 0.18, -0.26, 0.97, 31.71, 107.06)" xlink:href="#Gradient_bez_nazwy_3"/>
    <linearGradient id="Gradient_bez_nazwy_3-7" x1="-394.68" y1="-145" x2="-405.24" y2="-118.68" gradientTransform="matrix(0.81, 0.58, -0.58, 0.81, 318.52, 410.54)" xlink:href="#Gradient_bez_nazwy_3"/>
    <clipPath id="clip-path-2">
      <path class="cls-1" d="M125.07,81.14,105.66,54.07c.46-.49.72-.82.68-1.35a1.61,1.61,0,0,0-.39-.84,2.69,2.69,0,0,0-.17-.57,4.45,4.45,0,0,0-2.69-1.74.63.63,0,0,0-.52.18l-3.69-5.14a2.62,2.62,0,0,0-3.65-.6L90,47.73l-8,5.71a6.59,6.59,0,0,0-1.81-.77,11.87,11.87,0,0,0-1.94-.27L77,52.3c0-.48,0-.94,0-1.38a8.69,8.69,0,0,0,1.38.12c2.1,0,3.66-2.22,4.14-4a29,29,0,0,0,.67-8.53c.41,1,.59-2.66-.35-4.34a7.45,7.45,0,0,0-3.28-2.7,7.55,7.55,0,0,0-5.27-.95c0-1.85-1.64-3.94-4.67-4.19C65.09,26,57,28.62,61.36,39.2c4.5,11,3.09,13.83.06,15.48A13.15,13.15,0,0,0,67,53.74a3.84,3.84,0,0,0-.72.78,60.39,60.39,0,0,0-5.21,5.55c-5.27,6.19-6.95,9.28-7.54,10.75a1.37,1.37,0,0,0,0,1,2.52,2.52,0,0,0,.75,1.5L25.61,93.94a2.62,2.62,0,0,0-.6,3.65l26.2,36.53a2.62,2.62,0,0,0,3.65.6l11.1-8c-.2,2.34-.37,4.18-.49,5.11,0,.22,0,.42-.07.63-4,7-5.8,30.93-6.34,35.43,0,.25,0,.38.09.45a3.06,3.06,0,0,0-.51,1.39c-.23,1.92-.22,2,1.49,2,1.29,0,1.47,1.2,2.56,1.38a11.1,11.1,0,0,0,5.12-.07c1.86-.62-1.49-1-3.06-1.65-1.4-.62-1.75-2.44-2-3.18,1.66-6.25,7-25.37,9.67-31.8a8,8,0,0,0,.62-2.63c1.15-4.07,2.67-9.82,3.9-15l3.22-2.31c1.11,6.21,2.54,13.76,3.66,18-2.14,8.6,1.9,26.12,2.15,36.23h0c0,.06,0,.12,0,.19-.23,1.92-.22,2,1.49,2a22.2,22.2,0,0,1,3.45.21A11.1,11.1,0,0,0,96,173.1c1.86-.62-1.49-1-3.06-1.65a7.1,7.1,0,0,1-3-2.24,1.39,1.39,0,0,0-.26-.34c-.13-13.44,1.35-26.83,1.64-33.77a9,9,0,0,0,0-1.17,16.19,16.19,0,0,0,0-2.09c-.22-2.89-.68-14.47-1-22.55l7.78-5.58a1.09,1.09,0,0,0,1.26,0l9.09-6.52a1.09,1.09,0,0,0,.41-1.19l10.4-7.46,5.19-3.72A2.62,2.62,0,0,0,125.07,81.14ZM62.23,167.53a1.56,1.56,0,0,0-.33-.17A.87.87,0,0,1,62.23,167.53ZM71.06,47.46a7.75,7.75,0,0,0,1,1.09c-.07,1.1-.13,2.38-.18,3.64a11.47,11.47,0,0,0-3.33.69A6.42,6.42,0,0,0,71.06,47.46ZM67.21,62.9l.4.92L63.14,67Z"/>
    </clipPath>
    <linearGradient id="Gradient_bez_nazwy_2-2" x1="40.92" y1="1260.49" x2="153.46" y2="1329.64" gradientTransform="matrix(0.5, -0.86, -0.57, -0.49, 739.82, 835.94)" xlink:href="#Gradient_bez_nazwy_2"/>
  </defs>
  <title>ui-ux-design</title>
  <g class="cls-2">
    <g id="Layer_2" data-name="Layer 2">
      <g id="Objects">
        <g>
          <g>
            <rect class="cls-3" x="103.74" y="6.47" width="90.6" height="90.6"/>
            <g>
              <rect class="cls-4" x="98.75" y="14.95" width="88.4" height="16.54"/>
              <rect class="cls-5" x="172.75" y="17.34" width="11.75" height="11.75"/>
              <rect class="cls-6" x="104.46" y="18.05" width="25.44" height="2.27"/>
              <rect class="cls-7" x="104.46" y="22.08" width="25.44" height="2.27"/>
              <rect class="cls-8" x="104.46" y="26.11" width="17.13" height="2.27"/>
            </g>
            <g>
              <rect class="cls-9" x="117.7" y="83.15" width="50.78" height="23.83"/>
              <rect class="cls-10" x="124.29" y="86.73" width="25.91" height="2.62"/>
              <rect class="cls-10" x="124.29" y="91.38" width="19.76" height="2.62"/>
              <rect class="cls-10" x="124.29" y="96.03" width="13.33" height="2.61"/>
              <rect class="cls-11" x="139.26" y="96.03" width="7.94" height="2.61"/>
              <rect class="cls-10" x="124.29" y="100.68" width="18.01" height="2.62"/>
            </g>
            <g>
              <rect class="cls-12" x="139.98" width="19.19" height="19.19"/>
              <g>
                <circle class="cls-13" cx="149.57" cy="9.64" r="6.01"/>
                <path class="cls-14" d="M154.13,9.64a4.57,4.57,0,0,1-3,4.27,4.65,4.65,0,0,1-.55.17l-.34.07a4.38,4.38,0,0,1-.71.06,4.61,4.61,0,0,1-1.35-.2A4.56,4.56,0,0,1,147,5.85a4.44,4.44,0,0,1,.49-.29A4.56,4.56,0,0,1,153.82,8,4.47,4.47,0,0,1,154.13,9.64Z"/>
                <path class="cls-15" d="M151.53,8.41a.53.53,0,0,0-.73-.17l-.71.44v-2a.53.53,0,0,0-1.05,0V9.64a.3.3,0,0,0,0,0,.49.49,0,0,0,0,.1.48.48,0,0,0,0,.1v0l0,0a.5.5,0,0,0,.13.12l.05,0a.52.52,0,0,0,.23.06h0a.52.52,0,0,0,.18,0l0,0,.05,0,1.51-1A.53.53,0,0,0,151.53,8.41Z"/>
              </g>
            </g>
            <g>
              <rect class="cls-16" x="169.73" y="36.41" width="43.06" height="43.06"/>
              <path class="cls-17" d="M191.26,59.88h0a5.48,5.48,0,0,1-5.48-5.48V51.1a5.48,5.48,0,0,1,5.48-5.48h0a5.48,5.48,0,0,1,5.48,5.48V54.4A5.48,5.48,0,0,1,191.26,59.88Z"/>
              <path class="cls-17" d="M191.26,57.06a12.94,12.94,0,0,0-11.7,7.41A3.86,3.86,0,0,0,183,70h16.44A3.86,3.86,0,0,0,203,64.47,12.94,12.94,0,0,0,191.26,57.06Z"/>
            </g>
            <rect class="cls-13" x="147.67" y="27.29" width="28.46" height="12.63"/>
            <rect class="cls-13" x="130.31" y="59.44" width="28.46" height="12.63"/>
            <rect class="cls-13" x="138.99" y="43.36" width="28.45" height="12.63"/>
            <g class="cls-18">
              <rect class="cls-11" x="152.85" y="38.19" width="0.74" height="22.97" transform="translate(45.67 169.58) rotate(-66.07)"/>
              <rect class="cls-11" x="141.73" y="49.31" width="22.97" height="0.74" transform="translate(-6.99 66.29) rotate(-23.88)"/>
            </g>
            <path class="cls-11" d="M171,10.7c-13.51-2.48-20,21-5.25,23,14.34,1.93,17.44-23,2.74-21.57-1.9.18-1.92,3.18,0,3,10.39-1,8,16.15-1.69,15.67-11.28-.56-6.44-19,3.41-17.23,1.89.35,2.7-2.54.8-2.89Z"/>
            <path class="cls-11" d="M148.61,23.48c-12.17.38-24.75,5.06-32.82,14.5-5.59,6.54-11,20.57-.05,24.83,1.8.7,2.58-2.2.8-2.89-7-2.73-3.84-11.88-1-16.52a31.43,31.43,0,0,1,8.75-9.07,44.29,44.29,0,0,1,24.34-7.85c1.93-.06,1.93-3.06,0-3Z"/>
            <path class="cls-11" d="M118.16,55.69l2.57,3c.68.79,2.1,1.9,2.31,2.93l.39-1.46c-1.06.94-2.88,1.54-4.13,2.21l-4.23,2.26c-1.7.91-.19,3.5,1.51,2.59l6.15-3.29c1.07-.57,3-1.11,3.23-2.51.2-1.19-.88-2.22-1.56-3-1.35-1.62-2.74-3.21-4.11-4.82s-3.37.66-2.12,2.12Z"/>
            <path class="cls-11" d="M176.59,97.81c6.67,1.63,16.86-2.14,18.59-9.42.45-1.88-2.44-2.68-2.89-.8-1.33,5.6-9.83,8.56-14.9,7.32-1.87-.46-2.67,2.43-.8,2.89Z"/>
            <path class="cls-11" d="M187.95,89c2.52-2,5-4.1,7.63-6l-2.05-.54a52.31,52.31,0,0,1,3.9,6.67c.87,1.72,3.46.21,2.59-1.51a52.25,52.25,0,0,0-3.9-6.68,1.52,1.52,0,0,0-2.05-.54c-2.84,2-5.52,4.27-8.24,6.45-1.51,1.21.63,3.32,2.12,2.12Z"/>
            <g>
              <rect class="cls-19" x="161.12" y="103.1" width="16.62" height="16.62"/>
              <path class="cls-17" d="M169.43,112.16h0a2.12,2.12,0,0,1-2.12-2.12v-1.27a2.12,2.12,0,0,1,2.12-2.12h0a2.12,2.12,0,0,1,2.12,2.12V110A2.12,2.12,0,0,1,169.43,112.16Z"/>
              <path class="cls-17" d="M169.43,111.07a5,5,0,0,0-4.52,2.86,1.49,1.49,0,0,0,1.34,2.13h6.35a1.49,1.49,0,0,0,1.34-2.13A5,5,0,0,0,169.43,111.07Z"/>
            </g>
          </g>
          <g>
            <ellipse class="cls-20" cx="54.6" cy="158.79" rx="12.61" ry="0.96"/>
            <path class="cls-21" d="M51.52,140.95c3.12-2-.87-8.07-8.14-8.66a14.56,14.56,0,0,0-.06,6C43.92,140.76,47.14,143.73,51.52,140.95Z"/>
            <path class="cls-22" d="M55.71,141.44c3.63-.71,2.14-7.83-4.41-11A14.55,14.55,0,0,0,49,136C48.7,138.48,50.62,142.42,55.71,141.44Z"/>
            <path class="cls-23" d="M58.24,141.92c3.23.9,4.91-5.47.91-10.72A13.18,13.18,0,0,0,55,134.81C53.78,136.69,53.73,140.66,58.24,141.92Z"/>
            <path class="cls-24" d="M59.65,141.11c2.25,2,6.12-2.48,5-8.3a11.85,11.85,0,0,0-4.74,1.3C58.1,135.12,56.5,138.31,59.65,141.11Z"/>
            <path class="cls-25" d="M66.15,126.11c12.36-4.85,2.47-29-22.71-36.09,0,0-4.94,10.74-4.38,21.25C39.53,120.23,48.84,132.9,66.15,126.11Z"/>
            <path class="cls-26" d="M46,93.07a22.4,22.4,0,0,1,5.76,6.07,17.07,17.07,0,0,1,1.12,1.75c.34.6.75,1.16,1,1.8s.6,1.25.91,1.86l.45.93.36,1A52.88,52.88,0,0,1,58,114.36c.26,1.37.56,2.72.83,4.08l.49,4.15c.08.69.22,1.38.25,2.07l.11,2.1c.08,1.4.13,2.8.23,4.2,0,2.81,0,5.63-.08,8.46-.08,1.41-.18,2.83-.23,4.25l-.09,2.13,0,1.07-.1,1.06-.34,4.27-.17,2.15-.11,2.16.2,0,1.49-8.46.18-1.06.12-1.07.24-2.14.47-4.27.11-1.07,0-1.07.08-2.15.17-4.3-.16-4.3-.08-2.15c0-.72-.16-1.43-.23-2.14l-.56-4.27-.93-4.21a47.61,47.61,0,0,0-2.85-8.12l-.43-1-.52-.94L55.06,102c-.34-.63-.8-1.19-1.2-1.79a16.62,16.62,0,0,0-1.29-1.72A21,21,0,0,0,46,92.88Z"/>
            <path class="cls-27" d="M58.35,114.26c-9.41-3.69-1.88-22.09,17.29-27.48,0,0,3.76,8.17,3.34,16.17C78.61,109.78,71.53,119.43,58.35,114.26Z"/>
            <path class="cls-28" d="M73.63,89a56.1,56.1,0,0,0-5.08,7.31c-.73,1.29-1.46,2.59-2.11,3.93l-1,2-.93,2a99.74,99.74,0,0,0-5.77,16.89c-.33,1.45-.61,2.91-.92,4.37l-.45,2.19L57,129.9l-.62,4.42c-.15,1.48-.26,3-.36,4.45L55.88,141c0,.74,0,1.48-.05,2.23l-.08,4.45c0,1.48.15,3,.21,4.44s.19,3,.32,4.42h.16c.05-2.94,0-5.89.14-8.83l.28-4.41c.05-.73.08-1.47.15-2.2l.25-2.19.51-4.39.72-4.35.36-2.18.46-2.16c.32-1.44.61-2.88,1-4.31a123,123,0,0,1,5.38-16.8,83.49,83.49,0,0,1,8.12-15.63Z"/>
            <path class="cls-29" d="M53.17,103.52c17.77-5.45,6.55-40.23-27.84-52.8,0,0-8,14.46-8.39,29.18C16.64,92.46,28.29,111.15,53.17,103.52Z"/>
            <path class="cls-30" d="M28.49,55.2q1,1.36,1.86,2.79c.62.92,1.2,1.87,1.77,2.83s1.13,1.91,1.66,2.89,1.1,1.92,1.57,2.93c1,2,2.07,3.91,2.95,5.95.46,1,.94,2,1.41,3L41,78.63l1.27,3.05,1.15,3.1,1.15,3.1c.39,1,.67,2.1,1,3.15s.67,2.1,1,3.14l.51,1.57c.16.53.28,1.06.43,1.6l1.68,6.39c.51,2.14.93,4.3,1.41,6.46.22,1.08.48,2.15.67,3.24s.32,2.18.5,3.27c.34,2.18.75,4.35,1,6.54s.45,4.4.7,6.6l.37,3.3.18,3.32.41,6.66c.27,4.45.1,8.9.36,13.4l.25,0,.39-6.7.2-3.35c.07-1.12.15-2.23.11-3.35l-.05-6.71,0-3.36-.25-3.35L55,123c-.24-2.22-.6-4.44-.89-6.66L53.63,113c-.18-1.11-.43-2.2-.65-3.3-.46-2.19-.87-4.39-1.37-6.58a143,143,0,0,0-8.85-25.33A101,101,0,0,0,28.67,55Z"/>
            <path class="cls-31" d="M43.07,119.69c10.87-7.86-4.91-29-31.32-29.56,0,0-2.12,11.75,1.08,21.88C15.55,120.66,27.86,130.71,43.07,119.69Z"/>
            <path class="cls-32" d="M15,92.46a55.33,55.33,0,0,1,7.47,6l1.75,1.63,1.66,1.72C27,103,28,104.2,29,105.4A107.69,107.69,0,0,1,39.9,121l2.29,4.18a22.26,22.26,0,0,1,1.06,2.13l1,2.16,1,2.15c.17.36.35.72.51,1.08l.44,1.11c.58,1.49,1.2,3,1.83,4.43s1.14,3,1.67,4.5l1.58,4.55c1,3.05,1.82,6.17,2.89,9.24l.17,0c-.72-3.15-1.38-6.31-2.16-9.45l-1.37-4.65c-.46-1.55-.88-3.11-1.48-4.61l-1.69-4.55-.42-1.14c-.15-.37-.33-.74-.49-1.11l-1-2.21-1-2.21a22.78,22.78,0,0,0-1.06-2.18l-2.29-4.28A90.36,90.36,0,0,0,30,104.47c-1.11-1.18-2.19-2.38-3.4-3.46l-1.77-1.66L23,97.78a48,48,0,0,0-8-5.48Z"/>
            <path class="cls-33" d="M39.87,87a16.38,16.38,0,0,0-4.16-2.23c-.72-.3-1.47-.5-2.21-.73s-1.51-.35-2.27-.52a24.16,24.16,0,0,0-4.66-.36,13.69,13.69,0,0,0-4.68.87v.16a46.85,46.85,0,0,1,9,.94,87.89,87.89,0,0,1,8.88,2Z"/>
            <path class="cls-34" d="M37,77.08a12.15,12.15,0,0,0-3.12-2.48,17.85,17.85,0,0,0-1.73-.89c-.59-.26-1.21-.47-1.81-.7a18.08,18.08,0,0,0-3.84-.78,10.39,10.39,0,0,0-4,.36l0,.16a39,39,0,0,1,7.35,1.81A73.44,73.44,0,0,1,37,77.23Z"/>
            <path class="cls-35" d="M49.5,84.9a12.94,12.94,0,0,0,1.21-2.34c.3-.75.58-1.47.82-2.17.09-.37.24-.69.35-1l.17-.51a4.25,4.25,0,0,0,.19-.5,11.26,11.26,0,0,1,1.11-2.13l-.06-.14a4.69,4.69,0,0,0-2,1.56,8.07,8.07,0,0,0-1.18,2.26,15.38,15.38,0,0,0-.76,5Z"/>
            <path class="cls-36" d="M43.65,74a9.5,9.5,0,0,0,.49-2c.1-.62.15-1.22.21-1.79s.09-1.13.14-1.68a7.13,7.13,0,0,1,.42-1.79l-.07-.09a3.51,3.51,0,0,0-1.18,1.55,6.42,6.42,0,0,0-.45,1.91,14,14,0,0,0,.32,3.88Z"/>
            <g>
              <path class="cls-37" d="M45.94,158.79H61.22a1.5,1.5,0,0,0,1.49-1.32l2.11-17.71a1.5,1.5,0,0,0-1.49-1.67H43.83a1.5,1.5,0,0,0-1.49,1.67l2.11,17.71A1.5,1.5,0,0,0,45.94,158.79Z"/>
              <path class="cls-38" d="M41.86,141.59H65.3a1,1,0,0,0,1-.84l.46-3a1,1,0,0,0-1-1.14H41.4a1,1,0,0,0-1,1.14l.46,3A1,1,0,0,0,41.86,141.59Z"/>
            </g>
          </g>
          <g>
            <ellipse class="cls-20" cx="227.58" cy="173.86" rx="18.68" ry="1.49"/>
            <g>
              <path class="cls-39" d="M235.34,167.86a13.3,13.3,0,0,0-.31,2.28c-.15.92-1,1.25-1.53,2s-1.44,2.16,2,2.23c3.67.07,5.84-.17,5.22-2.17a10.19,10.19,0,0,1-.7-3.53,2.15,2.15,0,0,0-.42-1.72C239.17,166.57,235.88,165.86,235.34,167.86Z"/>
              <path class="cls-40" d="M206.29,61.4c1.4-.81,4.22-3.08,9.44-10.18a56.36,56.36,0,0,0,5-7.87c1.41-2.6.08-4.88-1.81-5.34-2.43-.59-5.08-.21-7.83,3.85a146.88,146.88,0,0,0-8.22,13.47C200.79,59.15,204.64,62.35,206.29,61.4Z"/>
              <path class="cls-41" d="M219.3,27c-1.5.7-2.15.71-2.69-1.16-.42-1.45-1.13-6.54,1.19-6.88s4.14-.41,3.87,2.73S221.08,26.16,219.3,27Z"/>
              <path class="cls-42" d="M228.07,29.73c0,.23.54,5.1.63,8.85a3.86,3.86,0,0,1-3.63,3.62H225c-1.8,0-3.91-1.63-3.75-3.43a48.43,48.43,0,0,0,.06-6.64Z"/>
              <path class="cls-43" d="M237.15,50c-3.34,11-4.84,24.31-4.19,32H207.8s.15-23.57,1.83-36.47a9.66,9.66,0,0,1,5.31-7.4,18.06,18.06,0,0,1,6.71-1.49h4.65a28.12,28.12,0,0,1,4.91.61C237.87,38.52,239.08,43.66,237.15,50Z"/>
              <path class="cls-44" d="M232.86,97.41S235,92.13,233,82H207.8a89,89,0,0,0,1,15.39Z"/>
              <g>
                <path class="cls-45" d="M227.89,130.34c-2-8.19,6.35-9.63,9-3.71,3.74,8.38,3.43,36.32,3.23,41.67,0,.7,0,.64-.39.53-.62-.16-1.2-1.49-2.83-1.44-.94,0-1.71,1.17-1.71,1.17C234.39,161.29,229.84,138.28,227.89,130.34Z"/>
                <path class="cls-46" d="M221.1,98.5c-.88-10.18,2.41-18.07,8.73-14.71,2.66,1.41,3.63,4.24,4,6.91s2.31,30.35,3,35.36c1.54,11.28-7.36,8.24-8.33,5.11C226,123.28,221.58,104,221.1,98.5Z"/>
              </g>
              <path class="cls-47" d="M212.31,130.32c-1.59-7.48,5.77-8.55,8.64-2.73,4.52,9.16,3,31.12,4.64,43-1.62-1.83-2.83-1.82-3.39-1.69a1.74,1.74,0,0,0-1.19.86C218.58,154.16,214,138.31,212.31,130.32Z"/>
              <path class="cls-48" d="M210.1,53c-1.34-.49-3.44-1.26-4.53-1.75s-2.3,2-2,2.7c.49,1.1,3.09,3.46,4.46,2.75s2.41.33,3.37-.66S212.29,53.84,210.1,53Z"/>
              <path class="cls-49" d="M221,129.7c-.46,3.24-8.26,8.21-9.26-3.14-.44-5-3.33-32.65-3.58-35.33s-.6-6.75.35-7.4c5.9-4,12.6,3.18,12.52,13.39C221,104.06,222,123,221,129.7Z"/>
              <path class="cls-50" d="M210,55.59c.94,1.84,2.53,2.58,6.61,5.18,5.88,3.75,9.16,5.21,12.09,5.27s3.4-6-.11-7.86c-3-1.59-15-3.52-16.83-4.5C210.56,53,209.24,54.1,210,55.59Z"/>
              <path class="cls-51" d="M221,38.25c-.1,2.06-.58,3.71-3.19,7.8-3.49,5.48-7.9,13-10.35,15.09-2.26,1.9-6.64-2.43-4.21-5.59,2.05-2.67,14.17-16.66,15.41-18.29C219.45,36.17,221,36.58,221,38.25Z"/>
              <path class="cls-48" d="M230.54,26.2c-.42,4.16-.54,5.09-2.36,6.79a9.82,9.82,0,0,1-6.39,2.49c-2.13,0-3.71-2.25-4.19-4a30.26,30.26,0,0,1-.48-10.66,6.73,6.73,0,0,1,6.1-5.11C226.15,15.68,231.55,16,230.54,26.2Z"/>
              <path class="cls-52" d="M221,169.53a8.53,8.53,0,0,1-3.57,2.6c-1.9.82-5.94,1.2-3.7,1.93a13.94,13.94,0,0,0,6.18.08,27.83,27.83,0,0,1,4.17-.24c2.06,0,2.07-.13,1.8-2.37C225.51,168.44,221.94,167.79,221,169.53Z"/>
              <path class="cls-53" d="M230.53,25.55c-1.13,1.13-1.71,1.34-2.81-.17-.85-1.17-3.16-5.54-1.17-6.61s3.61-1.72,4.39,1.2S231.86,24.21,230.53,25.55Z"/>
              <ellipse class="cls-48" cx="230.66" cy="26.81" rx="2.82" ry="1.48" transform="translate(118.59 230.19) rotate(-67.77)"/>
              <path class="cls-48" d="M218.69,39.72c-.58-.84-4.75-7.63-3-7.91,1.89-.31,4.14,2,4.8,2.9a4.11,4.11,0,0,1,.31,4.68C220.2,40.06,219.24,40.51,218.69,39.72Z"/>
              <path class="cls-54" d="M229.5,66c1.45-.7,3.49-4.44,6.31-12.79a56.32,56.32,0,0,0,2.4-9c.55-2.9-1.82-4.82-3.35-4.54-2.46.46-5.48,2.75-5.86,4.25C226.84,52.37,225.7,59,224.82,61,223.53,63.87,227.91,66.75,229.5,66Z"/>
              <path class="cls-55" d="M229.18,18.5c-1.37.93-7.62,2.63-9.45,3.09,0,0,2.54-1.31,2.93-2a25.32,25.32,0,0,1-7,0,9.45,9.45,0,0,0,1.84-1.38,9.25,9.25,0,0,1-3.32-.57s6.78-4.63,12.69-3C229.87,15.63,230.56,17.56,229.18,18.5Z"/>
            </g>
            <g class="cls-56">
              <path class="cls-57" d="M246.26,32.33c-11.71-4.52-25.45,8.44-26.61,21.81-1.19,13.66,9.72,18.08,5,37.55-3.72,15.4,6.42,29.68,10.4,41.69,4.37,13.19-8.43,27.29-4,38.95,10.24,26.82-4.79,41.67,15.38,44.06,20.71,2.45,18.13-9.88,39.42-13.86,18.5-3.46,10.84-50.76,5.63-68.44-5.52-18.71-17.1-20-16.09-41.13.6-12.66,1.65-20-12.83-30.95C255.15,56.42,268.67,41,246.26,32.33Z"/>
            </g>
          </g>
          <g>
            <ellipse class="cls-20" cx="80.08" cy="173.44" rx="24.59" ry="1.87"/>
            <g>
              <path class="cls-58" d="M73.81,32.16c1.4-2-.2-5.46-4.18-5.78C65.09,26,57,28.62,61.36,39.2c4.5,11,3.09,13.83.06,15.48,0,0,10.4.83,9.6-8.25S70.56,36.74,73.81,32.16Z"/>
              <path class="cls-59" d="M94.66,66.57c-1.56-.26-4.94-1.24-12.11-5.07a58.48,58.48,0,0,1-7.25-4.4c-2.16-1.51-1.43-3.64-.05-4.11a9.16,9.16,0,0,1,6.46.51c6.74,4.19,11.71,7.51,13.57,8.32C98,63,96.51,66.88,94.66,66.57Z"/>
              <path class="cls-60" d="M106.34,52.73c.1,1.17-1.29,1.38-3.21,4.58a33.2,33.2,0,0,1-6.62,8.54c-1.86,1.84-5.26-.08-3.45-2.71,1.52-2.22,10.23-10.23,11.15-11.58C104.82,50.66,106.26,51.78,106.34,52.73Z"/>
              <path class="cls-42" d="M72.26,45.37c0,.23-.38,5-.45,8.73,0,1.81,1.28,3.53,2.58,3.57h.06c1.28,0,2.78-1.61,2.67-3.38-.21-3.22-.05-6.51,0-6.56Z"/>
              <path class="cls-61" d="M68.53,66.17a62.89,62.89,0,0,1,2.31,10.11,25.62,25.62,0,0,1,0,7.61c-.21,1.52-.5,3-.85,4.52-.13.57-1.24,5.13-1.29,5.62H89.49c-.2-4.08-4.85-16.9-1.7-25.21,2.18-5.75-.72-5.93-2.68-10.71a14.06,14.06,0,0,0-1.66-3.47,6,6,0,0,0-3.19-2,11.87,11.87,0,0,0-1.94-.27c-3.53-.28-11.83-1.31-12.61,3.71a8.88,8.88,0,0,0,.41,4.05c.47,1.46,1.16,2.84,1.74,4.26Q68.23,65.29,68.53,66.17Z"/>
              <path class="cls-62" d="M68.75,107.25s-1.8-4.54-.08-13.23H89.49a127.45,127.45,0,0,1,.76,13.23Z"/>
              <g>
                <path class="cls-63" d="M72.45,136.47c2.73-6.7-3.92-9-6.87-4.29-4.17,6.64-6,31.18-6.52,35.75-.07.6.26.54.61.47,1-.2.59-1.16,2.06-1.07.78,0,1,1.11,1,1.11C64.34,162.34,69.8,143,72.45,136.47Z"/>
                <path class="cls-64" d="M79.09,108.2c.73-8.74-2.61-15.53-7.83-12.65-2.2,1.21-3,3.65-3.3,5.93S66,127.56,65.47,131.86c-1.28,9.69,6.1,7.08,6.9,4.39C74.39,129.48,78.69,113,79.09,108.2Z"/>
              </g>
              <path class="cls-65" d="M91.4,135.09c.27-6.56-5.88-6.42-7.43-1.08-2.43,8.4,1.77,26.44,2,36.74,1.07-1.78,2.09-2.21,2.56-2.17a1.71,1.71,0,0,1,1.2.67C89.61,155.67,91.11,142.1,91.4,135.09Z"/>
              <path class="cls-66" d="M84.22,135.8c.82,2.68,7.86,5.78,7.13-4-.33-4.33-1.2-28.21-1.36-30.51s-.55-5.67-1.66-6.09c-5.56-2.1-11,4.77-9.5,13.41C79.8,114.42,82.52,130.24,84.22,135.8Z"/>
              <path class="cls-48" d="M69.76,41.88c.41,4.11.53,5,2.33,6.7A9.69,9.69,0,0,0,78.39,51c2.1,0,3.66-2.22,4.14-4A29.89,29.89,0,0,0,83,36.55a6.64,6.64,0,0,0-6-5C74.09,31.5,68.75,31.84,69.76,41.88Z"/>
              <path class="cls-67" d="M90,169.21a7.1,7.1,0,0,0,3,2.24c1.58.7,4.92,1,3.06,1.65a11.1,11.1,0,0,1-5.12.07,22.2,22.2,0,0,0-3.45-.21c-1.7,0-1.72-.12-1.49-2C86.29,168.27,89.25,167.71,90,169.21Z"/>
              <path class="cls-68" d="M62.69,168c.24.46.49,2.7,2.06,3.41s4.92,1,3.06,1.65a11.1,11.1,0,0,1-5.12.07c-1.1-.18-1.27-1.37-2.56-1.38-1.7,0-1.72-.12-1.49-2C59,167.1,61.92,166.54,62.69,168Z"/>
              <path class="cls-69" d="M82.32,34.4c1.61,2.75-10.09,7.79-12.69,7.36s-2.58-6-.57-8.47S78.52,27.91,82.32,34.4Z"/>
              <path class="cls-70" d="M78,33.71c.42,2.33,4.5,2.86,5.19,4.78.43,1.19.63-2.58-.32-4.29S77.13,29,78,33.71Z"/>
              <ellipse class="cls-48" cx="69.63" cy="42.48" rx="1.46" ry="2.78" transform="translate(-10.89 29.48) rotate(-22.21)"/>
              <g class="cls-71">
                <path class="cls-72" d="M108.88,96l10.4-7.46,5.19-3.72a2.62,2.62,0,0,0,.61-3.65L98.87,44.61a2.62,2.62,0,0,0-3.65-.6L90,47.73,25.61,93.94a2.62,2.62,0,0,0-.6,3.65l26.2,36.53a2.62,2.62,0,0,0,3.65.6l43.25-31a1.09,1.09,0,0,0,1.26,0l9.09-6.52A1.09,1.09,0,0,0,108.88,96Z"/>
                <g>
                  <path class="cls-73" d="M39.94,114.54h0a2.46,2.46,0,0,1,.56-3.43h0a2.46,2.46,0,0,1,3.43.56h0a2.46,2.46,0,0,1-.56,3.43h0A2.46,2.46,0,0,1,39.94,114.54Z"/>
                  <path class="cls-73" d="M102.27,58.66h0a1,1,0,0,1,.23-1.39h0a1,1,0,0,1,1.39.23h0a1,1,0,0,1-.23,1.39h0A1,1,0,0,1,102.27,58.66Z"/>
                  <path class="cls-73" d="M111,69.77l-5.79-8.08a.37.37,0,0,1,.6-.43l5.79,8.08a.37.37,0,0,1-.6.43Z"/>
                  <rect class="cls-74" x="39.31" y="64.97" width="72.1" height="48.32" transform="translate(-37.83 60.62) rotate(-35.65)"/>
                </g>
                <polygon class="cls-75" points="110.22 75.89 63.17 68.14 77.9 57.58 99.66 61.16 110.22 75.89"/>
                <polygon class="cls-75" points="117.58 86.15 52.92 75.5 60.28 70.22 112.3 78.79 117.58 86.15"/>
              </g>
              <g>
                <path class="cls-48" d="M70.23,79.43a7.54,7.54,0,0,1,3.52.57c.78.46-1.16.52-2.1.62S69.18,79.47,70.23,79.43Z"/>
                <path class="cls-48" d="M71.33,80.22C73.61,81.4,75,81.65,75.7,82.7s-1.64,1.36-2.5,1.07-4-1.14-4.37-2.15S69.64,79.35,71.33,80.22Z"/>
              </g>
              <path class="cls-76" d="M53.58,70.82c.59-1.47,2.27-4.56,7.54-10.75A58.37,58.37,0,0,1,67,53.94c1.93-1.79,3.86-.62,4,.82A9.17,9.17,0,0,1,69.1,61c-5.53,5.69-9.84,9.83-11,11.48C56.34,74.84,52.88,72.56,53.58,70.82Z"/>
              <path class="cls-77" d="M69.59,81.68c-1.18.28-1.61-1.12-5.2-2.6a34.55,34.55,0,0,1-9.79-5.5c-2.18-1.64-.71-5.42,2.26-4,2.52,1.23,12.08,9,13.61,9.7C71.49,79.8,70.56,81.45,69.59,81.68Z"/>
              <path class="cls-48" d="M104,53.15a9,9,0,0,1-1.61-2.34c-.24-.55,0-1.29.64-1.23a4.46,4.46,0,0,1,2.69,1.74,3.1,3.1,0,0,1,0,2.29C105.51,54.24,104.84,54,104,53.15Z"/>
            </g>
            <g class="cls-78">
              <path class="cls-79" d="M39,60.58C25.44,63.32,24.66,46,19.89,58.9,15,72.05,29.06,56.5,18.83,74.63c-8.09,14.34-.76,30.43.44,43,1.31,13.83-16.34,25-14.54,37.38C8.88,183.44-11.4,194.92,10,201.4c22,6.65,22.36-6,46.64-5.51,21.09.4,25.11-47.56,24-66-1.13-19.48-8.72-24.18-2.09-44.73,4-12.3,1.11-24.59-10-28.2C61.42,54.68,55.34,57.28,39,60.58Z"/>
            </g>
          </g>
        </g>
      </g>
    </g>
  </g>
</svg>
