<svg xmlns="http://www.w3.org/2000/svg" viewBox="0 0 407.5 407.5"><defs><style>.cls-1{fill:#fff;fill-rule:evenodd}</style></defs><g id="Layer_2" data-name="Layer 2"><g id="white"><path class="cls-1" d="M291.68 251.56c-4.81 10.65-7.11 15.41-13.29 24.82-8.64 13.15-20.81 29.52-35.88 29.65-13.4.12-16.84-8.72-35-8.62s-22 8.78-35.39 8.65c-15.08-.14-26.61-14.92-35.25-28.07-24.15-36.76-26.67-79.89-11.78-102.83 10.58-16.3 27.28-25.84 43-25.84 16 0 26 8.77 39.24 8.77 12.82 0 20.63-8.78 39.11-8.78 14 0 28.77 7.6 39.31 20.76-34.55 18.93-28.94 68.28 6 81.47"/><path class="cls-1" d="M232.38 134.65c6.71-8.62 11.81-20.79 10-33.23-11 .76-23.8 7.73-31.29 16.83-6.8 8.26-12.41 20.51-10.22 32.41 12 .37 24.36-6.78 31.55-16"/><circle cx="203.75" cy="203.75" r="198.75" fill="none" stroke="#fff" stroke-miterlimit="10" stroke-width="10"/></g></g></svg>