<svg xmlns="http://www.w3.org/2000/svg" viewBox="0 0 407.5 407.5"><g id="Layer_2" data-name="Layer 2"><g id="white"><path d="M243.61 171.34l-117.17-67.41L218.99 196l24.62-24.66zm-127.83-66.73a5.73 5.73 0 0 0-.71 2.78v190.77a5.84 5.84 0 0 0 .25 1.69l98-98.19zM219 207.31l-96.1 96.27a5.93 5.93 0 0 0 .83-.39l121.42-69.86zm70.53-9.55l-38.74-22.29-26.13 26.17 27.69 27.55 37.18-21.39a5.79 5.79 0 0 0 0-10.04z" fill="#fff" fill-rule="evenodd"/><circle cx="203.75" cy="203.75" r="198.75" fill="none" stroke="#fff" stroke-miterlimit="10" stroke-width="10"/></g></g></svg>