<svg xmlns="http://www.w3.org/2000/svg" viewBox="0 0 407.5 407.5"><g id="Layer_2" data-name="Layer 2"><g id="white"><path d="M155.47 149.23c0-19.77 0-25.25.2-31.66.27-8.78 4.63-15.24 12.82-18.28a93.39 93.39 0 0 1 18.81-4.88c10.82-1.59 17.77 4.08 18.52 15 .74 10.72.15 19.66.65 29.72l6-1.42c.24-3.48.16-19.79-.07-26-.51-14-5.9-24.08-19.88-24.41a67.75 67.75 0 0 0-28.45 6c-10.67 4.57-14.65 15.36-14.72 22.46-.1 11.49-.05 23-.05 34.75zm62.67-38.45c10-.78 14.9-1.27 14.9 11 .18 3.83.27 7.67.27 11.88l6.88-1.49c-.59-6.44-.92-12.69-1.8-18.86-1.44-10-10.46-10-21.21-8.85zm-18.2-2.21c-5.9 1.88-11.22 3.84-14.25 9.12-4.68 8.15-3.25 17.07-3.54 26.18l6.32-1.27c0-3 .07-5.94 0-8.84-.48-16 9.9-17.08 12.22-19.14zm103.31 36.88l-33.45-12.07-165.55 33v120.83l165.6 33.06 33.4-12.27zm-127 116.36l-36-5v-29.34h36zm0-37.34h-36v-30.6l36-5zm51 44.42l-48-6.66v-34.76h48zm0-44.42h-48v-36l48-6.66z" fill="#fff"/><circle cx="203.75" cy="203.75" r="198.75" fill="none" stroke="#fff" stroke-miterlimit="10" stroke-width="10"/></g></g></svg>